ISO-10303-21;
HEADER;
/* Generated by software containing ST-Developer
 * from STEP Tools, Inc. (www.steptools.com) 
 */
/* OPTION: using custom renumber hook */

FILE_DESCRIPTION(
/* description */ ('STEP AP242 Edition 2',
'CAx-IF Rec.Pracs.---Representation and Presentation of Product Manufa
cturing Information (PMI)---4.0---2014-10-13',
'CAx-IF Rec.Pracs.---3D Tessellated Geometry---0.4---2014-09-14','2;1',
'CAx-IF Rec.Pracs.---User Defined Attributes---1.5---2016-08-15'),
/* implementation_level */ '2;1');

FILE_NAME(
/* name */ '1 Copy 1',
/* time_stamp */ '2026-08-29T11:31:14Z',
/* author */ (''),
/* organization */ (''),
/* preprocessor_version */ 'ST-DEVELOPER v20',
/* originating_system */ 'ONSHAPE BY PTC INC, 1.220',
/* authorisation */ '  ');

FILE_SCHEMA (('AP242_MANAGED_MODEL_BASED_3D_ENGINEERING_MIM_LF { 1 0 10303 442 3 1 4 }'));
ENDSEC;

DATA;
#10=SHAPE_REPRESENTATION_RELATIONSHIP('','',#537,#11);
#11=ADVANCED_BREP_SHAPE_REPRESENTATION('',(#535),#867);
#12=CIRCLE('',#541,0.005);
#13=CIRCLE('',#542,0.005);
#14=CIRCLE('',#545,0.005);
#15=CIRCLE('',#546,0.005);
#16=CIRCLE('',#549,0.005);
#17=CIRCLE('',#550,0.005);
#18=CIRCLE('',#561,0.005);
#19=CIRCLE('',#562,0.005);
#20=CIRCLE('',#564,0.0011);
#21=CIRCLE('',#565,0.0011);
#22=CIRCLE('',#566,0.0011);
#23=CIRCLE('',#567,0.0011);
#24=CIRCLE('',#569,0.0011);
#25=CIRCLE('',#570,0.0011);
#26=CIRCLE('',#571,0.0011);
#27=CIRCLE('',#572,0.0011);
#28=CYLINDRICAL_SURFACE('',#540,0.005);
#29=CYLINDRICAL_SURFACE('',#544,0.005);
#30=CYLINDRICAL_SURFACE('',#548,0.005);
#31=CYLINDRICAL_SURFACE('',#560,0.005);
#32=CYLINDRICAL_SURFACE('',#573,0.0011);
#33=CYLINDRICAL_SURFACE('',#574,0.0011);
#34=CYLINDRICAL_SURFACE('',#575,0.0011);
#35=CYLINDRICAL_SURFACE('',#576,0.0011);
#36=ORIENTED_EDGE('',*,*,#172,.F.);
#37=ORIENTED_EDGE('',*,*,#173,.F.);
#38=ORIENTED_EDGE('',*,*,#174,.T.);
#39=ORIENTED_EDGE('',*,*,#175,.T.);
#40=ORIENTED_EDGE('',*,*,#176,.T.);
#41=ORIENTED_EDGE('',*,*,#177,.F.);
#42=ORIENTED_EDGE('',*,*,#178,.F.);
#43=ORIENTED_EDGE('',*,*,#173,.T.);
#44=ORIENTED_EDGE('',*,*,#179,.T.);
#45=ORIENTED_EDGE('',*,*,#180,.F.);
#46=ORIENTED_EDGE('',*,*,#181,.F.);
#47=ORIENTED_EDGE('',*,*,#177,.T.);
#48=ORIENTED_EDGE('',*,*,#182,.T.);
#49=ORIENTED_EDGE('',*,*,#183,.F.);
#50=ORIENTED_EDGE('',*,*,#184,.F.);
#51=ORIENTED_EDGE('',*,*,#180,.T.);
#52=ORIENTED_EDGE('',*,*,#185,.T.);
#53=ORIENTED_EDGE('',*,*,#186,.F.);
#54=ORIENTED_EDGE('',*,*,#187,.F.);
#55=ORIENTED_EDGE('',*,*,#183,.T.);
#56=ORIENTED_EDGE('',*,*,#188,.T.);
#57=ORIENTED_EDGE('',*,*,#189,.F.);
#58=ORIENTED_EDGE('',*,*,#190,.F.);
#59=ORIENTED_EDGE('',*,*,#186,.T.);
#60=ORIENTED_EDGE('',*,*,#191,.F.);
#61=ORIENTED_EDGE('',*,*,#192,.F.);
#62=ORIENTED_EDGE('',*,*,#193,.T.);
#63=ORIENTED_EDGE('',*,*,#189,.T.);
#64=ORIENTED_EDGE('',*,*,#194,.F.);
#65=ORIENTED_EDGE('',*,*,#195,.F.);
#66=ORIENTED_EDGE('',*,*,#196,.T.);
#67=ORIENTED_EDGE('',*,*,#197,.T.);
#68=ORIENTED_EDGE('',*,*,#198,.T.);
#69=ORIENTED_EDGE('',*,*,#199,.F.);
#70=ORIENTED_EDGE('',*,*,#200,.F.);
#71=ORIENTED_EDGE('',*,*,#195,.T.);
#72=ORIENTED_EDGE('',*,*,#201,.T.);
#73=ORIENTED_EDGE('',*,*,#202,.F.);
#74=ORIENTED_EDGE('',*,*,#203,.F.);
#75=ORIENTED_EDGE('',*,*,#199,.T.);
#76=ORIENTED_EDGE('',*,*,#204,.F.);
#77=ORIENTED_EDGE('',*,*,#205,.F.);
#78=ORIENTED_EDGE('',*,*,#206,.T.);
#79=ORIENTED_EDGE('',*,*,#207,.T.);
#80=ORIENTED_EDGE('',*,*,#205,.T.);
#81=ORIENTED_EDGE('',*,*,#208,.T.);
#82=ORIENTED_EDGE('',*,*,#209,.F.);
#83=ORIENTED_EDGE('',*,*,#210,.F.);
#84=ORIENTED_EDGE('',*,*,#209,.T.);
#85=ORIENTED_EDGE('',*,*,#211,.T.);
#86=ORIENTED_EDGE('',*,*,#212,.F.);
#87=ORIENTED_EDGE('',*,*,#213,.F.);
#88=ORIENTED_EDGE('',*,*,#214,.F.);
#89=ORIENTED_EDGE('',*,*,#197,.F.);
#90=ORIENTED_EDGE('',*,*,#215,.T.);
#91=ORIENTED_EDGE('',*,*,#202,.T.);
#92=ORIENTED_EDGE('',*,*,#216,.F.);
#93=ORIENTED_EDGE('',*,*,#207,.F.);
#94=ORIENTED_EDGE('',*,*,#217,.T.);
#95=ORIENTED_EDGE('',*,*,#212,.T.);
#96=ORIENTED_EDGE('',*,*,#218,.T.);
#97=ORIENTED_EDGE('',*,*,#175,.F.);
#98=ORIENTED_EDGE('',*,*,#219,.F.);
#99=ORIENTED_EDGE('',*,*,#192,.T.);
#100=ORIENTED_EDGE('',*,*,#220,.T.);
#101=ORIENTED_EDGE('',*,*,#221,.T.);
#102=ORIENTED_EDGE('',*,*,#222,.T.);
#103=ORIENTED_EDGE('',*,*,#223,.T.);
#104=ORIENTED_EDGE('',*,*,#206,.F.);
#105=ORIENTED_EDGE('',*,*,#210,.T.);
#106=ORIENTED_EDGE('',*,*,#213,.T.);
#107=ORIENTED_EDGE('',*,*,#217,.F.);
#108=ORIENTED_EDGE('',*,*,#196,.F.);
#109=ORIENTED_EDGE('',*,*,#200,.T.);
#110=ORIENTED_EDGE('',*,*,#203,.T.);
#111=ORIENTED_EDGE('',*,*,#215,.F.);
#112=ORIENTED_EDGE('',*,*,#174,.F.);
#113=ORIENTED_EDGE('',*,*,#178,.T.);
#114=ORIENTED_EDGE('',*,*,#181,.T.);
#115=ORIENTED_EDGE('',*,*,#184,.T.);
#116=ORIENTED_EDGE('',*,*,#187,.T.);
#117=ORIENTED_EDGE('',*,*,#190,.T.);
#118=ORIENTED_EDGE('',*,*,#193,.F.);
#119=ORIENTED_EDGE('',*,*,#219,.T.);
#120=ORIENTED_EDGE('',*,*,#224,.F.);
#121=ORIENTED_EDGE('',*,*,#225,.F.);
#122=ORIENTED_EDGE('',*,*,#226,.T.);
#123=ORIENTED_EDGE('',*,*,#227,.T.);
#124=ORIENTED_EDGE('',*,*,#228,.T.);
#125=ORIENTED_EDGE('',*,*,#229,.T.);
#126=ORIENTED_EDGE('',*,*,#230,.T.);
#127=ORIENTED_EDGE('',*,*,#231,.T.);
#128=ORIENTED_EDGE('',*,*,#194,.T.);
#129=ORIENTED_EDGE('',*,*,#214,.T.);
#130=ORIENTED_EDGE('',*,*,#201,.F.);
#131=ORIENTED_EDGE('',*,*,#198,.F.);
#132=ORIENTED_EDGE('',*,*,#172,.T.);
#133=ORIENTED_EDGE('',*,*,#218,.F.);
#134=ORIENTED_EDGE('',*,*,#191,.T.);
#135=ORIENTED_EDGE('',*,*,#188,.F.);
#136=ORIENTED_EDGE('',*,*,#185,.F.);
#137=ORIENTED_EDGE('',*,*,#182,.F.);
#138=ORIENTED_EDGE('',*,*,#179,.F.);
#139=ORIENTED_EDGE('',*,*,#176,.F.);
#140=ORIENTED_EDGE('',*,*,#223,.F.);
#141=ORIENTED_EDGE('',*,*,#231,.F.);
#142=ORIENTED_EDGE('',*,*,#222,.F.);
#143=ORIENTED_EDGE('',*,*,#230,.F.);
#144=ORIENTED_EDGE('',*,*,#221,.F.);
#145=ORIENTED_EDGE('',*,*,#229,.F.);
#146=ORIENTED_EDGE('',*,*,#220,.F.);
#147=ORIENTED_EDGE('',*,*,#228,.F.);
#148=ORIENTED_EDGE('',*,*,#225,.T.);
#149=ORIENTED_EDGE('',*,*,#232,.F.);
#150=ORIENTED_EDGE('',*,*,#233,.F.);
#151=ORIENTED_EDGE('',*,*,#234,.T.);
#152=ORIENTED_EDGE('',*,*,#226,.F.);
#153=ORIENTED_EDGE('',*,*,#234,.F.);
#154=ORIENTED_EDGE('',*,*,#235,.T.);
#155=ORIENTED_EDGE('',*,*,#236,.T.);
#156=ORIENTED_EDGE('',*,*,#227,.F.);
#157=ORIENTED_EDGE('',*,*,#236,.F.);
#158=ORIENTED_EDGE('',*,*,#237,.T.);
#159=ORIENTED_EDGE('',*,*,#238,.T.);
#160=ORIENTED_EDGE('',*,*,#224,.T.);
#161=ORIENTED_EDGE('',*,*,#238,.F.);
#162=ORIENTED_EDGE('',*,*,#239,.F.);
#163=ORIENTED_EDGE('',*,*,#232,.T.);
#164=ORIENTED_EDGE('',*,*,#204,.T.);
#165=ORIENTED_EDGE('',*,*,#216,.T.);
#166=ORIENTED_EDGE('',*,*,#211,.F.);
#167=ORIENTED_EDGE('',*,*,#208,.F.);
#168=ORIENTED_EDGE('',*,*,#233,.T.);
#169=ORIENTED_EDGE('',*,*,#239,.T.);
#170=ORIENTED_EDGE('',*,*,#237,.F.);
#171=ORIENTED_EDGE('',*,*,#235,.F.);
#172=EDGE_CURVE('',#240,#241,#288,.T.);
#173=EDGE_CURVE('',#242,#240,#289,.T.);
#174=EDGE_CURVE('',#242,#243,#290,.T.);
#175=EDGE_CURVE('',#243,#241,#291,.T.);
#176=EDGE_CURVE('',#240,#244,#12,.T.);
#177=EDGE_CURVE('',#245,#244,#292,.T.);
#178=EDGE_CURVE('',#242,#245,#13,.T.);
#179=EDGE_CURVE('',#244,#246,#293,.T.);
#180=EDGE_CURVE('',#247,#246,#294,.T.);
#181=EDGE_CURVE('',#245,#247,#295,.T.);
#182=EDGE_CURVE('',#246,#248,#14,.T.);
#183=EDGE_CURVE('',#249,#248,#296,.T.);
#184=EDGE_CURVE('',#247,#249,#15,.T.);
#185=EDGE_CURVE('',#248,#250,#297,.T.);
#186=EDGE_CURVE('',#251,#250,#298,.T.);
#187=EDGE_CURVE('',#249,#251,#299,.T.);
#188=EDGE_CURVE('',#250,#252,#16,.T.);
#189=EDGE_CURVE('',#253,#252,#300,.T.);
#190=EDGE_CURVE('',#251,#253,#17,.T.);
#191=EDGE_CURVE('',#254,#252,#301,.T.);
#192=EDGE_CURVE('',#255,#254,#302,.T.);
#193=EDGE_CURVE('',#255,#253,#303,.T.);
#194=EDGE_CURVE('',#256,#257,#304,.T.);
#195=EDGE_CURVE('',#258,#256,#305,.T.);
#196=EDGE_CURVE('',#258,#259,#306,.T.);
#197=EDGE_CURVE('',#259,#257,#307,.T.);
#198=EDGE_CURVE('',#256,#260,#308,.T.);
#199=EDGE_CURVE('',#261,#260,#309,.T.);
#200=EDGE_CURVE('',#258,#261,#310,.T.);
#201=EDGE_CURVE('',#260,#262,#311,.T.);
#202=EDGE_CURVE('',#263,#262,#312,.T.);
#203=EDGE_CURVE('',#261,#263,#313,.T.);
#204=EDGE_CURVE('',#264,#265,#314,.T.);
#205=EDGE_CURVE('',#266,#264,#315,.T.);
#206=EDGE_CURVE('',#266,#267,#316,.T.);
#207=EDGE_CURVE('',#267,#265,#317,.T.);
#208=EDGE_CURVE('',#264,#268,#318,.T.);
#209=EDGE_CURVE('',#269,#268,#319,.T.);
#210=EDGE_CURVE('',#266,#269,#320,.T.);
#211=EDGE_CURVE('',#268,#270,#321,.T.);
#212=EDGE_CURVE('',#271,#270,#322,.T.);
#213=EDGE_CURVE('',#269,#271,#323,.T.);
#214=EDGE_CURVE('',#257,#262,#324,.T.);
#215=EDGE_CURVE('',#259,#263,#325,.T.);
#216=EDGE_CURVE('',#265,#270,#326,.T.);
#217=EDGE_CURVE('',#267,#271,#327,.T.);
#218=EDGE_CURVE('',#254,#241,#18,.T.);
#219=EDGE_CURVE('',#255,#243,#19,.T.);
#220=EDGE_CURVE('',#272,#272,#20,.F.);
#221=EDGE_CURVE('',#273,#273,#21,.F.);
#222=EDGE_CURVE('',#274,#274,#22,.F.);
#223=EDGE_CURVE('',#275,#275,#23,.F.);
#224=EDGE_CURVE('',#276,#277,#328,.T.);
#225=EDGE_CURVE('',#278,#276,#329,.T.);
#226=EDGE_CURVE('',#278,#279,#330,.T.);
#227=EDGE_CURVE('',#279,#277,#331,.T.);
#228=EDGE_CURVE('',#280,#280,#24,.T.);
#229=EDGE_CURVE('',#281,#281,#25,.T.);
#230=EDGE_CURVE('',#282,#282,#26,.T.);
#231=EDGE_CURVE('',#283,#283,#27,.T.);
#232=EDGE_CURVE('',#284,#276,#332,.T.);
#233=EDGE_CURVE('',#285,#284,#333,.T.);
#234=EDGE_CURVE('',#285,#278,#334,.T.);
#235=EDGE_CURVE('',#285,#286,#335,.T.);
#236=EDGE_CURVE('',#286,#279,#336,.T.);
#237=EDGE_CURVE('',#286,#287,#337,.T.);
#238=EDGE_CURVE('',#287,#277,#338,.T.);
#239=EDGE_CURVE('',#284,#287,#339,.T.);
#240=VERTEX_POINT('',#725);
#241=VERTEX_POINT('',#726);
#242=VERTEX_POINT('',#728);
#243=VERTEX_POINT('',#730);
#244=VERTEX_POINT('',#734);
#245=VERTEX_POINT('',#736);
#246=VERTEX_POINT('',#740);
#247=VERTEX_POINT('',#742);
#248=VERTEX_POINT('',#746);
#249=VERTEX_POINT('',#748);
#250=VERTEX_POINT('',#752);
#251=VERTEX_POINT('',#754);
#252=VERTEX_POINT('',#758);
#253=VERTEX_POINT('',#760);
#254=VERTEX_POINT('',#764);
#255=VERTEX_POINT('',#766);
#256=VERTEX_POINT('',#770);
#257=VERTEX_POINT('',#771);
#258=VERTEX_POINT('',#773);
#259=VERTEX_POINT('',#775);
#260=VERTEX_POINT('',#779);
#261=VERTEX_POINT('',#781);
#262=VERTEX_POINT('',#785);
#263=VERTEX_POINT('',#787);
#264=VERTEX_POINT('',#791);
#265=VERTEX_POINT('',#792);
#266=VERTEX_POINT('',#794);
#267=VERTEX_POINT('',#796);
#268=VERTEX_POINT('',#800);
#269=VERTEX_POINT('',#802);
#270=VERTEX_POINT('',#806);
#271=VERTEX_POINT('',#808);
#272=VERTEX_POINT('',#821);
#273=VERTEX_POINT('',#823);
#274=VERTEX_POINT('',#825);
#275=VERTEX_POINT('',#827);
#276=VERTEX_POINT('',#830);
#277=VERTEX_POINT('',#831);
#278=VERTEX_POINT('',#833);
#279=VERTEX_POINT('',#835);
#280=VERTEX_POINT('',#838);
#281=VERTEX_POINT('',#840);
#282=VERTEX_POINT('',#842);
#283=VERTEX_POINT('',#844);
#284=VERTEX_POINT('',#851);
#285=VERTEX_POINT('',#853);
#286=VERTEX_POINT('',#857);
#287=VERTEX_POINT('',#861);
#288=LINE('',#724,#340);
#289=LINE('',#727,#341);
#290=LINE('',#729,#342);
#291=LINE('',#731,#343);
#292=LINE('',#735,#344);
#293=LINE('',#739,#345);
#294=LINE('',#741,#346);
#295=LINE('',#743,#347);
#296=LINE('',#747,#348);
#297=LINE('',#751,#349);
#298=LINE('',#753,#350);
#299=LINE('',#755,#351);
#300=LINE('',#759,#352);
#301=LINE('',#763,#353);
#302=LINE('',#765,#354);
#303=LINE('',#767,#355);
#304=LINE('',#769,#356);
#305=LINE('',#772,#357);
#306=LINE('',#774,#358);
#307=LINE('',#776,#359);
#308=LINE('',#778,#360);
#309=LINE('',#780,#361);
#310=LINE('',#782,#362);
#311=LINE('',#784,#363);
#312=LINE('',#786,#364);
#313=LINE('',#788,#365);
#314=LINE('',#790,#366);
#315=LINE('',#793,#367);
#316=LINE('',#795,#368);
#317=LINE('',#797,#369);
#318=LINE('',#799,#370);
#319=LINE('',#801,#371);
#320=LINE('',#803,#372);
#321=LINE('',#805,#373);
#322=LINE('',#807,#374);
#323=LINE('',#809,#375);
#324=LINE('',#811,#376);
#325=LINE('',#812,#377);
#326=LINE('',#814,#378);
#327=LINE('',#815,#379);
#328=LINE('',#829,#380);
#329=LINE('',#832,#381);
#330=LINE('',#834,#382);
#331=LINE('',#836,#383);
#332=LINE('',#850,#384);
#333=LINE('',#852,#385);
#334=LINE('',#854,#386);
#335=LINE('',#856,#387);
#336=LINE('',#858,#388);
#337=LINE('',#860,#389);
#338=LINE('',#862,#390);
#339=LINE('',#864,#391);
#340=VECTOR('',#586,1.);
#341=VECTOR('',#587,1.);
#342=VECTOR('',#588,1.);
#343=VECTOR('',#589,1.);
#344=VECTOR('',#594,1.);
#345=VECTOR('',#599,1.);
#346=VECTOR('',#600,1.);
#347=VECTOR('',#601,1.);
#348=VECTOR('',#606,1.);
#349=VECTOR('',#611,1.);
#350=VECTOR('',#612,1.);
#351=VECTOR('',#613,1.);
#352=VECTOR('',#618,1.);
#353=VECTOR('',#623,1.);
#354=VECTOR('',#624,1.);
#355=VECTOR('',#625,1.);
#356=VECTOR('',#628,1.);
#357=VECTOR('',#629,1.);
#358=VECTOR('',#630,1.);
#359=VECTOR('',#631,1.);
#360=VECTOR('',#634,1.);
#361=VECTOR('',#635,1.);
#362=VECTOR('',#636,1.);
#363=VECTOR('',#639,1.);
#364=VECTOR('',#640,1.);
#365=VECTOR('',#641,1.);
#366=VECTOR('',#644,1.);
#367=VECTOR('',#645,1.);
#368=VECTOR('',#646,1.);
#369=VECTOR('',#647,1.);
#370=VECTOR('',#650,1.);
#371=VECTOR('',#651,1.);
#372=VECTOR('',#652,1.);
#373=VECTOR('',#655,1.);
#374=VECTOR('',#656,1.);
#375=VECTOR('',#657,1.);
#376=VECTOR('',#660,1.);
#377=VECTOR('',#661,1.);
#378=VECTOR('',#664,1.);
#379=VECTOR('',#665,1.);
#380=VECTOR('',#684,1.);
#381=VECTOR('',#685,1.);
#382=VECTOR('',#686,1.);
#383=VECTOR('',#687,1.);
#384=VECTOR('',#706,1.);
#385=VECTOR('',#707,1.);
#386=VECTOR('',#708,1.);
#387=VECTOR('',#711,1.);
#388=VECTOR('',#712,1.);
#389=VECTOR('',#715,1.);
#390=VECTOR('',#716,1.);
#391=VECTOR('',#719,1.);
#392=EDGE_LOOP('',(#36,#37,#38,#39));
#393=EDGE_LOOP('',(#40,#41,#42,#43));
#394=EDGE_LOOP('',(#44,#45,#46,#47));
#395=EDGE_LOOP('',(#48,#49,#50,#51));
#396=EDGE_LOOP('',(#52,#53,#54,#55));
#397=EDGE_LOOP('',(#56,#57,#58,#59));
#398=EDGE_LOOP('',(#60,#61,#62,#63));
#399=EDGE_LOOP('',(#64,#65,#66,#67));
#400=EDGE_LOOP('',(#68,#69,#70,#71));
#401=EDGE_LOOP('',(#72,#73,#74,#75));
#402=EDGE_LOOP('',(#76,#77,#78,#79));
#403=EDGE_LOOP('',(#80,#81,#82,#83));
#404=EDGE_LOOP('',(#84,#85,#86,#87));
#405=EDGE_LOOP('',(#88,#89,#90,#91));
#406=EDGE_LOOP('',(#92,#93,#94,#95));
#407=EDGE_LOOP('',(#96,#97,#98,#99));
#408=EDGE_LOOP('',(#100));
#409=EDGE_LOOP('',(#101));
#410=EDGE_LOOP('',(#102));
#411=EDGE_LOOP('',(#103));
#412=EDGE_LOOP('',(#104,#105,#106,#107));
#413=EDGE_LOOP('',(#108,#109,#110,#111));
#414=EDGE_LOOP('',(#112,#113,#114,#115,#116,#117,#118,#119));
#415=EDGE_LOOP('',(#120,#121,#122,#123));
#416=EDGE_LOOP('',(#124));
#417=EDGE_LOOP('',(#125));
#418=EDGE_LOOP('',(#126));
#419=EDGE_LOOP('',(#127));
#420=EDGE_LOOP('',(#128,#129,#130,#131));
#421=EDGE_LOOP('',(#132,#133,#134,#135,#136,#137,#138,#139));
#422=EDGE_LOOP('',(#140));
#423=EDGE_LOOP('',(#141));
#424=EDGE_LOOP('',(#142));
#425=EDGE_LOOP('',(#143));
#426=EDGE_LOOP('',(#144));
#427=EDGE_LOOP('',(#145));
#428=EDGE_LOOP('',(#146));
#429=EDGE_LOOP('',(#147));
#430=EDGE_LOOP('',(#148,#149,#150,#151));
#431=EDGE_LOOP('',(#152,#153,#154,#155));
#432=EDGE_LOOP('',(#156,#157,#158,#159));
#433=EDGE_LOOP('',(#160,#161,#162,#163));
#434=EDGE_LOOP('',(#164,#165,#166,#167));
#435=EDGE_LOOP('',(#168,#169,#170,#171));
#436=FACE_BOUND('',#392,.T.);
#437=FACE_BOUND('',#393,.T.);
#438=FACE_BOUND('',#394,.T.);
#439=FACE_BOUND('',#395,.T.);
#440=FACE_BOUND('',#396,.T.);
#441=FACE_BOUND('',#397,.T.);
#442=FACE_BOUND('',#398,.T.);
#443=FACE_BOUND('',#399,.T.);
#444=FACE_BOUND('',#400,.T.);
#445=FACE_BOUND('',#401,.T.);
#446=FACE_BOUND('',#402,.T.);
#447=FACE_BOUND('',#403,.T.);
#448=FACE_BOUND('',#404,.T.);
#449=FACE_BOUND('',#405,.T.);
#450=FACE_BOUND('',#406,.T.);
#451=FACE_BOUND('',#407,.T.);
#452=FACE_BOUND('',#408,.T.);
#453=FACE_BOUND('',#409,.T.);
#454=FACE_BOUND('',#410,.T.);
#455=FACE_BOUND('',#411,.T.);
#456=FACE_BOUND('',#412,.T.);
#457=FACE_BOUND('',#413,.T.);
#458=FACE_BOUND('',#414,.T.);
#459=FACE_BOUND('',#415,.T.);
#460=FACE_BOUND('',#416,.T.);
#461=FACE_BOUND('',#417,.T.);
#462=FACE_BOUND('',#418,.T.);
#463=FACE_BOUND('',#419,.T.);
#464=FACE_BOUND('',#420,.T.);
#465=FACE_BOUND('',#421,.T.);
#466=FACE_BOUND('',#422,.T.);
#467=FACE_BOUND('',#423,.T.);
#468=FACE_BOUND('',#424,.T.);
#469=FACE_BOUND('',#425,.T.);
#470=FACE_BOUND('',#426,.T.);
#471=FACE_BOUND('',#427,.T.);
#472=FACE_BOUND('',#428,.T.);
#473=FACE_BOUND('',#429,.T.);
#474=FACE_BOUND('',#430,.T.);
#475=FACE_BOUND('',#431,.T.);
#476=FACE_BOUND('',#432,.T.);
#477=FACE_BOUND('',#433,.T.);
#478=FACE_BOUND('',#434,.T.);
#479=FACE_BOUND('',#435,.T.);
#480=PLANE('',#539);
#481=PLANE('',#543);
#482=PLANE('',#547);
#483=PLANE('',#551);
#484=PLANE('',#552);
#485=PLANE('',#553);
#486=PLANE('',#554);
#487=PLANE('',#555);
#488=PLANE('',#556);
#489=PLANE('',#557);
#490=PLANE('',#558);
#491=PLANE('',#559);
#492=PLANE('',#563);
#493=PLANE('',#568);
#494=PLANE('',#577);
#495=PLANE('',#578);
#496=PLANE('',#579);
#497=PLANE('',#580);
#498=PLANE('',#581);
#499=ADVANCED_FACE('',(#436),#480,.T.);
#500=ADVANCED_FACE('',(#437),#28,.T.);
#501=ADVANCED_FACE('',(#438),#481,.F.);
#502=ADVANCED_FACE('',(#439),#29,.T.);
#503=ADVANCED_FACE('',(#440),#482,.F.);
#504=ADVANCED_FACE('',(#441),#30,.T.);
#505=ADVANCED_FACE('',(#442),#483,.T.);
#506=ADVANCED_FACE('',(#443),#484,.T.);
#507=ADVANCED_FACE('',(#444),#485,.F.);
#508=ADVANCED_FACE('',(#445),#486,.F.);
#509=ADVANCED_FACE('',(#446),#487,.T.);
#510=ADVANCED_FACE('',(#447),#488,.F.);
#511=ADVANCED_FACE('',(#448),#489,.F.);
#512=ADVANCED_FACE('',(#449),#490,.T.);
#513=ADVANCED_FACE('',(#450),#491,.T.);
#514=ADVANCED_FACE('',(#451),#31,.T.);
#515=ADVANCED_FACE('',(#452,#453,#454,#455,#456,#457,#458),#492,.T.);
#516=ADVANCED_FACE('',(#459,#460,#461,#462,#463,#464,#465),#493,.F.);
#517=ADVANCED_FACE('',(#466,#467),#32,.F.);
#518=ADVANCED_FACE('',(#468,#469),#33,.F.);
#519=ADVANCED_FACE('',(#470,#471),#34,.F.);
#520=ADVANCED_FACE('',(#472,#473),#35,.F.);
#521=ADVANCED_FACE('',(#474),#494,.F.);
#522=ADVANCED_FACE('',(#475),#495,.T.);
#523=ADVANCED_FACE('',(#476),#496,.T.);
#524=ADVANCED_FACE('',(#477),#497,.F.);
#525=ADVANCED_FACE('',(#478,#479),#498,.F.);
#526=CLOSED_SHELL('',(#499,#500,#501,#502,#503,#504,#505,#506,#507,#508,
#509,#510,#511,#512,#513,#514,#515,#516,#517,#518,#519,#520,#521,#522,#523,
#524,#525));
#527=STYLED_ITEM('',(#528),#535);
#528=PRESENTATION_STYLE_ASSIGNMENT((#529));
#529=SURFACE_STYLE_USAGE(.BOTH.,#530);
#530=SURFACE_SIDE_STYLE('',(#531));
#531=SURFACE_STYLE_FILL_AREA(#532);
#532=FILL_AREA_STYLE('',(#533));
#533=FILL_AREA_STYLE_COLOUR('',#534);
#534=COLOUR_RGB('',0.349019607843138,0.376470588235294,0.4);
#535=MANIFOLD_SOLID_BREP('Part 1',#526);
#536=SHAPE_DEFINITION_REPRESENTATION(#872,#537);
#537=SHAPE_REPRESENTATION('Part 1',(#538),#867);
#538=AXIS2_PLACEMENT_3D('',#722,#582,#583);
#539=AXIS2_PLACEMENT_3D('',#723,#584,#585);
#540=AXIS2_PLACEMENT_3D('',#732,#590,#591);
#541=AXIS2_PLACEMENT_3D('',#733,#592,#593);
#542=AXIS2_PLACEMENT_3D('',#737,#595,#596);
#543=AXIS2_PLACEMENT_3D('',#738,#597,#598);
#544=AXIS2_PLACEMENT_3D('',#744,#602,#603);
#545=AXIS2_PLACEMENT_3D('',#745,#604,#605);
#546=AXIS2_PLACEMENT_3D('',#749,#607,#608);
#547=AXIS2_PLACEMENT_3D('',#750,#609,#610);
#548=AXIS2_PLACEMENT_3D('',#756,#614,#615);
#549=AXIS2_PLACEMENT_3D('',#757,#616,#617);
#550=AXIS2_PLACEMENT_3D('',#761,#619,#620);
#551=AXIS2_PLACEMENT_3D('',#762,#621,#622);
#552=AXIS2_PLACEMENT_3D('',#768,#626,#627);
#553=AXIS2_PLACEMENT_3D('',#777,#632,#633);
#554=AXIS2_PLACEMENT_3D('',#783,#637,#638);
#555=AXIS2_PLACEMENT_3D('',#789,#642,#643);
#556=AXIS2_PLACEMENT_3D('',#798,#648,#649);
#557=AXIS2_PLACEMENT_3D('',#804,#653,#654);
#558=AXIS2_PLACEMENT_3D('',#810,#658,#659);
#559=AXIS2_PLACEMENT_3D('',#813,#662,#663);
#560=AXIS2_PLACEMENT_3D('',#816,#666,#667);
#561=AXIS2_PLACEMENT_3D('',#817,#668,#669);
#562=AXIS2_PLACEMENT_3D('',#818,#670,#671);
#563=AXIS2_PLACEMENT_3D('',#819,#672,#673);
#564=AXIS2_PLACEMENT_3D('',#820,#674,#675);
#565=AXIS2_PLACEMENT_3D('',#822,#676,#677);
#566=AXIS2_PLACEMENT_3D('',#824,#678,#679);
#567=AXIS2_PLACEMENT_3D('',#826,#680,#681);
#568=AXIS2_PLACEMENT_3D('',#828,#682,#683);
#569=AXIS2_PLACEMENT_3D('',#837,#688,#689);
#570=AXIS2_PLACEMENT_3D('',#839,#690,#691);
#571=AXIS2_PLACEMENT_3D('',#841,#692,#693);
#572=AXIS2_PLACEMENT_3D('',#843,#694,#695);
#573=AXIS2_PLACEMENT_3D('',#845,#696,#697);
#574=AXIS2_PLACEMENT_3D('',#846,#698,#699);
#575=AXIS2_PLACEMENT_3D('',#847,#700,#701);
#576=AXIS2_PLACEMENT_3D('',#848,#702,#703);
#577=AXIS2_PLACEMENT_3D('',#849,#704,#705);
#578=AXIS2_PLACEMENT_3D('',#855,#709,#710);
#579=AXIS2_PLACEMENT_3D('',#859,#713,#714);
#580=AXIS2_PLACEMENT_3D('',#863,#717,#718);
#581=AXIS2_PLACEMENT_3D('',#865,#720,#721);
#582=DIRECTION('',(0.,0.,1.));
#583=DIRECTION('',(1.,0.,0.));
#584=DIRECTION('',(0.,1.,0.));
#585=DIRECTION('',(0.,0.,1.));
#586=DIRECTION('',(1.,0.,0.));
#587=DIRECTION('',(0.,0.,-1.));
#588=DIRECTION('',(1.,0.,0.));
#589=DIRECTION('',(0.,0.,-1.));
#590=DIRECTION('',(0.,0.,-1.));
#591=DIRECTION('',(-1.,0.,0.));
#592=DIRECTION('',(0.,0.,1.));
#593=DIRECTION('',(1.,0.,0.));
#594=DIRECTION('',(0.,0.,-1.));
#595=DIRECTION('',(0.,0.,1.));
#596=DIRECTION('',(1.,0.,0.));
#597=DIRECTION('',(1.,0.,0.));
#598=DIRECTION('',(0.,0.,-1.));
#599=DIRECTION('',(0.,-1.,0.));
#600=DIRECTION('',(0.,0.,-1.));
#601=DIRECTION('',(0.,-1.,0.));
#602=DIRECTION('',(0.,0.,-1.));
#603=DIRECTION('',(-1.,0.,0.));
#604=DIRECTION('',(0.,0.,1.));
#605=DIRECTION('',(1.,0.,0.));
#606=DIRECTION('',(0.,0.,-1.));
#607=DIRECTION('',(0.,0.,1.));
#608=DIRECTION('',(1.,0.,0.));
#609=DIRECTION('',(0.,1.,0.));
#610=DIRECTION('',(0.,0.,1.));
#611=DIRECTION('',(1.,0.,0.));
#612=DIRECTION('',(0.,0.,-1.));
#613=DIRECTION('',(1.,0.,0.));
#614=DIRECTION('',(0.,0.,-1.));
#615=DIRECTION('',(-1.,0.,0.));
#616=DIRECTION('',(0.,0.,1.));
#617=DIRECTION('',(1.,0.,0.));
#618=DIRECTION('',(0.,0.,-1.));
#619=DIRECTION('',(0.,0.,1.));
#620=DIRECTION('',(1.,0.,0.));
#621=DIRECTION('',(1.,8.7062658769225E-17,0.));
#622=DIRECTION('',(-8.7062658769225E-17,1.,0.));
#623=DIRECTION('',(8.7062658769225E-17,-1.,0.));
#624=DIRECTION('',(0.,0.,-1.));
#625=DIRECTION('',(8.7062658769225E-17,-1.,0.));
#626=DIRECTION('',(1.,8.67361737988404E-17,0.));
#627=DIRECTION('',(-8.67361737988404E-17,1.,0.));
#628=DIRECTION('',(8.67361737988404E-17,-1.,0.));
#629=DIRECTION('',(0.,0.,-1.));
#630=DIRECTION('',(8.67361737988404E-17,-1.,0.));
#631=DIRECTION('',(0.,0.,-1.));
#632=DIRECTION('',(-4.68844182696435E-16,1.,0.));
#633=DIRECTION('',(-1.,-4.68844182696435E-16,0.));
#634=DIRECTION('',(1.,4.68844182696435E-16,0.));
#635=DIRECTION('',(0.,0.,-1.));
#636=DIRECTION('',(1.,4.68844182696435E-16,0.));
#637=DIRECTION('',(1.,4.33680868994201E-17,0.));
#638=DIRECTION('',(-4.33680868994201E-17,1.,0.));
#639=DIRECTION('',(4.33680868994201E-17,-1.,0.));
#640=DIRECTION('',(0.,0.,-1.));
#641=DIRECTION('',(4.33680868994201E-17,-1.,0.));
#642=DIRECTION('',(1.,0.,0.));
#643=DIRECTION('',(0.,0.,-1.));
#644=DIRECTION('',(0.,-1.,0.));
#645=DIRECTION('',(0.,0.,-1.));
#646=DIRECTION('',(0.,-1.,0.));
#647=DIRECTION('',(0.,0.,-1.));
#648=DIRECTION('',(0.,1.,0.));
#649=DIRECTION('',(0.,0.,1.));
#650=DIRECTION('',(1.,0.,0.));
#651=DIRECTION('',(0.,0.,-1.));
#652=DIRECTION('',(1.,0.,0.));
#653=DIRECTION('',(1.,0.,0.));
#654=DIRECTION('',(0.,0.,-1.));
#655=DIRECTION('',(0.,-1.,0.));
#656=DIRECTION('',(0.,0.,-1.));
#657=DIRECTION('',(0.,-1.,0.));
#658=DIRECTION('',(0.,1.,0.));
#659=DIRECTION('',(0.,0.,1.));
#660=DIRECTION('',(1.,0.,0.));
#661=DIRECTION('',(1.,0.,0.));
#662=DIRECTION('',(0.,1.,0.));
#663=DIRECTION('',(0.,0.,1.));
#664=DIRECTION('',(1.,0.,0.));
#665=DIRECTION('',(1.,0.,0.));
#666=DIRECTION('',(0.,0.,-1.));
#667=DIRECTION('',(-1.,0.,0.));
#668=DIRECTION('',(0.,0.,1.));
#669=DIRECTION('',(1.,0.,0.));
#670=DIRECTION('',(0.,0.,1.));
#671=DIRECTION('',(1.,0.,0.));
#672=DIRECTION('',(0.,0.,1.));
#673=DIRECTION('',(1.,0.,0.));
#674=DIRECTION('',(0.,0.,1.));
#675=DIRECTION('',(1.,0.,0.));
#676=DIRECTION('',(0.,0.,1.));
#677=DIRECTION('',(1.,0.,0.));
#678=DIRECTION('',(0.,0.,1.));
#679=DIRECTION('',(1.,0.,0.));
#680=DIRECTION('',(0.,0.,1.));
#681=DIRECTION('',(1.,0.,0.));
#682=DIRECTION('',(0.,0.,1.));
#683=DIRECTION('',(1.,0.,0.));
#684=DIRECTION('',(3.38482629458889E-16,1.,0.));
#685=DIRECTION('',(-1.,0.,0.));
#686=DIRECTION('',(1.69241314729444E-16,1.,0.));
#687=DIRECTION('',(-1.,0.,0.));
#688=DIRECTION('',(0.,0.,1.));
#689=DIRECTION('',(1.,0.,0.));
#690=DIRECTION('',(0.,0.,1.));
#691=DIRECTION('',(1.,0.,0.));
#692=DIRECTION('',(0.,0.,1.));
#693=DIRECTION('',(1.,0.,0.));
#694=DIRECTION('',(0.,0.,1.));
#695=DIRECTION('',(1.,0.,0.));
#696=DIRECTION('',(0.,0.,1.));
#697=DIRECTION('',(1.,0.,0.));
#698=DIRECTION('',(0.,0.,1.));
#699=DIRECTION('',(1.,0.,0.));
#700=DIRECTION('',(0.,0.,1.));
#701=DIRECTION('',(1.,0.,0.));
#702=DIRECTION('',(0.,0.,1.));
#703=DIRECTION('',(1.,0.,0.));
#704=DIRECTION('',(0.,-1.,0.));
#705=DIRECTION('',(0.,0.,-1.));
#706=DIRECTION('',(0.,0.,-1.));
#707=DIRECTION('',(-1.,0.,0.));
#708=DIRECTION('',(0.,0.,-1.));
#709=DIRECTION('',(-1.,1.69241314729444E-16,0.));
#710=DIRECTION('',(-1.69241314729444E-16,-1.,0.));
#711=DIRECTION('',(1.69241314729444E-16,1.,0.));
#712=DIRECTION('',(0.,0.,-1.));
#713=DIRECTION('',(0.,-1.,0.));
#714=DIRECTION('',(0.,0.,-1.));
#715=DIRECTION('',(-1.,0.,0.));
#716=DIRECTION('',(0.,0.,-1.));
#717=DIRECTION('',(-1.,3.38482629458889E-16,0.));
#718=DIRECTION('',(-3.38482629458889E-16,-1.,0.));
#719=DIRECTION('',(3.38482629458889E-16,1.,0.));
#720=DIRECTION('',(0.,0.,1.));
#721=DIRECTION('',(1.,0.,0.));
#722=CARTESIAN_POINT('',(0.,0.,0.));
#723=CARTESIAN_POINT('',(-0.00687145991150579,0.0896031153321266,0.0058));
#724=CARTESIAN_POINT('',(-0.00687145991150579,0.0896031153321266,0.));
#725=CARTESIAN_POINT('',(-0.0460714599115058,0.0896031153321266,0.));
#726=CARTESIAN_POINT('',(0.0323285400884942,0.0896031153321266,0.));
#727=CARTESIAN_POINT('',(-0.0460714599115058,0.0896031153321266,0.0058));
#728=CARTESIAN_POINT('',(-0.0460714599115058,0.0896031153321266,0.0058));
#729=CARTESIAN_POINT('',(-0.00687145991150579,0.0896031153321266,0.0058));
#730=CARTESIAN_POINT('',(0.0323285400884942,0.0896031153321266,0.0058));
#731=CARTESIAN_POINT('',(0.0323285400884942,0.0896031153321266,0.0058));
#732=CARTESIAN_POINT('',(-0.0460714599115058,0.0846031153321266,0.0058));
#733=CARTESIAN_POINT('',(-0.0460714599115058,0.0846031153321266,0.));
#734=CARTESIAN_POINT('',(-0.0510714599115058,0.0846031153321266,0.));
#735=CARTESIAN_POINT('',(-0.0510714599115058,0.0846031153321266,0.0058));
#736=CARTESIAN_POINT('',(-0.0510714599115058,0.0846031153321266,0.0058));
#737=CARTESIAN_POINT('',(-0.0460714599115058,0.0846031153321266,0.0058));
#738=CARTESIAN_POINT('',(-0.0510714599115058,0.00490311533212662,0.0058));
#739=CARTESIAN_POINT('',(-0.0510714599115058,0.00490311533212662,0.));
#740=CARTESIAN_POINT('',(-0.0510714599115058,-0.0747968846678734,0.));
#741=CARTESIAN_POINT('',(-0.0510714599115058,-0.0747968846678734,0.0058));
#742=CARTESIAN_POINT('',(-0.0510714599115058,-0.0747968846678734,0.0058));
#743=CARTESIAN_POINT('',(-0.0510714599115058,0.00490311533212662,0.0058));
#744=CARTESIAN_POINT('',(-0.0460714599115058,-0.0747968846678734,0.0058));
#745=CARTESIAN_POINT('',(-0.0460714599115058,-0.0747968846678734,0.));
#746=CARTESIAN_POINT('',(-0.0460714599115058,-0.0797968846678734,0.));
#747=CARTESIAN_POINT('',(-0.0460714599115058,-0.0797968846678734,0.0058));
#748=CARTESIAN_POINT('',(-0.0460714599115058,-0.0797968846678734,0.0058));
#749=CARTESIAN_POINT('',(-0.0460714599115058,-0.0747968846678734,0.0058));
#750=CARTESIAN_POINT('',(-0.00687145991150578,-0.0797968846678734,0.0058));
#751=CARTESIAN_POINT('',(-0.00687145991150578,-0.0797968846678734,0.));
#752=CARTESIAN_POINT('',(0.0323285400884942,-0.0797968846678734,0.));
#753=CARTESIAN_POINT('',(0.0323285400884942,-0.0797968846678734,0.0058));
#754=CARTESIAN_POINT('',(0.0323285400884942,-0.0797968846678734,0.0058));
#755=CARTESIAN_POINT('',(-0.00687145991150578,-0.0797968846678734,0.0058));
#756=CARTESIAN_POINT('',(0.0323285400884942,-0.0747968846678734,0.0058));
#757=CARTESIAN_POINT('',(0.0323285400884942,-0.0747968846678734,0.));
#758=CARTESIAN_POINT('',(0.0373285400884942,-0.0747968846678734,0.));
#759=CARTESIAN_POINT('',(0.0373285400884942,-0.0747968846678734,0.0058));
#760=CARTESIAN_POINT('',(0.0373285400884942,-0.0747968846678734,0.0058));
#761=CARTESIAN_POINT('',(0.0323285400884942,-0.0747968846678734,0.0058));
#762=CARTESIAN_POINT('',(0.0373285400884942,0.00490311533212662,0.0058));
#763=CARTESIAN_POINT('',(0.0373285400884942,0.00490311533212662,0.));
#764=CARTESIAN_POINT('',(0.0373285400884942,0.0846031153321266,0.));
#765=CARTESIAN_POINT('',(0.0373285400884942,0.0846031153321266,0.0058));
#766=CARTESIAN_POINT('',(0.0373285400884942,0.0846031153321266,0.0058));
#767=CARTESIAN_POINT('',(0.0373285400884942,0.00490311533212662,0.0058));
#768=CARTESIAN_POINT('',(-0.0438714599115058,-0.0180968846678734,0.0058));
#769=CARTESIAN_POINT('',(-0.0438714599115058,-0.0180968846678734,0.));
#770=CARTESIAN_POINT('',(-0.0438714599115059,0.0219031153321266,0.));
#771=CARTESIAN_POINT('',(-0.0438714599115058,-0.0580968846678734,0.));
#772=CARTESIAN_POINT('',(-0.0438714599115059,0.0219031153321266,0.0058));
#773=CARTESIAN_POINT('',(-0.0438714599115059,0.0219031153321266,0.0058));
#774=CARTESIAN_POINT('',(-0.0438714599115058,-0.0180968846678734,0.0058));
#775=CARTESIAN_POINT('',(-0.0438714599115058,-0.0580968846678734,0.0058));
#776=CARTESIAN_POINT('',(-0.0438714599115058,-0.0580968846678734,0.0058));
#777=CARTESIAN_POINT('',(-0.00687145991150584,0.0219031153321266,0.0058));
#778=CARTESIAN_POINT('',(-0.00687145991150584,0.0219031153321266,0.));
#779=CARTESIAN_POINT('',(0.0301285400884942,0.0219031153321266,0.));
#780=CARTESIAN_POINT('',(0.0301285400884942,0.0219031153321266,0.0058));
#781=CARTESIAN_POINT('',(0.0301285400884942,0.0219031153321266,0.0058));
#782=CARTESIAN_POINT('',(-0.00687145991150584,0.0219031153321266,0.0058));
#783=CARTESIAN_POINT('',(0.0301285400884942,-0.0180968846678734,0.0058));
#784=CARTESIAN_POINT('',(0.0301285400884942,-0.0180968846678734,0.));
#785=CARTESIAN_POINT('',(0.0301285400884942,-0.0580968846678734,0.));
#786=CARTESIAN_POINT('',(0.0301285400884942,-0.0580968846678734,0.0058));
#787=CARTESIAN_POINT('',(0.0301285400884942,-0.0580968846678734,0.0058));
#788=CARTESIAN_POINT('',(0.0301285400884942,-0.0180968846678734,0.0058));
#789=CARTESIAN_POINT('',(-0.0298714599115058,0.0568531153321267,0.0058));
#790=CARTESIAN_POINT('',(-0.0298714599115058,0.0568531153321267,0.002));
#791=CARTESIAN_POINT('',(-0.0298714599115058,0.0741031153321267,0.002));
#792=CARTESIAN_POINT('',(-0.0298714599115058,0.0396031153321266,0.002));
#793=CARTESIAN_POINT('',(-0.0298714599115058,0.0741031153321267,0.0058));
#794=CARTESIAN_POINT('',(-0.0298714599115058,0.0741031153321267,0.0058));
#795=CARTESIAN_POINT('',(-0.0298714599115058,0.0568531153321267,0.0058));
#796=CARTESIAN_POINT('',(-0.0298714599115058,0.0396031153321266,0.0058));
#797=CARTESIAN_POINT('',(-0.0298714599115058,0.0396031153321266,0.0058));
#798=CARTESIAN_POINT('',(-0.00687145991150581,0.0741031153321267,0.0058));
#799=CARTESIAN_POINT('',(-0.00687145991150581,0.0741031153321267,0.002));
#800=CARTESIAN_POINT('',(0.0161285400884942,0.0741031153321267,0.002));
#801=CARTESIAN_POINT('',(0.0161285400884942,0.0741031153321267,0.0058));
#802=CARTESIAN_POINT('',(0.0161285400884942,0.0741031153321267,0.0058));
#803=CARTESIAN_POINT('',(-0.00687145991150581,0.0741031153321267,0.0058));
#804=CARTESIAN_POINT('',(0.0161285400884942,0.0568531153321267,0.0058));
#805=CARTESIAN_POINT('',(0.0161285400884942,0.0568531153321267,0.002));
#806=CARTESIAN_POINT('',(0.0161285400884942,0.0396031153321266,0.002));
#807=CARTESIAN_POINT('',(0.0161285400884942,0.0396031153321266,0.0058));
#808=CARTESIAN_POINT('',(0.0161285400884942,0.0396031153321266,0.0058));
#809=CARTESIAN_POINT('',(0.0161285400884942,0.0568531153321267,0.0058));
#810=CARTESIAN_POINT('',(-0.0068714599115058,-0.0580968846678734,0.0058));
#811=CARTESIAN_POINT('',(-0.0068714599115058,-0.0580968846678734,0.));
#812=CARTESIAN_POINT('',(-0.0068714599115058,-0.0580968846678734,0.0058));
#813=CARTESIAN_POINT('',(-0.00687145991150581,0.0396031153321266,0.0058));
#814=CARTESIAN_POINT('',(-0.00687145991150581,0.0396031153321266,0.002));
#815=CARTESIAN_POINT('',(-0.00687145991150581,0.0396031153321266,0.0058));
#816=CARTESIAN_POINT('',(0.0323285400884942,0.0846031153321266,0.0058));
#817=CARTESIAN_POINT('',(0.0323285400884942,0.0846031153321266,0.));
#818=CARTESIAN_POINT('',(0.0323285400884942,0.0846031153321266,0.0058));
#819=CARTESIAN_POINT('',(-0.00687145991150578,0.0049031153321266,0.0058));
#820=CARTESIAN_POINT('',(-0.0438714599115058,-0.0730968846678734,0.0058));
#821=CARTESIAN_POINT('',(-0.0427714599115058,-0.0730968846678734,0.0058));
#822=CARTESIAN_POINT('',(0.0301285400884942,-0.0730968846678734,0.0058));
#823=CARTESIAN_POINT('',(0.0312285400884942,-0.0730968846678734,0.0058));
#824=CARTESIAN_POINT('',(0.0301285400884942,0.0829031153321266,0.0058));
#825=CARTESIAN_POINT('',(0.0312285400884942,0.0829031153321266,0.0058));
#826=CARTESIAN_POINT('',(-0.0438714599115058,0.0829031153321266,0.0058));
#827=CARTESIAN_POINT('',(-0.0427714599115058,0.0829031153321266,0.0058));
#828=CARTESIAN_POINT('',(-0.00687145991150578,0.0049031153321266,0.));
#829=CARTESIAN_POINT('',(-0.0348714599115058,0.0568531153321266,0.));
#830=CARTESIAN_POINT('',(-0.0348714599115058,0.0363531153321267,0.));
#831=CARTESIAN_POINT('',(-0.0348714599115058,0.0773531153321267,0.));
#832=CARTESIAN_POINT('',(-0.00687145991150579,0.0363531153321267,0.));
#833=CARTESIAN_POINT('',(0.0211285400884942,0.0363531153321267,0.));
#834=CARTESIAN_POINT('',(0.0211285400884942,0.0568531153321266,0.));
#835=CARTESIAN_POINT('',(0.0211285400884942,0.0773531153321267,0.));
#836=CARTESIAN_POINT('',(-0.00687145991150578,0.0773531153321267,0.));
#837=CARTESIAN_POINT('',(-0.0438714599115058,-0.0730968846678734,0.));
#838=CARTESIAN_POINT('',(-0.0427714599115058,-0.0730968846678734,0.));
#839=CARTESIAN_POINT('',(0.0301285400884942,-0.0730968846678734,0.));
#840=CARTESIAN_POINT('',(0.0312285400884942,-0.0730968846678734,0.));
#841=CARTESIAN_POINT('',(0.0301285400884942,0.0829031153321266,0.));
#842=CARTESIAN_POINT('',(0.0312285400884942,0.0829031153321266,0.));
#843=CARTESIAN_POINT('',(-0.0438714599115058,0.0829031153321266,0.));
#844=CARTESIAN_POINT('',(-0.0427714599115058,0.0829031153321266,0.));
#845=CARTESIAN_POINT('',(-0.0438714599115058,0.0829031153321266,0.));
#846=CARTESIAN_POINT('',(0.0301285400884942,0.0829031153321266,0.));
#847=CARTESIAN_POINT('',(0.0301285400884942,-0.0730968846678734,0.));
#848=CARTESIAN_POINT('',(-0.0438714599115058,-0.0730968846678734,0.));
#849=CARTESIAN_POINT('',(-0.00687145991150579,0.0363531153321267,0.002));
#850=CARTESIAN_POINT('',(-0.0348714599115058,0.0363531153321267,0.002));
#851=CARTESIAN_POINT('',(-0.0348714599115058,0.0363531153321267,0.002));
#852=CARTESIAN_POINT('',(-0.00687145991150579,0.0363531153321267,0.002));
#853=CARTESIAN_POINT('',(0.0211285400884942,0.0363531153321267,0.002));
#854=CARTESIAN_POINT('',(0.0211285400884942,0.0363531153321267,0.002));
#855=CARTESIAN_POINT('',(0.0211285400884942,0.0568531153321266,0.002));
#856=CARTESIAN_POINT('',(0.0211285400884942,0.0568531153321266,0.002));
#857=CARTESIAN_POINT('',(0.0211285400884942,0.0773531153321267,0.002));
#858=CARTESIAN_POINT('',(0.0211285400884942,0.0773531153321267,0.002));
#859=CARTESIAN_POINT('',(-0.00687145991150578,0.0773531153321267,0.002));
#860=CARTESIAN_POINT('',(-0.00687145991150578,0.0773531153321267,0.002));
#861=CARTESIAN_POINT('',(-0.0348714599115058,0.0773531153321267,0.002));
#862=CARTESIAN_POINT('',(-0.0348714599115058,0.0773531153321267,0.002));
#863=CARTESIAN_POINT('',(-0.0348714599115058,0.0568531153321266,0.002));
#864=CARTESIAN_POINT('',(-0.0348714599115058,0.0568531153321266,0.002));
#865=CARTESIAN_POINT('',(-0.00687145991150578,0.0049031153321266,0.002));
#866=MECHANICAL_DESIGN_GEOMETRIC_PRESENTATION_REPRESENTATION('',(#527),
#867);
#867=(
GEOMETRIC_REPRESENTATION_CONTEXT(3)
GLOBAL_UNCERTAINTY_ASSIGNED_CONTEXT((#868))
GLOBAL_UNIT_ASSIGNED_CONTEXT((#871,#870,#869))
REPRESENTATION_CONTEXT('Part 1','TOP_LEVEL_ASSEMBLY_PART')
);
#868=UNCERTAINTY_MEASURE_WITH_UNIT(LENGTH_MEASURE(1.E-8),#871,
'DISTANCE_ACCURACY_VALUE','Maximum Tolerance applied to model');
#869=(
NAMED_UNIT(*)
SI_UNIT($,.STERADIAN.)
SOLID_ANGLE_UNIT()
);
#870=(
NAMED_UNIT(*)
PLANE_ANGLE_UNIT()
SI_UNIT($,.RADIAN.)
);
#871=(
LENGTH_UNIT()
NAMED_UNIT(*)
SI_UNIT($,.METRE.)
);
#872=PRODUCT_DEFINITION_SHAPE('','',#873);
#873=PRODUCT_DEFINITION('','',#875,#874);
#874=PRODUCT_DEFINITION_CONTEXT('',#881,'design');
#875=PRODUCT_DEFINITION_FORMATION_WITH_SPECIFIED_SOURCE('','',#877,
 .NOT_KNOWN.);
#876=PRODUCT_RELATED_PRODUCT_CATEGORY('','',(#877));
#877=PRODUCT('Part 1','Part 1','Part 1',(#879));
#878=PRODUCT_CATEGORY('','');
#879=PRODUCT_CONTEXT('',#881,'mechanical');
#880=APPLICATION_PROTOCOL_DEFINITION('international standard',
'ap242_managed_model_based_3d_engineering',2020,#881);
#881=APPLICATION_CONTEXT('managed model based 3d engineering');
ENDSEC;
END-ISO-10303-21;
