ISO-10303-21;
HEADER;
/* Generated by software containing ST-Developer
 * from STEP Tools, Inc. (www.steptools.com) 
 */
/* OPTION: using custom renumber hook */

FILE_DESCRIPTION(
/* description */ ('STEP AP242 Edition 2',
'CAx-IF Rec.Pracs.---Representation and Presentation of Product Manufa
cturing Information (PMI)---4.0---2014-10-13',
'CAx-IF Rec.Pracs.---3D Tessellated Geometry---0.4---2014-09-14','2;1',
'CAx-IF Rec.Pracs.---User Defined Attributes---1.5---2016-08-15'),
/* implementation_level */ '2;1');

FILE_NAME(
/* name */ '2',
/* time_stamp */ '2026-08-25T15:58:22Z',
/* author */ (''),
/* organization */ (''),
/* preprocessor_version */ 'ST-DEVELOPER v20',
/* originating_system */ 'ONSHAPE BY PTC INC, 1.219',
/* authorisation */ '  ');

FILE_SCHEMA (('AP242_MANAGED_MODEL_BASED_3D_ENGINEERING_MIM_LF { 1 0 10303 442 3 1 4 }'));
ENDSEC;

DATA;
#10=SHAPE_REPRESENTATION_RELATIONSHIP('','',#761,#11);
#11=ADVANCED_BREP_SHAPE_REPRESENTATION('',(#759),#1301);
#12=B_SPLINE_SURFACE_WITH_KNOTS('',3,1,((#1268,#1269),(#1270,#1271),(#1272,
#1273),(#1274,#1275)),.SURF_OF_LINEAR_EXTRUSION.,.F.,.F.,.F.,(4,4),(2,2),
(3.21146136261346E-16,1.),(0.,1.),.PIECEWISE_BEZIER_KNOTS.);
#13=B_SPLINE_SURFACE_WITH_KNOTS('',3,1,((#1276,#1277),(#1278,#1279),(#1280,
#1281),(#1282,#1283)),.SURF_OF_LINEAR_EXTRUSION.,.F.,.F.,.F.,(4,4),(2,2),
(3.21146136261346E-16,1.),(0.,1.),.PIECEWISE_BEZIER_KNOTS.);
#14=B_SPLINE_SURFACE_WITH_KNOTS('',3,1,((#1284,#1285),(#1286,#1287),(#1288,
#1289),(#1290,#1291)),.SURF_OF_LINEAR_EXTRUSION.,.F.,.F.,.F.,(4,4),(2,2),
(-2.38349631818036E-15,1.),(0.,1.),.PIECEWISE_BEZIER_KNOTS.);
#15=B_SPLINE_SURFACE_WITH_KNOTS('',3,1,((#1292,#1293),(#1294,#1295),(#1296,
#1297),(#1298,#1299)),.SURF_OF_LINEAR_EXTRUSION.,.F.,.F.,.F.,(4,4),(2,2),
(-2.38349631818036E-15,1.),(0.,1.),.PIECEWISE_BEZIER_KNOTS.);
#16=CYLINDRICAL_SURFACE('',#766,0.004);
#17=CYLINDRICAL_SURFACE('',#792,0.0008);
#18=CYLINDRICAL_SURFACE('',#795,0.0019);
#19=CYLINDRICAL_SURFACE('',#799,0.0008);
#20=CYLINDRICAL_SURFACE('',#802,0.0019);
#21=CYLINDRICAL_SURFACE('',#806,0.0008);
#22=CYLINDRICAL_SURFACE('',#809,0.0019);
#23=CYLINDRICAL_SURFACE('',#813,0.0008);
#24=CYLINDRICAL_SURFACE('',#816,0.0019);
#25=CYLINDRICAL_SURFACE('',#820,0.0011);
#26=CYLINDRICAL_SURFACE('',#821,0.0011);
#27=CIRCLE('',#764,0.0011);
#28=CIRCLE('',#765,0.0011);
#29=CIRCLE('',#767,0.004);
#30=CIRCLE('',#768,0.004);
#31=CIRCLE('',#780,0.0011);
#32=CIRCLE('',#781,0.0011);
#33=CIRCLE('',#782,0.0019);
#34=CIRCLE('',#783,0.0019);
#35=CIRCLE('',#784,0.0019);
#36=CIRCLE('',#785,0.0019);
#37=CIRCLE('',#793,0.0008);
#38=CIRCLE('',#794,0.0008);
#39=CIRCLE('',#796,0.0019);
#40=CIRCLE('',#800,0.0008);
#41=CIRCLE('',#801,0.0008);
#42=CIRCLE('',#803,0.0019);
#43=CIRCLE('',#807,0.0008);
#44=CIRCLE('',#808,0.0008);
#45=CIRCLE('',#810,0.0019);
#46=CIRCLE('',#814,0.0008);
#47=CIRCLE('',#815,0.0008);
#48=CIRCLE('',#817,0.0019);
#49=B_SPLINE_CURVE_WITH_KNOTS('',3,(#1018,#1019,#1020,#1021),
 .UNSPECIFIED.,.F.,.F.,(4,4),(0.,1.),.UNSPECIFIED.);
#50=B_SPLINE_CURVE_WITH_KNOTS('',3,(#1025,#1026,#1027,#1028),
 .UNSPECIFIED.,.F.,.F.,(4,4),(0.,1.),.UNSPECIFIED.);
#51=B_SPLINE_CURVE_WITH_KNOTS('',3,(#1032,#1033,#1034,#1035),
 .UNSPECIFIED.,.F.,.F.,(4,4),(0.,1.),.UNSPECIFIED.);
#52=B_SPLINE_CURVE_WITH_KNOTS('',3,(#1039,#1040,#1041,#1042),
 .UNSPECIFIED.,.F.,.F.,(4,4),(0.,1.),.UNSPECIFIED.);
#53=B_SPLINE_CURVE_WITH_KNOTS('',3,(#1064,#1065,#1066,#1067),
 .UNSPECIFIED.,.F.,.F.,(4,4),(0.,1.),.UNSPECIFIED.);
#54=B_SPLINE_CURVE_WITH_KNOTS('',3,(#1085,#1086,#1087,#1088),
 .UNSPECIFIED.,.F.,.F.,(4,4),(0.,1.),.UNSPECIFIED.);
#55=B_SPLINE_CURVE_WITH_KNOTS('',3,(#1092,#1093,#1094,#1095),
 .UNSPECIFIED.,.F.,.F.,(4,4),(0.,1.),.UNSPECIFIED.);
#56=B_SPLINE_CURVE_WITH_KNOTS('',3,(#1125,#1126,#1127,#1128),
 .UNSPECIFIED.,.F.,.F.,(4,4),(0.,1.),.UNSPECIFIED.);
#57=B_SPLINE_CURVE_WITH_KNOTS('',3,(#1135,#1136,#1137,#1138),
 .UNSPECIFIED.,.F.,.F.,(4,4),(0.,1.),.UNSPECIFIED.);
#58=B_SPLINE_CURVE_WITH_KNOTS('',3,(#1139,#1140,#1141,#1142),
 .UNSPECIFIED.,.F.,.F.,(4,4),(0.,1.),.UNSPECIFIED.);
#59=B_SPLINE_CURVE_WITH_KNOTS('',3,(#1149,#1150,#1151,#1152),
 .UNSPECIFIED.,.F.,.F.,(4,4),(0.,1.),.UNSPECIFIED.);
#60=B_SPLINE_CURVE_WITH_KNOTS('',3,(#1153,#1154,#1155,#1156),
 .UNSPECIFIED.,.F.,.F.,(4,4),(0.,1.),.UNSPECIFIED.);
#61=B_SPLINE_CURVE_WITH_KNOTS('',3,(#1158,#1159,#1160,#1161),
 .UNSPECIFIED.,.F.,.F.,(4,4),(0.,1.),.UNSPECIFIED.);
#62=B_SPLINE_CURVE_WITH_KNOTS('',3,(#1162,#1163,#1164,#1165),
 .UNSPECIFIED.,.F.,.F.,(4,4),(0.,1.),.UNSPECIFIED.);
#63=B_SPLINE_CURVE_WITH_KNOTS('',3,(#1167,#1168,#1169,#1170),
 .UNSPECIFIED.,.F.,.F.,(4,4),(0.,1.),.UNSPECIFIED.);
#64=B_SPLINE_CURVE_WITH_KNOTS('',3,(#1171,#1172,#1173,#1174),
 .UNSPECIFIED.,.F.,.F.,(4,4),(0.,1.),.UNSPECIFIED.);
#65=ORIENTED_EDGE('',*,*,#253,.T.);
#66=ORIENTED_EDGE('',*,*,#254,.T.);
#67=ORIENTED_EDGE('',*,*,#255,.F.);
#68=ORIENTED_EDGE('',*,*,#256,.T.);
#69=ORIENTED_EDGE('',*,*,#257,.F.);
#70=ORIENTED_EDGE('',*,*,#258,.T.);
#71=ORIENTED_EDGE('',*,*,#259,.T.);
#72=ORIENTED_EDGE('',*,*,#260,.T.);
#73=ORIENTED_EDGE('',*,*,#261,.T.);
#74=ORIENTED_EDGE('',*,*,#262,.T.);
#75=ORIENTED_EDGE('',*,*,#263,.T.);
#76=ORIENTED_EDGE('',*,*,#264,.T.);
#77=ORIENTED_EDGE('',*,*,#265,.F.);
#78=ORIENTED_EDGE('',*,*,#266,.F.);
#79=ORIENTED_EDGE('',*,*,#267,.T.);
#80=ORIENTED_EDGE('',*,*,#268,.F.);
#81=ORIENTED_EDGE('',*,*,#269,.T.);
#82=ORIENTED_EDGE('',*,*,#270,.T.);
#83=ORIENTED_EDGE('',*,*,#271,.F.);
#84=ORIENTED_EDGE('',*,*,#272,.F.);
#85=ORIENTED_EDGE('',*,*,#273,.T.);
#86=ORIENTED_EDGE('',*,*,#274,.F.);
#87=ORIENTED_EDGE('',*,*,#275,.F.);
#88=ORIENTED_EDGE('',*,*,#276,.T.);
#89=ORIENTED_EDGE('',*,*,#277,.T.);
#90=ORIENTED_EDGE('',*,*,#278,.F.);
#91=ORIENTED_EDGE('',*,*,#279,.T.);
#92=ORIENTED_EDGE('',*,*,#280,.T.);
#93=ORIENTED_EDGE('',*,*,#281,.T.);
#94=ORIENTED_EDGE('',*,*,#282,.F.);
#95=ORIENTED_EDGE('',*,*,#276,.F.);
#96=ORIENTED_EDGE('',*,*,#283,.T.);
#97=ORIENTED_EDGE('',*,*,#284,.T.);
#98=ORIENTED_EDGE('',*,*,#285,.F.);
#99=ORIENTED_EDGE('',*,*,#286,.F.);
#100=ORIENTED_EDGE('',*,*,#287,.F.);
#101=ORIENTED_EDGE('',*,*,#288,.T.);
#102=ORIENTED_EDGE('',*,*,#289,.F.);
#103=ORIENTED_EDGE('',*,*,#290,.F.);
#104=ORIENTED_EDGE('',*,*,#285,.T.);
#105=ORIENTED_EDGE('',*,*,#291,.T.);
#106=ORIENTED_EDGE('',*,*,#292,.F.);
#107=ORIENTED_EDGE('',*,*,#273,.F.);
#108=ORIENTED_EDGE('',*,*,#293,.F.);
#109=ORIENTED_EDGE('',*,*,#294,.F.);
#110=ORIENTED_EDGE('',*,*,#295,.F.);
#111=ORIENTED_EDGE('',*,*,#296,.T.);
#112=ORIENTED_EDGE('',*,*,#297,.F.);
#113=ORIENTED_EDGE('',*,*,#298,.F.);
#114=ORIENTED_EDGE('',*,*,#286,.T.);
#115=ORIENTED_EDGE('',*,*,#290,.T.);
#116=ORIENTED_EDGE('',*,*,#299,.T.);
#117=ORIENTED_EDGE('',*,*,#297,.T.);
#118=ORIENTED_EDGE('',*,*,#300,.T.);
#119=ORIENTED_EDGE('',*,*,#259,.F.);
#120=ORIENTED_EDGE('',*,*,#301,.T.);
#121=ORIENTED_EDGE('',*,*,#278,.T.);
#122=ORIENTED_EDGE('',*,*,#302,.F.);
#123=ORIENTED_EDGE('',*,*,#303,.T.);
#124=ORIENTED_EDGE('',*,*,#304,.F.);
#125=ORIENTED_EDGE('',*,*,#257,.T.);
#126=ORIENTED_EDGE('',*,*,#305,.T.);
#127=ORIENTED_EDGE('',*,*,#280,.F.);
#128=ORIENTED_EDGE('',*,*,#306,.T.);
#129=ORIENTED_EDGE('',*,*,#255,.T.);
#130=ORIENTED_EDGE('',*,*,#307,.T.);
#131=ORIENTED_EDGE('',*,*,#269,.F.);
#132=ORIENTED_EDGE('',*,*,#308,.T.);
#133=ORIENTED_EDGE('',*,*,#271,.T.);
#134=ORIENTED_EDGE('',*,*,#309,.T.);
#135=ORIENTED_EDGE('',*,*,#253,.F.);
#136=ORIENTED_EDGE('',*,*,#310,.T.);
#137=ORIENTED_EDGE('',*,*,#295,.T.);
#138=ORIENTED_EDGE('',*,*,#311,.F.);
#139=ORIENTED_EDGE('',*,*,#312,.F.);
#140=ORIENTED_EDGE('',*,*,#313,.F.);
#141=ORIENTED_EDGE('',*,*,#314,.F.);
#142=ORIENTED_EDGE('',*,*,#283,.F.);
#143=ORIENTED_EDGE('',*,*,#275,.T.);
#144=ORIENTED_EDGE('',*,*,#315,.T.);
#145=ORIENTED_EDGE('',*,*,#316,.F.);
#146=ORIENTED_EDGE('',*,*,#315,.F.);
#147=ORIENTED_EDGE('',*,*,#274,.T.);
#148=ORIENTED_EDGE('',*,*,#292,.T.);
#149=ORIENTED_EDGE('',*,*,#267,.F.);
#150=ORIENTED_EDGE('',*,*,#317,.F.);
#151=ORIENTED_EDGE('',*,*,#318,.F.);
#152=ORIENTED_EDGE('',*,*,#319,.F.);
#153=ORIENTED_EDGE('',*,*,#320,.F.);
#154=ORIENTED_EDGE('',*,*,#321,.F.);
#155=ORIENTED_EDGE('',*,*,#322,.F.);
#156=ORIENTED_EDGE('',*,*,#284,.F.);
#157=ORIENTED_EDGE('',*,*,#314,.T.);
#158=ORIENTED_EDGE('',*,*,#316,.T.);
#159=ORIENTED_EDGE('',*,*,#291,.F.);
#160=ORIENTED_EDGE('',*,*,#289,.T.);
#161=ORIENTED_EDGE('',*,*,#323,.T.);
#162=ORIENTED_EDGE('',*,*,#311,.T.);
#163=ORIENTED_EDGE('',*,*,#299,.F.);
#164=ORIENTED_EDGE('',*,*,#294,.T.);
#165=ORIENTED_EDGE('',*,*,#324,.T.);
#166=ORIENTED_EDGE('',*,*,#312,.T.);
#167=ORIENTED_EDGE('',*,*,#323,.F.);
#168=ORIENTED_EDGE('',*,*,#293,.T.);
#169=ORIENTED_EDGE('',*,*,#272,.T.);
#170=ORIENTED_EDGE('',*,*,#313,.T.);
#171=ORIENTED_EDGE('',*,*,#324,.F.);
#172=ORIENTED_EDGE('',*,*,#282,.T.);
#173=ORIENTED_EDGE('',*,*,#325,.T.);
#174=ORIENTED_EDGE('',*,*,#302,.T.);
#175=ORIENTED_EDGE('',*,*,#277,.F.);
#176=ORIENTED_EDGE('',*,*,#326,.T.);
#177=ORIENTED_EDGE('',*,*,#303,.F.);
#178=ORIENTED_EDGE('',*,*,#325,.F.);
#179=ORIENTED_EDGE('',*,*,#288,.F.);
#180=ORIENTED_EDGE('',*,*,#287,.T.);
#181=ORIENTED_EDGE('',*,*,#298,.T.);
#182=ORIENTED_EDGE('',*,*,#304,.T.);
#183=ORIENTED_EDGE('',*,*,#326,.F.);
#184=ORIENTED_EDGE('',*,*,#327,.T.);
#185=ORIENTED_EDGE('',*,*,#328,.T.);
#186=ORIENTED_EDGE('',*,*,#329,.F.);
#187=ORIENTED_EDGE('',*,*,#322,.T.);
#188=ORIENTED_EDGE('',*,*,#327,.F.);
#189=ORIENTED_EDGE('',*,*,#329,.T.);
#190=ORIENTED_EDGE('',*,*,#328,.F.);
#191=ORIENTED_EDGE('',*,*,#330,.T.);
#192=ORIENTED_EDGE('',*,*,#331,.T.);
#193=ORIENTED_EDGE('',*,*,#332,.F.);
#194=ORIENTED_EDGE('',*,*,#321,.T.);
#195=ORIENTED_EDGE('',*,*,#330,.F.);
#196=ORIENTED_EDGE('',*,*,#332,.T.);
#197=ORIENTED_EDGE('',*,*,#331,.F.);
#198=ORIENTED_EDGE('',*,*,#333,.T.);
#199=ORIENTED_EDGE('',*,*,#334,.T.);
#200=ORIENTED_EDGE('',*,*,#335,.F.);
#201=ORIENTED_EDGE('',*,*,#320,.T.);
#202=ORIENTED_EDGE('',*,*,#333,.F.);
#203=ORIENTED_EDGE('',*,*,#335,.T.);
#204=ORIENTED_EDGE('',*,*,#334,.F.);
#205=ORIENTED_EDGE('',*,*,#336,.T.);
#206=ORIENTED_EDGE('',*,*,#337,.T.);
#207=ORIENTED_EDGE('',*,*,#338,.F.);
#208=ORIENTED_EDGE('',*,*,#319,.T.);
#209=ORIENTED_EDGE('',*,*,#336,.F.);
#210=ORIENTED_EDGE('',*,*,#338,.T.);
#211=ORIENTED_EDGE('',*,*,#337,.F.);
#212=ORIENTED_EDGE('',*,*,#318,.T.);
#213=ORIENTED_EDGE('',*,*,#261,.F.);
#214=ORIENTED_EDGE('',*,*,#317,.T.);
#215=ORIENTED_EDGE('',*,*,#262,.F.);
#216=ORIENTED_EDGE('',*,*,#263,.F.);
#217=ORIENTED_EDGE('',*,*,#339,.F.);
#218=ORIENTED_EDGE('',*,*,#340,.T.);
#219=ORIENTED_EDGE('',*,*,#341,.T.);
#220=ORIENTED_EDGE('',*,*,#266,.T.);
#221=ORIENTED_EDGE('',*,*,#342,.F.);
#222=ORIENTED_EDGE('',*,*,#343,.F.);
#223=ORIENTED_EDGE('',*,*,#339,.T.);
#224=ORIENTED_EDGE('',*,*,#265,.T.);
#225=ORIENTED_EDGE('',*,*,#344,.F.);
#226=ORIENTED_EDGE('',*,*,#345,.F.);
#227=ORIENTED_EDGE('',*,*,#342,.T.);
#228=ORIENTED_EDGE('',*,*,#264,.F.);
#229=ORIENTED_EDGE('',*,*,#341,.F.);
#230=ORIENTED_EDGE('',*,*,#346,.T.);
#231=ORIENTED_EDGE('',*,*,#344,.T.);
#232=ORIENTED_EDGE('',*,*,#268,.T.);
#233=ORIENTED_EDGE('',*,*,#340,.F.);
#234=ORIENTED_EDGE('',*,*,#343,.T.);
#235=ORIENTED_EDGE('',*,*,#345,.T.);
#236=ORIENTED_EDGE('',*,*,#346,.F.);
#237=ORIENTED_EDGE('',*,*,#270,.F.);
#238=ORIENTED_EDGE('',*,*,#307,.F.);
#239=ORIENTED_EDGE('',*,*,#254,.F.);
#240=ORIENTED_EDGE('',*,*,#309,.F.);
#241=ORIENTED_EDGE('',*,*,#296,.F.);
#242=ORIENTED_EDGE('',*,*,#310,.F.);
#243=ORIENTED_EDGE('',*,*,#260,.F.);
#244=ORIENTED_EDGE('',*,*,#300,.F.);
#245=ORIENTED_EDGE('',*,*,#281,.F.);
#246=ORIENTED_EDGE('',*,*,#305,.F.);
#247=ORIENTED_EDGE('',*,*,#256,.F.);
#248=ORIENTED_EDGE('',*,*,#308,.F.);
#249=ORIENTED_EDGE('',*,*,#279,.F.);
#250=ORIENTED_EDGE('',*,*,#301,.F.);
#251=ORIENTED_EDGE('',*,*,#258,.F.);
#252=ORIENTED_EDGE('',*,*,#306,.F.);
#253=EDGE_CURVE('',#347,#348,#417,.T.);
#254=EDGE_CURVE('',#348,#349,#49,.T.);
#255=EDGE_CURVE('',#350,#349,#418,.T.);
#256=EDGE_CURVE('',#350,#351,#50,.T.);
#257=EDGE_CURVE('',#352,#351,#419,.T.);
#258=EDGE_CURVE('',#352,#353,#51,.T.);
#259=EDGE_CURVE('',#353,#354,#420,.T.);
#260=EDGE_CURVE('',#354,#347,#52,.T.);
#261=EDGE_CURVE('',#355,#355,#27,.T.);
#262=EDGE_CURVE('',#356,#356,#28,.T.);
#263=EDGE_CURVE('',#357,#358,#421,.T.);
#264=EDGE_CURVE('',#358,#359,#422,.T.);
#265=EDGE_CURVE('',#360,#359,#423,.T.);
#266=EDGE_CURVE('',#357,#360,#424,.T.);
#267=EDGE_CURVE('',#361,#361,#29,.T.);
#268=EDGE_CURVE('',#362,#362,#30,.T.);
#269=EDGE_CURVE('',#363,#364,#425,.T.);
#270=EDGE_CURVE('',#364,#365,#53,.T.);
#271=EDGE_CURVE('',#366,#365,#426,.T.);
#272=EDGE_CURVE('',#367,#366,#427,.T.);
#273=EDGE_CURVE('',#367,#368,#428,.T.);
#274=EDGE_CURVE('',#369,#368,#429,.T.);
#275=EDGE_CURVE('',#370,#369,#430,.T.);
#276=EDGE_CURVE('',#370,#371,#431,.T.);
#277=EDGE_CURVE('',#371,#372,#432,.T.);
#278=EDGE_CURVE('',#373,#372,#433,.T.);
#279=EDGE_CURVE('',#373,#374,#54,.T.);
#280=EDGE_CURVE('',#374,#375,#434,.T.);
#281=EDGE_CURVE('',#375,#363,#55,.T.);
#282=EDGE_CURVE('',#371,#376,#435,.T.);
#283=EDGE_CURVE('',#370,#377,#436,.T.);
#284=EDGE_CURVE('',#377,#378,#437,.T.);
#285=EDGE_CURVE('',#379,#378,#438,.T.);
#286=EDGE_CURVE('',#380,#379,#439,.T.);
#287=EDGE_CURVE('',#381,#380,#440,.T.);
#288=EDGE_CURVE('',#381,#376,#441,.T.);
#289=EDGE_CURVE('',#382,#383,#442,.T.);
#290=EDGE_CURVE('',#379,#382,#443,.T.);
#291=EDGE_CURVE('',#378,#384,#444,.T.);
#292=EDGE_CURVE('',#368,#384,#445,.T.);
#293=EDGE_CURVE('',#385,#367,#446,.T.);
#294=EDGE_CURVE('',#383,#385,#447,.T.);
#295=EDGE_CURVE('',#386,#387,#448,.T.);
#296=EDGE_CURVE('',#386,#388,#56,.T.);
#297=EDGE_CURVE('',#389,#388,#449,.T.);
#298=EDGE_CURVE('',#380,#389,#450,.T.);
#299=EDGE_CURVE('',#382,#387,#451,.T.);
#300=EDGE_CURVE('',#388,#354,#57,.T.);
#301=EDGE_CURVE('',#353,#373,#58,.T.);
#302=EDGE_CURVE('',#390,#372,#452,.T.);
#303=EDGE_CURVE('',#390,#391,#453,.T.);
#304=EDGE_CURVE('',#389,#391,#454,.T.);
#305=EDGE_CURVE('',#351,#375,#59,.T.);
#306=EDGE_CURVE('',#374,#352,#60,.T.);
#307=EDGE_CURVE('',#349,#364,#61,.T.);
#308=EDGE_CURVE('',#363,#350,#62,.T.);
#309=EDGE_CURVE('',#365,#348,#63,.T.);
#310=EDGE_CURVE('',#347,#386,#64,.T.);
#311=EDGE_CURVE('',#392,#387,#455,.T.);
#312=EDGE_CURVE('',#393,#392,#456,.T.);
#313=EDGE_CURVE('',#366,#393,#457,.T.);
#314=EDGE_CURVE('',#377,#394,#458,.T.);
#315=EDGE_CURVE('',#369,#394,#459,.T.);
#316=EDGE_CURVE('',#394,#384,#460,.T.);
#317=EDGE_CURVE('',#395,#395,#31,.T.);
#318=EDGE_CURVE('',#396,#396,#32,.T.);
#319=EDGE_CURVE('',#397,#397,#33,.T.);
#320=EDGE_CURVE('',#398,#398,#34,.T.);
#321=EDGE_CURVE('',#399,#399,#35,.T.);
#322=EDGE_CURVE('',#400,#400,#36,.T.);
#323=EDGE_CURVE('',#383,#392,#461,.T.);
#324=EDGE_CURVE('',#385,#393,#462,.T.);
#325=EDGE_CURVE('',#376,#390,#463,.T.);
#326=EDGE_CURVE('',#381,#391,#464,.T.);
#327=EDGE_CURVE('',#401,#401,#37,.T.);
#328=EDGE_CURVE('',#402,#402,#38,.F.);
#329=EDGE_CURVE('',#403,#403,#39,.T.);
#330=EDGE_CURVE('',#404,#404,#40,.T.);
#331=EDGE_CURVE('',#405,#405,#41,.F.);
#332=EDGE_CURVE('',#406,#406,#42,.T.);
#333=EDGE_CURVE('',#407,#407,#43,.T.);
#334=EDGE_CURVE('',#408,#408,#44,.F.);
#335=EDGE_CURVE('',#409,#409,#45,.T.);
#336=EDGE_CURVE('',#410,#410,#46,.T.);
#337=EDGE_CURVE('',#411,#411,#47,.F.);
#338=EDGE_CURVE('',#412,#412,#48,.T.);
#339=EDGE_CURVE('',#413,#357,#465,.T.);
#340=EDGE_CURVE('',#413,#414,#466,.T.);
#341=EDGE_CURVE('',#414,#358,#467,.T.);
#342=EDGE_CURVE('',#415,#360,#468,.T.);
#343=EDGE_CURVE('',#413,#415,#469,.T.);
#344=EDGE_CURVE('',#416,#359,#470,.T.);
#345=EDGE_CURVE('',#415,#416,#471,.T.);
#346=EDGE_CURVE('',#414,#416,#472,.T.);
#347=VERTEX_POINT('',#1016);
#348=VERTEX_POINT('',#1017);
#349=VERTEX_POINT('',#1022);
#350=VERTEX_POINT('',#1024);
#351=VERTEX_POINT('',#1029);
#352=VERTEX_POINT('',#1031);
#353=VERTEX_POINT('',#1036);
#354=VERTEX_POINT('',#1038);
#355=VERTEX_POINT('',#1044);
#356=VERTEX_POINT('',#1046);
#357=VERTEX_POINT('',#1048);
#358=VERTEX_POINT('',#1049);
#359=VERTEX_POINT('',#1051);
#360=VERTEX_POINT('',#1053);
#361=VERTEX_POINT('',#1057);
#362=VERTEX_POINT('',#1059);
#363=VERTEX_POINT('',#1062);
#364=VERTEX_POINT('',#1063);
#365=VERTEX_POINT('',#1068);
#366=VERTEX_POINT('',#1070);
#367=VERTEX_POINT('',#1072);
#368=VERTEX_POINT('',#1074);
#369=VERTEX_POINT('',#1076);
#370=VERTEX_POINT('',#1078);
#371=VERTEX_POINT('',#1080);
#372=VERTEX_POINT('',#1082);
#373=VERTEX_POINT('',#1084);
#374=VERTEX_POINT('',#1089);
#375=VERTEX_POINT('',#1091);
#376=VERTEX_POINT('',#1098);
#377=VERTEX_POINT('',#1100);
#378=VERTEX_POINT('',#1102);
#379=VERTEX_POINT('',#1104);
#380=VERTEX_POINT('',#1106);
#381=VERTEX_POINT('',#1108);
#382=VERTEX_POINT('',#1112);
#383=VERTEX_POINT('',#1113);
#384=VERTEX_POINT('',#1116);
#385=VERTEX_POINT('',#1119);
#386=VERTEX_POINT('',#1123);
#387=VERTEX_POINT('',#1124);
#388=VERTEX_POINT('',#1129);
#389=VERTEX_POINT('',#1131);
#390=VERTEX_POINT('',#1144);
#391=VERTEX_POINT('',#1146);
#392=VERTEX_POINT('',#1176);
#393=VERTEX_POINT('',#1178);
#394=VERTEX_POINT('',#1182);
#395=VERTEX_POINT('',#1188);
#396=VERTEX_POINT('',#1190);
#397=VERTEX_POINT('',#1192);
#398=VERTEX_POINT('',#1194);
#399=VERTEX_POINT('',#1196);
#400=VERTEX_POINT('',#1198);
#401=VERTEX_POINT('',#1211);
#402=VERTEX_POINT('',#1213);
#403=VERTEX_POINT('',#1216);
#404=VERTEX_POINT('',#1221);
#405=VERTEX_POINT('',#1223);
#406=VERTEX_POINT('',#1226);
#407=VERTEX_POINT('',#1231);
#408=VERTEX_POINT('',#1233);
#409=VERTEX_POINT('',#1236);
#410=VERTEX_POINT('',#1241);
#411=VERTEX_POINT('',#1243);
#412=VERTEX_POINT('',#1246);
#413=VERTEX_POINT('',#1253);
#414=VERTEX_POINT('',#1255);
#415=VERTEX_POINT('',#1259);
#416=VERTEX_POINT('',#1263);
#417=LINE('',#1015,#473);
#418=LINE('',#1023,#474);
#419=LINE('',#1030,#475);
#420=LINE('',#1037,#476);
#421=LINE('',#1047,#477);
#422=LINE('',#1050,#478);
#423=LINE('',#1052,#479);
#424=LINE('',#1054,#480);
#425=LINE('',#1061,#481);
#426=LINE('',#1069,#482);
#427=LINE('',#1071,#483);
#428=LINE('',#1073,#484);
#429=LINE('',#1075,#485);
#430=LINE('',#1077,#486);
#431=LINE('',#1079,#487);
#432=LINE('',#1081,#488);
#433=LINE('',#1083,#489);
#434=LINE('',#1090,#490);
#435=LINE('',#1097,#491);
#436=LINE('',#1099,#492);
#437=LINE('',#1101,#493);
#438=LINE('',#1103,#494);
#439=LINE('',#1105,#495);
#440=LINE('',#1107,#496);
#441=LINE('',#1109,#497);
#442=LINE('',#1111,#498);
#443=LINE('',#1114,#499);
#444=LINE('',#1115,#500);
#445=LINE('',#1117,#501);
#446=LINE('',#1118,#502);
#447=LINE('',#1120,#503);
#448=LINE('',#1122,#504);
#449=LINE('',#1130,#505);
#450=LINE('',#1132,#506);
#451=LINE('',#1133,#507);
#452=LINE('',#1143,#508);
#453=LINE('',#1145,#509);
#454=LINE('',#1147,#510);
#455=LINE('',#1175,#511);
#456=LINE('',#1177,#512);
#457=LINE('',#1179,#513);
#458=LINE('',#1181,#514);
#459=LINE('',#1183,#515);
#460=LINE('',#1185,#516);
#461=LINE('',#1200,#517);
#462=LINE('',#1202,#518);
#463=LINE('',#1205,#519);
#464=LINE('',#1207,#520);
#465=LINE('',#1252,#521);
#466=LINE('',#1254,#522);
#467=LINE('',#1256,#523);
#468=LINE('',#1258,#524);
#469=LINE('',#1260,#525);
#470=LINE('',#1262,#526);
#471=LINE('',#1264,#527);
#472=LINE('',#1266,#528);
#473=VECTOR('',#831,1.);
#474=VECTOR('',#832,1.);
#475=VECTOR('',#833,1.);
#476=VECTOR('',#834,1.);
#477=VECTOR('',#839,1.);
#478=VECTOR('',#840,1.);
#479=VECTOR('',#841,1.);
#480=VECTOR('',#842,1.);
#481=VECTOR('',#851,1.);
#482=VECTOR('',#852,1.);
#483=VECTOR('',#853,1.);
#484=VECTOR('',#854,1.);
#485=VECTOR('',#855,1.);
#486=VECTOR('',#856,1.);
#487=VECTOR('',#857,1.);
#488=VECTOR('',#858,1.);
#489=VECTOR('',#859,1.);
#490=VECTOR('',#860,1.);
#491=VECTOR('',#863,1.);
#492=VECTOR('',#864,1.);
#493=VECTOR('',#865,1.);
#494=VECTOR('',#866,1.);
#495=VECTOR('',#867,1.);
#496=VECTOR('',#868,1.);
#497=VECTOR('',#869,1.);
#498=VECTOR('',#872,1.);
#499=VECTOR('',#873,1.);
#500=VECTOR('',#874,1.);
#501=VECTOR('',#875,1.);
#502=VECTOR('',#876,1.);
#503=VECTOR('',#877,1.);
#504=VECTOR('',#880,1.);
#505=VECTOR('',#881,1.);
#506=VECTOR('',#882,1.);
#507=VECTOR('',#883,1.);
#508=VECTOR('',#886,1.);
#509=VECTOR('',#887,1.);
#510=VECTOR('',#888,1.);
#511=VECTOR('',#895,1.);
#512=VECTOR('',#896,1.);
#513=VECTOR('',#897,1.);
#514=VECTOR('',#900,1.);
#515=VECTOR('',#901,1.);
#516=VECTOR('',#904,1.);
#517=VECTOR('',#921,1.);
#518=VECTOR('',#924,1.);
#519=VECTOR('',#929,1.);
#520=VECTOR('',#932,1.);
#521=VECTOR('',#997,1.);
#522=VECTOR('',#998,1.);
#523=VECTOR('',#999,1.);
#524=VECTOR('',#1002,1.);
#525=VECTOR('',#1003,1.);
#526=VECTOR('',#1006,1.);
#527=VECTOR('',#1007,1.);
#528=VECTOR('',#1010,1.);
#529=EDGE_LOOP('',(#65,#66,#67,#68,#69,#70,#71,#72));
#530=EDGE_LOOP('',(#73));
#531=EDGE_LOOP('',(#74));
#532=EDGE_LOOP('',(#75,#76,#77,#78));
#533=EDGE_LOOP('',(#79));
#534=EDGE_LOOP('',(#80));
#535=EDGE_LOOP('',(#81,#82,#83,#84,#85,#86,#87,#88,#89,#90,#91,#92,#93));
#536=EDGE_LOOP('',(#94,#95,#96,#97,#98,#99,#100,#101));
#537=EDGE_LOOP('',(#102,#103,#104,#105,#106,#107,#108,#109));
#538=EDGE_LOOP('',(#110,#111,#112,#113,#114,#115,#116));
#539=EDGE_LOOP('',(#117,#118,#119,#120,#121,#122,#123,#124));
#540=EDGE_LOOP('',(#125,#126,#127,#128));
#541=EDGE_LOOP('',(#129,#130,#131,#132));
#542=EDGE_LOOP('',(#133,#134,#135,#136,#137,#138,#139,#140));
#543=EDGE_LOOP('',(#141,#142,#143,#144));
#544=EDGE_LOOP('',(#145,#146,#147,#148));
#545=EDGE_LOOP('',(#149));
#546=EDGE_LOOP('',(#150));
#547=EDGE_LOOP('',(#151));
#548=EDGE_LOOP('',(#152));
#549=EDGE_LOOP('',(#153));
#550=EDGE_LOOP('',(#154));
#551=EDGE_LOOP('',(#155));
#552=EDGE_LOOP('',(#156,#157,#158,#159));
#553=EDGE_LOOP('',(#160,#161,#162,#163));
#554=EDGE_LOOP('',(#164,#165,#166,#167));
#555=EDGE_LOOP('',(#168,#169,#170,#171));
#556=EDGE_LOOP('',(#172,#173,#174,#175));
#557=EDGE_LOOP('',(#176,#177,#178,#179));
#558=EDGE_LOOP('',(#180,#181,#182,#183));
#559=EDGE_LOOP('',(#184));
#560=EDGE_LOOP('',(#185));
#561=EDGE_LOOP('',(#186));
#562=EDGE_LOOP('',(#187));
#563=EDGE_LOOP('',(#188));
#564=EDGE_LOOP('',(#189));
#565=EDGE_LOOP('',(#190));
#566=EDGE_LOOP('',(#191));
#567=EDGE_LOOP('',(#192));
#568=EDGE_LOOP('',(#193));
#569=EDGE_LOOP('',(#194));
#570=EDGE_LOOP('',(#195));
#571=EDGE_LOOP('',(#196));
#572=EDGE_LOOP('',(#197));
#573=EDGE_LOOP('',(#198));
#574=EDGE_LOOP('',(#199));
#575=EDGE_LOOP('',(#200));
#576=EDGE_LOOP('',(#201));
#577=EDGE_LOOP('',(#202));
#578=EDGE_LOOP('',(#203));
#579=EDGE_LOOP('',(#204));
#580=EDGE_LOOP('',(#205));
#581=EDGE_LOOP('',(#206));
#582=EDGE_LOOP('',(#207));
#583=EDGE_LOOP('',(#208));
#584=EDGE_LOOP('',(#209));
#585=EDGE_LOOP('',(#210));
#586=EDGE_LOOP('',(#211));
#587=EDGE_LOOP('',(#212));
#588=EDGE_LOOP('',(#213));
#589=EDGE_LOOP('',(#214));
#590=EDGE_LOOP('',(#215));
#591=EDGE_LOOP('',(#216,#217,#218,#219));
#592=EDGE_LOOP('',(#220,#221,#222,#223));
#593=EDGE_LOOP('',(#224,#225,#226,#227));
#594=EDGE_LOOP('',(#228,#229,#230,#231));
#595=EDGE_LOOP('',(#232));
#596=EDGE_LOOP('',(#233,#234,#235,#236));
#597=EDGE_LOOP('',(#237,#238,#239,#240));
#598=EDGE_LOOP('',(#241,#242,#243,#244));
#599=EDGE_LOOP('',(#245,#246,#247,#248));
#600=EDGE_LOOP('',(#249,#250,#251,#252));
#601=FACE_BOUND('',#529,.T.);
#602=FACE_BOUND('',#530,.T.);
#603=FACE_BOUND('',#531,.T.);
#604=FACE_BOUND('',#532,.T.);
#605=FACE_BOUND('',#533,.T.);
#606=FACE_BOUND('',#534,.T.);
#607=FACE_BOUND('',#535,.T.);
#608=FACE_BOUND('',#536,.T.);
#609=FACE_BOUND('',#537,.T.);
#610=FACE_BOUND('',#538,.T.);
#611=FACE_BOUND('',#539,.T.);
#612=FACE_BOUND('',#540,.T.);
#613=FACE_BOUND('',#541,.T.);
#614=FACE_BOUND('',#542,.T.);
#615=FACE_BOUND('',#543,.T.);
#616=FACE_BOUND('',#544,.T.);
#617=FACE_BOUND('',#545,.T.);
#618=FACE_BOUND('',#546,.T.);
#619=FACE_BOUND('',#547,.T.);
#620=FACE_BOUND('',#548,.T.);
#621=FACE_BOUND('',#549,.T.);
#622=FACE_BOUND('',#550,.T.);
#623=FACE_BOUND('',#551,.T.);
#624=FACE_BOUND('',#552,.T.);
#625=FACE_BOUND('',#553,.T.);
#626=FACE_BOUND('',#554,.T.);
#627=FACE_BOUND('',#555,.T.);
#628=FACE_BOUND('',#556,.T.);
#629=FACE_BOUND('',#557,.T.);
#630=FACE_BOUND('',#558,.T.);
#631=FACE_BOUND('',#559,.T.);
#632=FACE_BOUND('',#560,.T.);
#633=FACE_BOUND('',#561,.T.);
#634=FACE_BOUND('',#562,.T.);
#635=FACE_BOUND('',#563,.T.);
#636=FACE_BOUND('',#564,.T.);
#637=FACE_BOUND('',#565,.T.);
#638=FACE_BOUND('',#566,.T.);
#639=FACE_BOUND('',#567,.T.);
#640=FACE_BOUND('',#568,.T.);
#641=FACE_BOUND('',#569,.T.);
#642=FACE_BOUND('',#570,.T.);
#643=FACE_BOUND('',#571,.T.);
#644=FACE_BOUND('',#572,.T.);
#645=FACE_BOUND('',#573,.T.);
#646=FACE_BOUND('',#574,.T.);
#647=FACE_BOUND('',#575,.T.);
#648=FACE_BOUND('',#576,.T.);
#649=FACE_BOUND('',#577,.T.);
#650=FACE_BOUND('',#578,.T.);
#651=FACE_BOUND('',#579,.T.);
#652=FACE_BOUND('',#580,.T.);
#653=FACE_BOUND('',#581,.T.);
#654=FACE_BOUND('',#582,.T.);
#655=FACE_BOUND('',#583,.T.);
#656=FACE_BOUND('',#584,.T.);
#657=FACE_BOUND('',#585,.T.);
#658=FACE_BOUND('',#586,.T.);
#659=FACE_BOUND('',#587,.T.);
#660=FACE_BOUND('',#588,.T.);
#661=FACE_BOUND('',#589,.T.);
#662=FACE_BOUND('',#590,.T.);
#663=FACE_BOUND('',#591,.T.);
#664=FACE_BOUND('',#592,.T.);
#665=FACE_BOUND('',#593,.T.);
#666=FACE_BOUND('',#594,.T.);
#667=FACE_BOUND('',#595,.T.);
#668=FACE_BOUND('',#596,.T.);
#669=FACE_BOUND('',#597,.T.);
#670=FACE_BOUND('',#598,.T.);
#671=FACE_BOUND('',#599,.T.);
#672=FACE_BOUND('',#600,.T.);
#673=PLANE('',#763);
#674=PLANE('',#769);
#675=PLANE('',#770);
#676=PLANE('',#771);
#677=PLANE('',#772);
#678=PLANE('',#773);
#679=PLANE('',#774);
#680=PLANE('',#775);
#681=PLANE('',#776);
#682=PLANE('',#777);
#683=PLANE('',#778);
#684=PLANE('',#779);
#685=PLANE('',#786);
#686=PLANE('',#787);
#687=PLANE('',#788);
#688=PLANE('',#789);
#689=PLANE('',#790);
#690=PLANE('',#791);
#691=PLANE('',#797);
#692=PLANE('',#798);
#693=PLANE('',#804);
#694=PLANE('',#805);
#695=PLANE('',#811);
#696=PLANE('',#812);
#697=PLANE('',#818);
#698=PLANE('',#819);
#699=PLANE('',#822);
#700=PLANE('',#823);
#701=PLANE('',#824);
#702=PLANE('',#825);
#703=PLANE('',#826);
#704=ADVANCED_FACE('',(#601,#602,#603,#604),#673,.F.);
#705=ADVANCED_FACE('',(#605,#606),#16,.F.);
#706=ADVANCED_FACE('',(#607),#674,.T.);
#707=ADVANCED_FACE('',(#608),#675,.F.);
#708=ADVANCED_FACE('',(#609),#676,.F.);
#709=ADVANCED_FACE('',(#610),#677,.T.);
#710=ADVANCED_FACE('',(#611),#678,.T.);
#711=ADVANCED_FACE('',(#612),#679,.F.);
#712=ADVANCED_FACE('',(#613),#680,.F.);
#713=ADVANCED_FACE('',(#614),#681,.T.);
#714=ADVANCED_FACE('',(#615),#682,.T.);
#715=ADVANCED_FACE('',(#616),#683,.T.);
#716=ADVANCED_FACE('',(#617,#618,#619,#620,#621,#622,#623,#624),#684,.T.);
#717=ADVANCED_FACE('',(#625),#685,.F.);
#718=ADVANCED_FACE('',(#626),#686,.F.);
#719=ADVANCED_FACE('',(#627),#687,.F.);
#720=ADVANCED_FACE('',(#628),#688,.F.);
#721=ADVANCED_FACE('',(#629),#689,.T.);
#722=ADVANCED_FACE('',(#630),#690,.F.);
#723=ADVANCED_FACE('',(#631,#632),#17,.F.);
#724=ADVANCED_FACE('',(#633,#634),#18,.T.);
#725=ADVANCED_FACE('',(#635,#636),#691,.T.);
#726=ADVANCED_FACE('',(#637),#692,.T.);
#727=ADVANCED_FACE('',(#638,#639),#19,.F.);
#728=ADVANCED_FACE('',(#640,#641),#20,.T.);
#729=ADVANCED_FACE('',(#642,#643),#693,.T.);
#730=ADVANCED_FACE('',(#644),#694,.T.);
#731=ADVANCED_FACE('',(#645,#646),#21,.F.);
#732=ADVANCED_FACE('',(#647,#648),#22,.T.);
#733=ADVANCED_FACE('',(#649,#650),#695,.T.);
#734=ADVANCED_FACE('',(#651),#696,.T.);
#735=ADVANCED_FACE('',(#652,#653),#23,.F.);
#736=ADVANCED_FACE('',(#654,#655),#24,.T.);
#737=ADVANCED_FACE('',(#656,#657),#697,.T.);
#738=ADVANCED_FACE('',(#658),#698,.T.);
#739=ADVANCED_FACE('',(#659,#660),#25,.F.);
#740=ADVANCED_FACE('',(#661,#662),#26,.F.);
#741=ADVANCED_FACE('',(#663),#699,.T.);
#742=ADVANCED_FACE('',(#664),#700,.F.);
#743=ADVANCED_FACE('',(#665),#701,.F.);
#744=ADVANCED_FACE('',(#666),#702,.T.);
#745=ADVANCED_FACE('',(#667,#668),#703,.T.);
#746=ADVANCED_FACE('',(#669),#12,.T.);
#747=ADVANCED_FACE('',(#670),#13,.T.);
#748=ADVANCED_FACE('',(#671),#14,.T.);
#749=ADVANCED_FACE('',(#672),#15,.T.);
#750=CLOSED_SHELL('',(#704,#705,#706,#707,#708,#709,#710,#711,#712,#713,
#714,#715,#716,#717,#718,#719,#720,#721,#722,#723,#724,#725,#726,#727,#728,
#729,#730,#731,#732,#733,#734,#735,#736,#737,#738,#739,#740,#741,#742,#743,
#744,#745,#746,#747,#748,#749));
#751=STYLED_ITEM('',(#752),#759);
#752=PRESENTATION_STYLE_ASSIGNMENT((#753));
#753=SURFACE_STYLE_USAGE(.BOTH.,#754);
#754=SURFACE_SIDE_STYLE('',(#755));
#755=SURFACE_STYLE_FILL_AREA(#756);
#756=FILL_AREA_STYLE('',(#757));
#757=FILL_AREA_STYLE_COLOUR('',#758);
#758=COLOUR_RGB('',0.349019607843138,0.376470588235294,0.4);
#759=MANIFOLD_SOLID_BREP('Part 1',#750);
#760=SHAPE_DEFINITION_REPRESENTATION(#1306,#761);
#761=SHAPE_REPRESENTATION('Part 1',(#762),#1301);
#762=AXIS2_PLACEMENT_3D('',#1013,#827,#828);
#763=AXIS2_PLACEMENT_3D('',#1014,#829,#830);
#764=AXIS2_PLACEMENT_3D('',#1043,#835,#836);
#765=AXIS2_PLACEMENT_3D('',#1045,#837,#838);
#766=AXIS2_PLACEMENT_3D('',#1055,#843,#844);
#767=AXIS2_PLACEMENT_3D('',#1056,#845,#846);
#768=AXIS2_PLACEMENT_3D('',#1058,#847,#848);
#769=AXIS2_PLACEMENT_3D('',#1060,#849,#850);
#770=AXIS2_PLACEMENT_3D('',#1096,#861,#862);
#771=AXIS2_PLACEMENT_3D('',#1110,#870,#871);
#772=AXIS2_PLACEMENT_3D('',#1121,#878,#879);
#773=AXIS2_PLACEMENT_3D('',#1134,#884,#885);
#774=AXIS2_PLACEMENT_3D('',#1148,#889,#890);
#775=AXIS2_PLACEMENT_3D('',#1157,#891,#892);
#776=AXIS2_PLACEMENT_3D('',#1166,#893,#894);
#777=AXIS2_PLACEMENT_3D('',#1180,#898,#899);
#778=AXIS2_PLACEMENT_3D('',#1184,#902,#903);
#779=AXIS2_PLACEMENT_3D('',#1186,#905,#906);
#780=AXIS2_PLACEMENT_3D('',#1187,#907,#908);
#781=AXIS2_PLACEMENT_3D('',#1189,#909,#910);
#782=AXIS2_PLACEMENT_3D('',#1191,#911,#912);
#783=AXIS2_PLACEMENT_3D('',#1193,#913,#914);
#784=AXIS2_PLACEMENT_3D('',#1195,#915,#916);
#785=AXIS2_PLACEMENT_3D('',#1197,#917,#918);
#786=AXIS2_PLACEMENT_3D('',#1199,#919,#920);
#787=AXIS2_PLACEMENT_3D('',#1201,#922,#923);
#788=AXIS2_PLACEMENT_3D('',#1203,#925,#926);
#789=AXIS2_PLACEMENT_3D('',#1204,#927,#928);
#790=AXIS2_PLACEMENT_3D('',#1206,#930,#931);
#791=AXIS2_PLACEMENT_3D('',#1208,#933,#934);
#792=AXIS2_PLACEMENT_3D('',#1209,#935,#936);
#793=AXIS2_PLACEMENT_3D('',#1210,#937,#938);
#794=AXIS2_PLACEMENT_3D('',#1212,#939,#940);
#795=AXIS2_PLACEMENT_3D('',#1214,#941,#942);
#796=AXIS2_PLACEMENT_3D('',#1215,#943,#944);
#797=AXIS2_PLACEMENT_3D('',#1217,#945,#946);
#798=AXIS2_PLACEMENT_3D('',#1218,#947,#948);
#799=AXIS2_PLACEMENT_3D('',#1219,#949,#950);
#800=AXIS2_PLACEMENT_3D('',#1220,#951,#952);
#801=AXIS2_PLACEMENT_3D('',#1222,#953,#954);
#802=AXIS2_PLACEMENT_3D('',#1224,#955,#956);
#803=AXIS2_PLACEMENT_3D('',#1225,#957,#958);
#804=AXIS2_PLACEMENT_3D('',#1227,#959,#960);
#805=AXIS2_PLACEMENT_3D('',#1228,#961,#962);
#806=AXIS2_PLACEMENT_3D('',#1229,#963,#964);
#807=AXIS2_PLACEMENT_3D('',#1230,#965,#966);
#808=AXIS2_PLACEMENT_3D('',#1232,#967,#968);
#809=AXIS2_PLACEMENT_3D('',#1234,#969,#970);
#810=AXIS2_PLACEMENT_3D('',#1235,#971,#972);
#811=AXIS2_PLACEMENT_3D('',#1237,#973,#974);
#812=AXIS2_PLACEMENT_3D('',#1238,#975,#976);
#813=AXIS2_PLACEMENT_3D('',#1239,#977,#978);
#814=AXIS2_PLACEMENT_3D('',#1240,#979,#980);
#815=AXIS2_PLACEMENT_3D('',#1242,#981,#982);
#816=AXIS2_PLACEMENT_3D('',#1244,#983,#984);
#817=AXIS2_PLACEMENT_3D('',#1245,#985,#986);
#818=AXIS2_PLACEMENT_3D('',#1247,#987,#988);
#819=AXIS2_PLACEMENT_3D('',#1248,#989,#990);
#820=AXIS2_PLACEMENT_3D('',#1249,#991,#992);
#821=AXIS2_PLACEMENT_3D('',#1250,#993,#994);
#822=AXIS2_PLACEMENT_3D('',#1251,#995,#996);
#823=AXIS2_PLACEMENT_3D('',#1257,#1000,#1001);
#824=AXIS2_PLACEMENT_3D('',#1261,#1004,#1005);
#825=AXIS2_PLACEMENT_3D('',#1265,#1008,#1009);
#826=AXIS2_PLACEMENT_3D('',#1267,#1011,#1012);
#827=DIRECTION('',(0.,0.,1.));
#828=DIRECTION('',(1.,0.,0.));
#829=DIRECTION('',(0.,0.,1.));
#830=DIRECTION('',(1.,0.,0.));
#831=DIRECTION('',(-1.,0.,0.));
#832=DIRECTION('',(-3.27692746347449E-16,-1.,0.));
#833=DIRECTION('',(-1.,0.,0.));
#834=DIRECTION('',(-3.27692746347449E-16,-1.,0.));
#835=DIRECTION('',(0.,0.,1.));
#836=DIRECTION('',(1.,0.,0.));
#837=DIRECTION('',(0.,0.,1.));
#838=DIRECTION('',(1.,0.,0.));
#839=DIRECTION('',(1.,0.,0.));
#840=DIRECTION('',(5.42101086242752E-17,1.,0.));
#841=DIRECTION('',(1.,0.,0.));
#842=DIRECTION('',(0.,1.,0.));
#843=DIRECTION('',(0.,0.,1.));
#844=DIRECTION('',(1.,0.,0.));
#845=DIRECTION('',(0.,0.,1.));
#846=DIRECTION('',(1.,0.,0.));
#847=DIRECTION('',(0.,0.,1.));
#848=DIRECTION('',(1.,0.,0.));
#849=DIRECTION('',(0.,0.,1.));
#850=DIRECTION('',(1.,0.,0.));
#851=DIRECTION('',(-3.27692746347449E-16,-1.,0.));
#852=DIRECTION('',(-1.,0.,0.));
#853=DIRECTION('',(0.,-1.,0.));
#854=DIRECTION('',(-1.,0.,0.));
#855=DIRECTION('',(-3.27692746347449E-16,-1.,0.));
#856=DIRECTION('',(-1.,0.,0.));
#857=DIRECTION('',(-3.27692746347449E-16,-1.,0.));
#858=DIRECTION('',(1.,-3.27692746347449E-16,0.));
#859=DIRECTION('',(-3.27692746347449E-16,-1.,0.));
#860=DIRECTION('',(-1.,0.,0.));
#861=DIRECTION('',(1.,-3.27692746347449E-16,0.));
#862=DIRECTION('',(3.27692746347449E-16,1.,0.));
#863=DIRECTION('',(0.,0.,-1.));
#864=DIRECTION('',(0.,0.,-1.));
#865=DIRECTION('',(-3.27692746347449E-16,-1.,0.));
#866=DIRECTION('',(0.,0.,-1.));
#867=DIRECTION('',(-3.27692746347449E-16,-1.,0.));
#868=DIRECTION('',(0.,0.,1.));
#869=DIRECTION('',(3.27692746347449E-16,1.,1.11486084574345E-16));
#870=DIRECTION('',(0.,-1.,0.));
#871=DIRECTION('',(0.,0.,-1.));
#872=DIRECTION('',(4.95635278850516E-16,0.,-1.));
#873=DIRECTION('',(-1.,0.,0.));
#874=DIRECTION('',(-1.,0.,0.));
#875=DIRECTION('',(0.,0.,-1.));
#876=DIRECTION('',(0.,0.,1.));
#877=DIRECTION('',(-1.,0.,-2.36553201269565E-16));
#878=DIRECTION('',(0.,0.,1.));
#879=DIRECTION('',(1.,0.,0.));
#880=DIRECTION('',(-1.,0.,0.));
#881=DIRECTION('',(-3.27692746347449E-16,-1.,0.));
#882=DIRECTION('',(1.,-3.27692746347449E-16,0.));
#883=DIRECTION('',(0.,-1.,0.));
#884=DIRECTION('',(1.,-3.27692746347449E-16,0.));
#885=DIRECTION('',(3.27692746347449E-16,1.,0.));
#886=DIRECTION('',(0.,0.,1.));
#887=DIRECTION('',(-3.27692746347449E-16,-1.,-1.11486084574345E-16));
#888=DIRECTION('',(0.,0.,-1.));
#889=DIRECTION('',(0.,-1.,0.));
#890=DIRECTION('',(0.,0.,-1.));
#891=DIRECTION('',(1.,-3.27692746347449E-16,0.));
#892=DIRECTION('',(3.27692746347449E-16,1.,0.));
#893=DIRECTION('',(0.,-1.,0.));
#894=DIRECTION('',(0.,0.,-1.));
#895=DIRECTION('',(-4.95635278850516E-16,0.,1.));
#896=DIRECTION('',(1.,0.,2.36553201269565E-16));
#897=DIRECTION('',(0.,0.,-1.));
#898=DIRECTION('',(0.,-1.,0.));
#899=DIRECTION('',(0.,0.,-1.));
#900=DIRECTION('',(-1.,0.,0.));
#901=DIRECTION('',(0.,0.,-1.));
#902=DIRECTION('',(1.,-3.27692746347449E-16,0.));
#903=DIRECTION('',(3.27692746347449E-16,1.,0.));
#904=DIRECTION('',(-3.27692746347449E-16,-1.,0.));
#905=DIRECTION('',(0.,0.,1.));
#906=DIRECTION('',(1.,0.,0.));
#907=DIRECTION('',(0.,0.,1.));
#908=DIRECTION('',(1.,0.,0.));
#909=DIRECTION('',(0.,0.,1.));
#910=DIRECTION('',(1.,0.,0.));
#911=DIRECTION('',(0.,0.,1.));
#912=DIRECTION('',(1.,0.,0.));
#913=DIRECTION('',(0.,0.,1.));
#914=DIRECTION('',(1.,0.,0.));
#915=DIRECTION('',(0.,0.,1.));
#916=DIRECTION('',(1.,0.,0.));
#917=DIRECTION('',(0.,0.,1.));
#918=DIRECTION('',(1.,0.,0.));
#919=DIRECTION('',(1.,0.,4.95635278850516E-16));
#920=DIRECTION('',(4.95635278850516E-16,0.,-1.));
#921=DIRECTION('',(0.,-1.,0.));
#922=DIRECTION('',(2.36553201269565E-16,0.,-1.));
#923=DIRECTION('',(-1.,0.,-2.36553201269565E-16));
#924=DIRECTION('',(0.,-1.,0.));
#925=DIRECTION('',(-1.,0.,0.));
#926=DIRECTION('',(0.,0.,1.));
#927=DIRECTION('',(3.27692746347449E-16,1.,0.));
#928=DIRECTION('',(-1.,3.27692746347449E-16,0.));
#929=DIRECTION('',(1.,-3.27692746347449E-16,0.));
#930=DIRECTION('',(-3.65331812336911E-32,-1.11486084574345E-16,1.));
#931=DIRECTION('',(0.,-1.,-1.11486084574345E-16));
#932=DIRECTION('',(1.,-3.27692746347449E-16,0.));
#933=DIRECTION('',(-3.27692746347449E-16,-1.,0.));
#934=DIRECTION('',(1.,-3.27692746347449E-16,0.));
#935=DIRECTION('',(0.,0.,-1.));
#936=DIRECTION('',(-1.,0.,0.));
#937=DIRECTION('',(0.,0.,1.));
#938=DIRECTION('',(1.,0.,0.));
#939=DIRECTION('',(0.,0.,1.));
#940=DIRECTION('',(1.,0.,0.));
#941=DIRECTION('',(0.,0.,-1.));
#942=DIRECTION('',(-1.,0.,0.));
#943=DIRECTION('',(0.,0.,1.));
#944=DIRECTION('',(1.,0.,0.));
#945=DIRECTION('',(0.,0.,1.));
#946=DIRECTION('',(1.,0.,0.));
#947=DIRECTION('',(0.,0.,1.));
#948=DIRECTION('',(1.,0.,0.));
#949=DIRECTION('',(0.,0.,-1.));
#950=DIRECTION('',(-1.,0.,0.));
#951=DIRECTION('',(0.,0.,1.));
#952=DIRECTION('',(1.,0.,0.));
#953=DIRECTION('',(0.,0.,1.));
#954=DIRECTION('',(1.,0.,0.));
#955=DIRECTION('',(0.,0.,-1.));
#956=DIRECTION('',(-1.,0.,0.));
#957=DIRECTION('',(0.,0.,1.));
#958=DIRECTION('',(1.,0.,0.));
#959=DIRECTION('',(0.,0.,1.));
#960=DIRECTION('',(1.,0.,0.));
#961=DIRECTION('',(0.,0.,1.));
#962=DIRECTION('',(1.,0.,0.));
#963=DIRECTION('',(0.,0.,-1.));
#964=DIRECTION('',(-1.,0.,0.));
#965=DIRECTION('',(0.,0.,1.));
#966=DIRECTION('',(1.,0.,0.));
#967=DIRECTION('',(0.,0.,1.));
#968=DIRECTION('',(1.,0.,0.));
#969=DIRECTION('',(0.,0.,-1.));
#970=DIRECTION('',(-1.,0.,0.));
#971=DIRECTION('',(0.,0.,1.));
#972=DIRECTION('',(1.,0.,0.));
#973=DIRECTION('',(0.,0.,1.));
#974=DIRECTION('',(1.,0.,0.));
#975=DIRECTION('',(0.,0.,1.));
#976=DIRECTION('',(1.,0.,0.));
#977=DIRECTION('',(0.,0.,-1.));
#978=DIRECTION('',(-1.,0.,0.));
#979=DIRECTION('',(0.,0.,1.));
#980=DIRECTION('',(1.,0.,0.));
#981=DIRECTION('',(0.,0.,1.));
#982=DIRECTION('',(1.,0.,0.));
#983=DIRECTION('',(0.,0.,-1.));
#984=DIRECTION('',(-1.,0.,0.));
#985=DIRECTION('',(0.,0.,1.));
#986=DIRECTION('',(1.,0.,0.));
#987=DIRECTION('',(0.,0.,1.));
#988=DIRECTION('',(1.,0.,0.));
#989=DIRECTION('',(0.,0.,1.));
#990=DIRECTION('',(1.,0.,0.));
#991=DIRECTION('',(0.,0.,1.));
#992=DIRECTION('',(1.,0.,0.));
#993=DIRECTION('',(0.,0.,1.));
#994=DIRECTION('',(1.,0.,0.));
#995=DIRECTION('',(0.,1.,0.));
#996=DIRECTION('',(0.,0.,1.));
#997=DIRECTION('',(0.,0.,-1.));
#998=DIRECTION('',(1.,0.,0.));
#999=DIRECTION('',(0.,0.,-1.));
#1000=DIRECTION('',(-1.,0.,0.));
#1001=DIRECTION('',(0.,0.,1.));
#1002=DIRECTION('',(0.,0.,-1.));
#1003=DIRECTION('',(0.,1.,0.));
#1004=DIRECTION('',(0.,1.,0.));
#1005=DIRECTION('',(0.,0.,1.));
#1006=DIRECTION('',(0.,0.,-1.));
#1007=DIRECTION('',(1.,0.,0.));
#1008=DIRECTION('',(-1.,5.42101086242752E-17,0.));
#1009=DIRECTION('',(-5.42101086242752E-17,-1.,0.));
#1010=DIRECTION('',(5.42101086242752E-17,1.,0.));
#1011=DIRECTION('',(0.,0.,-1.));
#1012=DIRECTION('',(1.,0.,0.));
#1013=CARTESIAN_POINT('',(0.,0.,0.));
#1014=CARTESIAN_POINT('',(0.,-1.38777878078145E-17,0.));
#1015=CARTESIAN_POINT('',(-2.77555756156289E-17,-0.0847,0.));
#1016=CARTESIAN_POINT('',(0.0392,-0.0847,0.));
#1017=CARTESIAN_POINT('',(-0.0392,-0.0847,0.));
#1018=CARTESIAN_POINT('',(-0.0392,-0.0847,0.));
#1019=CARTESIAN_POINT('',(-0.0425333333333333,-0.0847,0.));
#1020=CARTESIAN_POINT('',(-0.0442,-0.0830333333333333,0.));
#1021=CARTESIAN_POINT('',(-0.0442,-0.0797,0.));
#1022=CARTESIAN_POINT('',(-0.0442,-0.0797,0.));
#1023=CARTESIAN_POINT('',(-0.0442,-1.38777878078145E-17,0.));
#1024=CARTESIAN_POINT('',(-0.0442,0.0797,0.));
#1025=CARTESIAN_POINT('',(-0.0442,0.0797,0.));
#1026=CARTESIAN_POINT('',(-0.0442,0.0830333333333333,0.));
#1027=CARTESIAN_POINT('',(-0.0425333333333333,0.0847,0.));
#1028=CARTESIAN_POINT('',(-0.0392,0.0847,0.));
#1029=CARTESIAN_POINT('',(-0.0392,0.0847,0.));
#1030=CARTESIAN_POINT('',(2.77555756156289E-17,0.0847,0.));
#1031=CARTESIAN_POINT('',(0.0392,0.0847,0.));
#1032=CARTESIAN_POINT('',(0.0392,0.0847,0.));
#1033=CARTESIAN_POINT('',(0.0425333333333333,0.0847,0.));
#1034=CARTESIAN_POINT('',(0.0442,0.0830333333333333,0.));
#1035=CARTESIAN_POINT('',(0.0442,0.0797,0.));
#1036=CARTESIAN_POINT('',(0.0442,0.0797,0.));
#1037=CARTESIAN_POINT('',(0.0442,-1.38777878078145E-17,0.));
#1038=CARTESIAN_POINT('',(0.0442,-0.0797,0.));
#1039=CARTESIAN_POINT('',(0.0442,-0.0797,0.));
#1040=CARTESIAN_POINT('',(0.0442,-0.0830333333333333,0.));
#1041=CARTESIAN_POINT('',(0.0425333333333333,-0.0847,0.));
#1042=CARTESIAN_POINT('',(0.0392,-0.0847,0.));
#1043=CARTESIAN_POINT('',(-0.0366598218679428,0.078454,0.));
#1044=CARTESIAN_POINT('',(-0.0355598218679428,0.078454,0.));
#1045=CARTESIAN_POINT('',(0.037968,0.078454,0.));
#1046=CARTESIAN_POINT('',(0.039068,0.078454,0.));
#1047=CARTESIAN_POINT('',(-0.012369,0.00220963295176625,0.));
#1048=CARTESIAN_POINT('',(-0.018369,0.00220963295176625,0.));
#1049=CARTESIAN_POINT('',(-0.006369,0.00220963295176625,0.));
#1050=CARTESIAN_POINT('',(-0.006369,0.0182096329517662,0.));
#1051=CARTESIAN_POINT('',(-0.006369,0.0342096329517663,0.));
#1052=CARTESIAN_POINT('',(-0.012369,0.0342096329517663,0.));
#1053=CARTESIAN_POINT('',(-0.018369,0.0342096329517663,0.));
#1054=CARTESIAN_POINT('',(-0.018369,0.0182096329517662,0.));
#1055=CARTESIAN_POINT('',(-0.012369,0.015921,-0.189455705834144));
#1056=CARTESIAN_POINT('',(-0.012369,0.015921,0.0018));
#1057=CARTESIAN_POINT('',(-0.008369,0.015921,0.0018));
#1058=CARTESIAN_POINT('',(-0.012369,0.015921,0.0008));
#1059=CARTESIAN_POINT('',(-0.008369,0.015921,0.0008));
#1060=CARTESIAN_POINT('',(0.,-1.38777878078145E-17,0.008));
#1061=CARTESIAN_POINT('',(-0.0442,-1.38777878078145E-17,0.008));
#1062=CARTESIAN_POINT('',(-0.0442,0.0797,0.008));
#1063=CARTESIAN_POINT('',(-0.0442,-0.0797,0.008));
#1064=CARTESIAN_POINT('',(-0.0442,-0.0797,0.008));
#1065=CARTESIAN_POINT('',(-0.0442,-0.0830333333333333,0.008));
#1066=CARTESIAN_POINT('',(-0.0425333333333333,-0.0847,0.008));
#1067=CARTESIAN_POINT('',(-0.0392,-0.0847,0.008));
#1068=CARTESIAN_POINT('',(-0.0392,-0.0847,0.008));
#1069=CARTESIAN_POINT('',(-2.77555756156289E-17,-0.0847,0.008));
#1070=CARTESIAN_POINT('',(-0.0052,-0.0847,0.008));
#1071=CARTESIAN_POINT('',(-0.0052,-0.082898,0.008));
#1072=CARTESIAN_POINT('',(-0.0052,-0.0829,0.008));
#1073=CARTESIAN_POINT('',(-2.77555756156289E-17,-0.0829,0.008));
#1074=CARTESIAN_POINT('',(-0.0424,-0.0829,0.008));
#1075=CARTESIAN_POINT('',(-0.0424,-1.44676347512399E-17,0.008));
#1076=CARTESIAN_POINT('',(-0.0424,0.0829,0.008));
#1077=CARTESIAN_POINT('',(2.77555756156289E-17,0.0829,0.008));
#1078=CARTESIAN_POINT('',(0.0424,0.0829,0.008));
#1079=CARTESIAN_POINT('',(0.0424,-1.3287940864389E-17,0.008));
#1080=CARTESIAN_POINT('',(0.0424,-0.04474,0.008));
#1081=CARTESIAN_POINT('',(0.042398,-0.04474,0.008));
#1082=CARTESIAN_POINT('',(0.0442,-0.04474,0.008));
#1083=CARTESIAN_POINT('',(0.0442,-1.38777878078145E-17,0.008));
#1084=CARTESIAN_POINT('',(0.0442,0.0797,0.008));
#1085=CARTESIAN_POINT('',(0.0442,0.0797,0.008));
#1086=CARTESIAN_POINT('',(0.0442,0.0830333333333333,0.008));
#1087=CARTESIAN_POINT('',(0.0425333333333333,0.0847,0.008));
#1088=CARTESIAN_POINT('',(0.0392,0.0847,0.008));
#1089=CARTESIAN_POINT('',(0.0392,0.0847,0.008));
#1090=CARTESIAN_POINT('',(2.77555756156289E-17,0.0847,0.008));
#1091=CARTESIAN_POINT('',(-0.0392,0.0847,0.008));
#1092=CARTESIAN_POINT('',(-0.0392,0.0847,0.008));
#1093=CARTESIAN_POINT('',(-0.0425333333333333,0.0847,0.008));
#1094=CARTESIAN_POINT('',(-0.0442,0.0830333333333333,0.008));
#1095=CARTESIAN_POINT('',(-0.0442,0.0797,0.008));
#1096=CARTESIAN_POINT('',(0.0424,-1.3287940864389E-17,0.008));
#1097=CARTESIAN_POINT('',(0.0424,-0.04474,0.00675));
#1098=CARTESIAN_POINT('',(0.0424,-0.04474,0.0055));
#1099=CARTESIAN_POINT('',(0.0424,0.0829,0.008));
#1100=CARTESIAN_POINT('',(0.0424,0.0829,0.0018));
#1101=CARTESIAN_POINT('',(0.0424,-1.3287940864389E-17,0.0018));
#1102=CARTESIAN_POINT('',(0.0424,-0.0829,0.0018));
#1103=CARTESIAN_POINT('',(0.0424,-0.0829,0.008));
#1104=CARTESIAN_POINT('',(0.0424,-0.0829,0.008));
#1105=CARTESIAN_POINT('',(0.0424,-1.3287940864389E-17,0.008));
#1106=CARTESIAN_POINT('',(0.0424,-0.0603,0.008));
#1107=CARTESIAN_POINT('',(0.0424,-0.0603,0.00675));
#1108=CARTESIAN_POINT('',(0.0424,-0.0603,0.0055));
#1109=CARTESIAN_POINT('',(0.0424,-0.05252,0.0055));
#1110=CARTESIAN_POINT('',(-2.77555756156289E-17,-0.0829,0.008));
#1111=CARTESIAN_POINT('',(0.0058,-0.0829,0.00625));
#1112=CARTESIAN_POINT('',(0.0058,-0.0829,0.008));
#1113=CARTESIAN_POINT('',(0.0058,-0.0829,0.0045));
#1114=CARTESIAN_POINT('',(-2.77555756156289E-17,-0.0829,0.008));
#1115=CARTESIAN_POINT('',(-2.77555756156289E-17,-0.0829,0.0018));
#1116=CARTESIAN_POINT('',(-0.0424,-0.0829,0.0018));
#1117=CARTESIAN_POINT('',(-0.0424,-0.0829,0.008));
#1118=CARTESIAN_POINT('',(-0.0052,-0.0829,0.00625));
#1119=CARTESIAN_POINT('',(-0.0052,-0.0829,0.0045));
#1120=CARTESIAN_POINT('',(0.000299999999999982,-0.0829,0.0045));
#1121=CARTESIAN_POINT('',(0.,-1.38777878078145E-17,0.008));
#1122=CARTESIAN_POINT('',(-2.77555756156289E-17,-0.0847,0.008));
#1123=CARTESIAN_POINT('',(0.0392,-0.0847,0.008));
#1124=CARTESIAN_POINT('',(0.0058,-0.0847,0.008));
#1125=CARTESIAN_POINT('',(0.0392,-0.0847,0.008));
#1126=CARTESIAN_POINT('',(0.0425333333333333,-0.0847,0.008));
#1127=CARTESIAN_POINT('',(0.0442,-0.0830333333333333,0.008));
#1128=CARTESIAN_POINT('',(0.0442,-0.0797,0.008));
#1129=CARTESIAN_POINT('',(0.0442,-0.0797,0.008));
#1130=CARTESIAN_POINT('',(0.0442,-1.38777878078145E-17,0.008));
#1131=CARTESIAN_POINT('',(0.0442,-0.0603,0.008));
#1132=CARTESIAN_POINT('',(0.042398,-0.0603,0.008));
#1133=CARTESIAN_POINT('',(0.0058,-0.082898,0.008));
#1134=CARTESIAN_POINT('',(0.0442,-1.38777878078145E-17,0.008));
#1135=CARTESIAN_POINT('',(0.0442,-0.0797,0.008));
#1136=CARTESIAN_POINT('',(0.0442,-0.0797,0.00533333333333333));
#1137=CARTESIAN_POINT('',(0.0442,-0.0797,0.00266666666666667));
#1138=CARTESIAN_POINT('',(0.0442,-0.0797,0.));
#1139=CARTESIAN_POINT('',(0.0442,0.0797,0.));
#1140=CARTESIAN_POINT('',(0.0442,0.0797,0.00266666666666667));
#1141=CARTESIAN_POINT('',(0.0442,0.0797,0.00533333333333333));
#1142=CARTESIAN_POINT('',(0.0442,0.0797,0.008));
#1143=CARTESIAN_POINT('',(0.0442,-0.04474,0.00675));
#1144=CARTESIAN_POINT('',(0.0442,-0.04474,0.0055));
#1145=CARTESIAN_POINT('',(0.0442,-0.05252,0.0055));
#1146=CARTESIAN_POINT('',(0.0442,-0.0603,0.0055));
#1147=CARTESIAN_POINT('',(0.0442,-0.0603,0.00675));
#1148=CARTESIAN_POINT('',(2.77555756156289E-17,0.0847,0.008));
#1149=CARTESIAN_POINT('',(-0.0392,0.0847,0.));
#1150=CARTESIAN_POINT('',(-0.0392,0.0847,0.00266666666666667));
#1151=CARTESIAN_POINT('',(-0.0392,0.0847,0.00533333333333333));
#1152=CARTESIAN_POINT('',(-0.0392,0.0847,0.008));
#1153=CARTESIAN_POINT('',(0.0392,0.0847,0.008));
#1154=CARTESIAN_POINT('',(0.0392,0.0847,0.00533333333333333));
#1155=CARTESIAN_POINT('',(0.0392,0.0847,0.00266666666666667));
#1156=CARTESIAN_POINT('',(0.0392,0.0847,0.));
#1157=CARTESIAN_POINT('',(-0.0442,-1.38777878078145E-17,0.008));
#1158=CARTESIAN_POINT('',(-0.0442,-0.0797,0.));
#1159=CARTESIAN_POINT('',(-0.0442,-0.0797,0.00266666666666667));
#1160=CARTESIAN_POINT('',(-0.0442,-0.0797,0.00533333333333333));
#1161=CARTESIAN_POINT('',(-0.0442,-0.0797,0.008));
#1162=CARTESIAN_POINT('',(-0.0442,0.0797,0.008));
#1163=CARTESIAN_POINT('',(-0.0442,0.0797,0.00533333333333333));
#1164=CARTESIAN_POINT('',(-0.0442,0.0797,0.00266666666666667));
#1165=CARTESIAN_POINT('',(-0.0442,0.0797,0.));
#1166=CARTESIAN_POINT('',(-2.77555756156289E-17,-0.0847,0.008));
#1167=CARTESIAN_POINT('',(-0.0392,-0.0847,0.008));
#1168=CARTESIAN_POINT('',(-0.0392,-0.0847,0.00533333333333333));
#1169=CARTESIAN_POINT('',(-0.0392,-0.0847,0.00266666666666667));
#1170=CARTESIAN_POINT('',(-0.0392,-0.0847,0.));
#1171=CARTESIAN_POINT('',(0.0392,-0.0847,0.));
#1172=CARTESIAN_POINT('',(0.0392,-0.0847,0.00266666666666667));
#1173=CARTESIAN_POINT('',(0.0392,-0.0847,0.00533333333333333));
#1174=CARTESIAN_POINT('',(0.0392,-0.0847,0.008));
#1175=CARTESIAN_POINT('',(0.0058,-0.0847,0.00625));
#1176=CARTESIAN_POINT('',(0.0058,-0.0847,0.0045));
#1177=CARTESIAN_POINT('',(0.000299999999999982,-0.0847,0.0045));
#1178=CARTESIAN_POINT('',(-0.0052,-0.0847,0.0045));
#1179=CARTESIAN_POINT('',(-0.0052,-0.0847,0.00625));
#1180=CARTESIAN_POINT('',(2.77555756156289E-17,0.0829,0.008));
#1181=CARTESIAN_POINT('',(2.77555756156289E-17,0.0829,0.0018));
#1182=CARTESIAN_POINT('',(-0.0424,0.0829,0.0018));
#1183=CARTESIAN_POINT('',(-0.0424,0.0829,0.008));
#1184=CARTESIAN_POINT('',(-0.0424,-1.44676347512399E-17,0.008));
#1185=CARTESIAN_POINT('',(-0.0424,-1.44676347512399E-17,0.0018));
#1186=CARTESIAN_POINT('',(0.,-1.38777878078145E-17,0.0018));
#1187=CARTESIAN_POINT('',(0.037968,0.078454,0.0018));
#1188=CARTESIAN_POINT('',(0.039068,0.078454,0.0018));
#1189=CARTESIAN_POINT('',(-0.0366598218679428,0.078454,0.0018));
#1190=CARTESIAN_POINT('',(-0.0355598218679428,0.078454,0.0018));
#1191=CARTESIAN_POINT('',(0.037968,-0.076468,0.0018));
#1192=CARTESIAN_POINT('',(0.039868,-0.076468,0.0018));
#1193=CARTESIAN_POINT('',(-0.035968,-0.001468,0.0018));
#1194=CARTESIAN_POINT('',(-0.034068,-0.001468,0.0018));
#1195=CARTESIAN_POINT('',(0.013132,-0.001468,0.0018));
#1196=CARTESIAN_POINT('',(0.015032,-0.001468,0.0018));
#1197=CARTESIAN_POINT('',(-0.035968,-0.076468,0.0018));
#1198=CARTESIAN_POINT('',(-0.034068,-0.076468,0.0018));
#1199=CARTESIAN_POINT('',(0.0058,-0.082898,0.00625));
#1200=CARTESIAN_POINT('',(0.0058,-0.082898,0.0045));
#1201=CARTESIAN_POINT('',(0.000299999999999982,-0.082898,0.0045));
#1202=CARTESIAN_POINT('',(-0.0052,-0.082898,0.0045));
#1203=CARTESIAN_POINT('',(-0.0052,-0.082898,0.00625));
#1204=CARTESIAN_POINT('',(0.042398,-0.04474,0.00675));
#1205=CARTESIAN_POINT('',(0.042398,-0.04474,0.0055));
#1206=CARTESIAN_POINT('',(0.042398,-0.05252,0.0055));
#1207=CARTESIAN_POINT('',(0.042398,-0.0603,0.0055));
#1208=CARTESIAN_POINT('',(0.042398,-0.0603,0.00675));
#1209=CARTESIAN_POINT('',(-0.035968,-0.076468,0.0071));
#1210=CARTESIAN_POINT('',(-0.035968,-0.076468,0.0071));
#1211=CARTESIAN_POINT('',(-0.035168,-0.076468,0.0071));
#1212=CARTESIAN_POINT('',(-0.035968,-0.076468,0.0018));
#1213=CARTESIAN_POINT('',(-0.035168,-0.076468,0.0018));
#1214=CARTESIAN_POINT('',(-0.035968,-0.076468,0.0071));
#1215=CARTESIAN_POINT('',(-0.035968,-0.076468,0.0071));
#1216=CARTESIAN_POINT('',(-0.034068,-0.076468,0.0071));
#1217=CARTESIAN_POINT('',(0.,0.,0.0071));
#1218=CARTESIAN_POINT('',(0.,-1.38777878078145E-17,0.0018));
#1219=CARTESIAN_POINT('',(0.013132,-0.001468,0.0071));
#1220=CARTESIAN_POINT('',(0.013132,-0.001468,0.0071));
#1221=CARTESIAN_POINT('',(0.013932,-0.001468,0.0071));
#1222=CARTESIAN_POINT('',(0.013132,-0.001468,0.0018));
#1223=CARTESIAN_POINT('',(0.013932,-0.001468,0.0018));
#1224=CARTESIAN_POINT('',(0.013132,-0.001468,0.0071));
#1225=CARTESIAN_POINT('',(0.013132,-0.001468,0.0071));
#1226=CARTESIAN_POINT('',(0.015032,-0.001468,0.0071));
#1227=CARTESIAN_POINT('',(0.,0.,0.0071));
#1228=CARTESIAN_POINT('',(0.,-1.38777878078145E-17,0.0018));
#1229=CARTESIAN_POINT('',(-0.035968,-0.001468,0.0071));
#1230=CARTESIAN_POINT('',(-0.035968,-0.001468,0.0071));
#1231=CARTESIAN_POINT('',(-0.035168,-0.001468,0.0071));
#1232=CARTESIAN_POINT('',(-0.035968,-0.001468,0.0018));
#1233=CARTESIAN_POINT('',(-0.035168,-0.001468,0.0018));
#1234=CARTESIAN_POINT('',(-0.035968,-0.001468,0.0071));
#1235=CARTESIAN_POINT('',(-0.035968,-0.001468,0.0071));
#1236=CARTESIAN_POINT('',(-0.034068,-0.001468,0.0071));
#1237=CARTESIAN_POINT('',(0.,0.,0.0071));
#1238=CARTESIAN_POINT('',(0.,-1.38777878078145E-17,0.0018));
#1239=CARTESIAN_POINT('',(0.037968,-0.076468,0.0071));
#1240=CARTESIAN_POINT('',(0.037968,-0.076468,0.0071));
#1241=CARTESIAN_POINT('',(0.038768,-0.076468,0.0071));
#1242=CARTESIAN_POINT('',(0.037968,-0.076468,0.0018));
#1243=CARTESIAN_POINT('',(0.038768,-0.076468,0.0018));
#1244=CARTESIAN_POINT('',(0.037968,-0.076468,0.0071));
#1245=CARTESIAN_POINT('',(0.037968,-0.076468,0.0071));
#1246=CARTESIAN_POINT('',(0.039868,-0.076468,0.0071));
#1247=CARTESIAN_POINT('',(0.,0.,0.0071));
#1248=CARTESIAN_POINT('',(0.,-1.38777878078145E-17,0.0018));
#1249=CARTESIAN_POINT('',(-0.0366598218679428,0.078454,-0.189455705834144));
#1250=CARTESIAN_POINT('',(0.037968,0.078454,-0.189455705834144));
#1251=CARTESIAN_POINT('',(-0.012369,0.00220963295176625,0.0008));
#1252=CARTESIAN_POINT('',(-0.018369,0.00220963295176625,0.0008));
#1253=CARTESIAN_POINT('',(-0.018369,0.00220963295176625,0.0008));
#1254=CARTESIAN_POINT('',(-0.012369,0.00220963295176625,0.0008));
#1255=CARTESIAN_POINT('',(-0.006369,0.00220963295176625,0.0008));
#1256=CARTESIAN_POINT('',(-0.006369,0.00220963295176625,0.0008));
#1257=CARTESIAN_POINT('',(-0.018369,0.0182096329517662,0.0008));
#1258=CARTESIAN_POINT('',(-0.018369,0.0342096329517663,0.0008));
#1259=CARTESIAN_POINT('',(-0.018369,0.0342096329517663,0.0008));
#1260=CARTESIAN_POINT('',(-0.018369,0.0182096329517662,0.0008));
#1261=CARTESIAN_POINT('',(-0.012369,0.0342096329517663,0.0008));
#1262=CARTESIAN_POINT('',(-0.006369,0.0342096329517663,0.0008));
#1263=CARTESIAN_POINT('',(-0.006369,0.0342096329517663,0.0008));
#1264=CARTESIAN_POINT('',(-0.012369,0.0342096329517663,0.0008));
#1265=CARTESIAN_POINT('',(-0.006369,0.0182096329517662,0.0008));
#1266=CARTESIAN_POINT('',(-0.006369,0.0182096329517662,0.0008));
#1267=CARTESIAN_POINT('',(0.,-1.38777878078145E-17,0.0008));
#1268=CARTESIAN_POINT('',(-0.0442,-0.0797,-4.5160156606008E-19));
#1269=CARTESIAN_POINT('',(-0.0442,-0.0797,0.008));
#1270=CARTESIAN_POINT('',(-0.0442,-0.0830333333333333,-2.60208521396521E-18));
#1271=CARTESIAN_POINT('',(-0.0442,-0.0830333333333333,0.008));
#1272=CARTESIAN_POINT('',(-0.0425333333333334,-0.0847,-2.60208521396521E-18));
#1273=CARTESIAN_POINT('',(-0.0425333333333334,-0.0847,0.008));
#1274=CARTESIAN_POINT('',(-0.0392,-0.0847,-1.88525733133017E-18));
#1275=CARTESIAN_POINT('',(-0.0392,-0.0847,0.008));
#1276=CARTESIAN_POINT('',(0.0442,-0.0797,0.008));
#1277=CARTESIAN_POINT('',(0.0442,-0.0797,0.));
#1278=CARTESIAN_POINT('',(0.0442,-0.0830333333333333,0.008));
#1279=CARTESIAN_POINT('',(0.0442,-0.0830333333333333,-1.73472347597681E-18));
#1280=CARTESIAN_POINT('',(0.0425333333333334,-0.0847,0.008));
#1281=CARTESIAN_POINT('',(0.0425333333333334,-0.0847,1.73472347597681E-18));
#1282=CARTESIAN_POINT('',(0.0392,-0.0847,0.008));
#1283=CARTESIAN_POINT('',(0.0392,-0.0847,1.73472347597681E-18));
#1284=CARTESIAN_POINT('',(-0.0442,0.0797,0.008));
#1285=CARTESIAN_POINT('',(-0.0442,0.0797,0.));
#1286=CARTESIAN_POINT('',(-0.0442,0.0830333333333333,0.008));
#1287=CARTESIAN_POINT('',(-0.0442,0.0830333333333333,-1.73472347597681E-18));
#1288=CARTESIAN_POINT('',(-0.0425333333333334,0.0847,0.008));
#1289=CARTESIAN_POINT('',(-0.0425333333333334,0.0847,-1.73472347597681E-18));
#1290=CARTESIAN_POINT('',(-0.0392,0.0847,0.008));
#1291=CARTESIAN_POINT('',(-0.0392,0.0847,0.));
#1292=CARTESIAN_POINT('',(0.0442,0.0797,-4.51601566060063E-19));
#1293=CARTESIAN_POINT('',(0.0442,0.0797,0.008));
#1294=CARTESIAN_POINT('',(0.0442,0.0830333333333333,-2.60208521396521E-18));
#1295=CARTESIAN_POINT('',(0.0442,0.0830333333333333,0.008));
#1296=CARTESIAN_POINT('',(0.0425333333333334,0.0847,-2.60208521396521E-18));
#1297=CARTESIAN_POINT('',(0.0425333333333334,0.0847,0.008));
#1298=CARTESIAN_POINT('',(0.0392,0.0847,-1.88525733133016E-18));
#1299=CARTESIAN_POINT('',(0.0392,0.0847,0.008));
#1300=MECHANICAL_DESIGN_GEOMETRIC_PRESENTATION_REPRESENTATION('',(#751),
#1301);
#1301=(
GEOMETRIC_REPRESENTATION_CONTEXT(3)
GLOBAL_UNCERTAINTY_ASSIGNED_CONTEXT((#1302))
GLOBAL_UNIT_ASSIGNED_CONTEXT((#1305,#1304,#1303))
REPRESENTATION_CONTEXT('Part 1','TOP_LEVEL_ASSEMBLY_PART')
);
#1302=UNCERTAINTY_MEASURE_WITH_UNIT(LENGTH_MEASURE(2.E-5),#1305,
'DISTANCE_ACCURACY_VALUE','Maximum Tolerance applied to model');
#1303=(
NAMED_UNIT(*)
SI_UNIT($,.STERADIAN.)
SOLID_ANGLE_UNIT()
);
#1304=(
NAMED_UNIT(*)
PLANE_ANGLE_UNIT()
SI_UNIT($,.RADIAN.)
);
#1305=(
LENGTH_UNIT()
NAMED_UNIT(*)
SI_UNIT($,.METRE.)
);
#1306=PRODUCT_DEFINITION_SHAPE('','',#1307);
#1307=PRODUCT_DEFINITION('','',#1309,#1308);
#1308=PRODUCT_DEFINITION_CONTEXT('',#1315,'design');
#1309=PRODUCT_DEFINITION_FORMATION_WITH_SPECIFIED_SOURCE('','',#1311,
 .NOT_KNOWN.);
#1310=PRODUCT_RELATED_PRODUCT_CATEGORY('','',(#1311));
#1311=PRODUCT('Part 1','Part 1','Part 1',(#1313));
#1312=PRODUCT_CATEGORY('','');
#1313=PRODUCT_CONTEXT('',#1315,'mechanical');
#1314=APPLICATION_PROTOCOL_DEFINITION('international standard',
'ap242_managed_model_based_3d_engineering',2020,#1315);
#1315=APPLICATION_CONTEXT('managed model based 3d engineering');
ENDSEC;
END-ISO-10303-21;
