ISO-10303-21;
HEADER;
/* Generated by software containing ST-Developer
 * from STEP Tools, Inc. (www.steptools.com) 
 */
/* OPTION: using custom renumber hook */

FILE_DESCRIPTION(
/* description */ ('STEP AP242 Edition 2',
'CAx-IF Rec.Pracs.---Representation and Presentation of Product Manufa
cturing Information (PMI)---4.0---2014-10-13',
'CAx-IF Rec.Pracs.---3D Tessellated Geometry---0.4---2014-09-14','2;1',
'CAx-IF Rec.Pracs.---User Defined Attributes---1.5---2016-08-15'),
/* implementation_level */ '2;1');

FILE_NAME(
/* name */ '5 Copy 1',
/* time_stamp */ '2026-08-25T15:59:08Z',
/* author */ (''),
/* organization */ (''),
/* preprocessor_version */ 'ST-DEVELOPER v20',
/* originating_system */ 'ONSHAPE BY PTC INC, 1.219',
/* authorisation */ '  ');

FILE_SCHEMA (('AP242_MANAGED_MODEL_BASED_3D_ENGINEERING_MIM_LF { 1 0 10303 442 3 1 4 }'));
ENDSEC;

DATA;
#10=SHAPE_REPRESENTATION_RELATIONSHIP('','',#447,#11);
#11=ADVANCED_BREP_SHAPE_REPRESENTATION('',(#445),#765);
#12=CYLINDRICAL_SURFACE('',#472,0.0068);
#13=CYLINDRICAL_SURFACE('',#473,0.0068);
#14=CYLINDRICAL_SURFACE('',#476,0.0068);
#15=CYLINDRICAL_SURFACE('',#478,0.0068);
#16=B_SPLINE_SURFACE_WITH_KNOTS('',3,1,((#696,#697),(#698,#699),(#700,#701),
(#702,#703)),.SURF_OF_LINEAR_EXTRUSION.,.F.,.F.,.F.,(4,4),(2,2),(0.225403330758508,
1.),(0.,1.),.PIECEWISE_BEZIER_KNOTS.);
#17=B_SPLINE_SURFACE_WITH_KNOTS('',3,1,((#716,#717),(#718,#719),(#720,#721),
(#722,#723)),.SURF_OF_LINEAR_EXTRUSION.,.F.,.F.,.F.,(4,4),(2,2),(0.225403330758508,
1.00000000000002),(0.,1.),.PIECEWISE_BEZIER_KNOTS.);
#18=B_SPLINE_CURVE_WITH_KNOTS('',3,(#624,#625,#626,#627),.UNSPECIFIED.,
 .F.,.F.,(4,4),(0.,1.),.UNSPECIFIED.);
#19=B_SPLINE_CURVE_WITH_KNOTS('',3,(#637,#638,#639,#640),.UNSPECIFIED.,
 .F.,.F.,(4,4),(0.,1.),.UNSPECIFIED.);
#20=B_SPLINE_CURVE_WITH_KNOTS('',3,(#656,#657,#658,#659),.UNSPECIFIED.,
 .F.,.F.,(4,4),(0.,1.),.UNSPECIFIED.);
#21=B_SPLINE_CURVE_WITH_KNOTS('',3,(#669,#670,#671,#672),.UNSPECIFIED.,
 .F.,.F.,(4,4),(0.0115986091724158,0.988392253400684),.UNSPECIFIED.);
#22=B_SPLINE_CURVE_WITH_KNOTS('',3,(#677,#678,#679,#680),.UNSPECIFIED.,
 .F.,.F.,(4,4),(0.0115986091724158,0.988392253400667),.UNSPECIFIED.);
#23=B_SPLINE_CURVE_WITH_KNOTS('',3,(#692,#693,#694,#695),.UNSPECIFIED.,
 .F.,.F.,(4,4),(0.,1.),.UNSPECIFIED.);
#24=B_SPLINE_CURVE_WITH_KNOTS('',3,(#704,#705,#706,#707),.UNSPECIFIED.,
 .F.,.F.,(4,4),(0.,1.),.UNSPECIFIED.);
#25=B_SPLINE_CURVE_WITH_KNOTS('',3,(#708,#709,#710,#711),.UNSPECIFIED.,
 .F.,.F.,(4,4),(0.,1.),.UNSPECIFIED.);
#26=B_SPLINE_CURVE_WITH_KNOTS('',3,(#712,#713,#714,#715),.UNSPECIFIED.,
 .F.,.F.,(4,4),(0.,1.),.UNSPECIFIED.);
#27=B_SPLINE_CURVE_WITH_KNOTS('',3,(#724,#725,#726,#727),.UNSPECIFIED.,
 .F.,.F.,(4,4),(0.,1.),.UNSPECIFIED.);
#28=B_SPLINE_CURVE_WITH_KNOTS('',3,(#728,#729,#730,#731),.UNSPECIFIED.,
 .F.,.F.,(4,4),(0.,1.),.UNSPECIFIED.);
#29=B_SPLINE_CURVE_WITH_KNOTS('',3,(#732,#733,#734,#735),.UNSPECIFIED.,
 .F.,.F.,(4,4),(0.,1.),.UNSPECIFIED.);
#30=B_SPLINE_CURVE_WITH_KNOTS('',3,(#739,#740,#741,#742),.UNSPECIFIED.,
 .F.,.F.,(4,4),(0.,1.),.UNSPECIFIED.);
#31=B_SPLINE_CURVE_WITH_KNOTS('',3,(#747,#748,#749,#750),.UNSPECIFIED.,
 .F.,.F.,(4,4),(0.,1.),.UNSPECIFIED.);
#32=CIRCLE('',#450,0.0068);
#33=CIRCLE('',#451,0.0068);
#34=CIRCLE('',#452,0.0068);
#35=CIRCLE('',#453,0.0068);
#36=CIRCLE('',#460,0.0068);
#37=CIRCLE('',#461,0.0068);
#38=CIRCLE('',#462,0.0068);
#39=CIRCLE('',#463,0.0068);
#40=ORIENTED_EDGE('',*,*,#164,.F.);
#41=ORIENTED_EDGE('',*,*,#165,.T.);
#42=ORIENTED_EDGE('',*,*,#166,.F.);
#43=ORIENTED_EDGE('',*,*,#167,.F.);
#44=ORIENTED_EDGE('',*,*,#168,.F.);
#45=ORIENTED_EDGE('',*,*,#169,.F.);
#46=ORIENTED_EDGE('',*,*,#170,.F.);
#47=ORIENTED_EDGE('',*,*,#171,.T.);
#48=ORIENTED_EDGE('',*,*,#172,.F.);
#49=ORIENTED_EDGE('',*,*,#173,.F.);
#50=ORIENTED_EDGE('',*,*,#174,.T.);
#51=ORIENTED_EDGE('',*,*,#175,.T.);
#52=ORIENTED_EDGE('',*,*,#176,.F.);
#53=ORIENTED_EDGE('',*,*,#177,.T.);
#54=ORIENTED_EDGE('',*,*,#178,.T.);
#55=ORIENTED_EDGE('',*,*,#179,.F.);
#56=ORIENTED_EDGE('',*,*,#180,.F.);
#57=ORIENTED_EDGE('',*,*,#179,.T.);
#58=ORIENTED_EDGE('',*,*,#181,.F.);
#59=ORIENTED_EDGE('',*,*,#182,.T.);
#60=ORIENTED_EDGE('',*,*,#183,.T.);
#61=ORIENTED_EDGE('',*,*,#184,.T.);
#62=ORIENTED_EDGE('',*,*,#166,.T.);
#63=ORIENTED_EDGE('',*,*,#185,.T.);
#64=ORIENTED_EDGE('',*,*,#186,.F.);
#65=ORIENTED_EDGE('',*,*,#187,.F.);
#66=ORIENTED_EDGE('',*,*,#188,.T.);
#67=ORIENTED_EDGE('',*,*,#189,.T.);
#68=ORIENTED_EDGE('',*,*,#190,.F.);
#69=ORIENTED_EDGE('',*,*,#191,.T.);
#70=ORIENTED_EDGE('',*,*,#192,.T.);
#71=ORIENTED_EDGE('',*,*,#169,.T.);
#72=ORIENTED_EDGE('',*,*,#174,.F.);
#73=ORIENTED_EDGE('',*,*,#193,.T.);
#74=ORIENTED_EDGE('',*,*,#194,.T.);
#75=ORIENTED_EDGE('',*,*,#195,.F.);
#76=ORIENTED_EDGE('',*,*,#196,.T.);
#77=ORIENTED_EDGE('',*,*,#197,.T.);
#78=ORIENTED_EDGE('',*,*,#198,.F.);
#79=ORIENTED_EDGE('',*,*,#199,.F.);
#80=ORIENTED_EDGE('',*,*,#200,.T.);
#81=ORIENTED_EDGE('',*,*,#177,.F.);
#82=ORIENTED_EDGE('',*,*,#186,.T.);
#83=ORIENTED_EDGE('',*,*,#201,.T.);
#84=ORIENTED_EDGE('',*,*,#202,.T.);
#85=ORIENTED_EDGE('',*,*,#203,.T.);
#86=ORIENTED_EDGE('',*,*,#194,.F.);
#87=ORIENTED_EDGE('',*,*,#204,.F.);
#88=ORIENTED_EDGE('',*,*,#205,.T.);
#89=ORIENTED_EDGE('',*,*,#206,.F.);
#90=ORIENTED_EDGE('',*,*,#207,.F.);
#91=ORIENTED_EDGE('',*,*,#171,.F.);
#92=ORIENTED_EDGE('',*,*,#208,.F.);
#93=ORIENTED_EDGE('',*,*,#209,.F.);
#94=ORIENTED_EDGE('',*,*,#210,.T.);
#95=ORIENTED_EDGE('',*,*,#211,.T.);
#96=ORIENTED_EDGE('',*,*,#184,.F.);
#97=ORIENTED_EDGE('',*,*,#212,.F.);
#98=ORIENTED_EDGE('',*,*,#197,.F.);
#99=ORIENTED_EDGE('',*,*,#213,.F.);
#100=ORIENTED_EDGE('',*,*,#202,.F.);
#101=ORIENTED_EDGE('',*,*,#214,.F.);
#102=ORIENTED_EDGE('',*,*,#189,.F.);
#103=ORIENTED_EDGE('',*,*,#215,.F.);
#104=ORIENTED_EDGE('',*,*,#205,.F.);
#105=ORIENTED_EDGE('',*,*,#216,.F.);
#106=ORIENTED_EDGE('',*,*,#211,.F.);
#107=ORIENTED_EDGE('',*,*,#217,.F.);
#108=ORIENTED_EDGE('',*,*,#170,.T.);
#109=ORIENTED_EDGE('',*,*,#192,.F.);
#110=ORIENTED_EDGE('',*,*,#218,.F.);
#111=ORIENTED_EDGE('',*,*,#208,.T.);
#112=ORIENTED_EDGE('',*,*,#217,.T.);
#113=ORIENTED_EDGE('',*,*,#210,.F.);
#114=ORIENTED_EDGE('',*,*,#219,.F.);
#115=ORIENTED_EDGE('',*,*,#190,.T.);
#116=ORIENTED_EDGE('',*,*,#209,.T.);
#117=ORIENTED_EDGE('',*,*,#218,.T.);
#118=ORIENTED_EDGE('',*,*,#191,.F.);
#119=ORIENTED_EDGE('',*,*,#219,.T.);
#120=ORIENTED_EDGE('',*,*,#178,.F.);
#121=ORIENTED_EDGE('',*,*,#200,.F.);
#122=ORIENTED_EDGE('',*,*,#220,.T.);
#123=ORIENTED_EDGE('',*,*,#181,.T.);
#124=ORIENTED_EDGE('',*,*,#212,.T.);
#125=ORIENTED_EDGE('',*,*,#183,.F.);
#126=ORIENTED_EDGE('',*,*,#221,.F.);
#127=ORIENTED_EDGE('',*,*,#198,.T.);
#128=ORIENTED_EDGE('',*,*,#220,.F.);
#129=ORIENTED_EDGE('',*,*,#199,.T.);
#130=ORIENTED_EDGE('',*,*,#221,.T.);
#131=ORIENTED_EDGE('',*,*,#182,.F.);
#132=ORIENTED_EDGE('',*,*,#176,.T.);
#133=ORIENTED_EDGE('',*,*,#222,.T.);
#134=ORIENTED_EDGE('',*,*,#213,.T.);
#135=ORIENTED_EDGE('',*,*,#196,.F.);
#136=ORIENTED_EDGE('',*,*,#195,.T.);
#137=ORIENTED_EDGE('',*,*,#203,.F.);
#138=ORIENTED_EDGE('',*,*,#222,.F.);
#139=ORIENTED_EDGE('',*,*,#175,.F.);
#140=ORIENTED_EDGE('',*,*,#173,.T.);
#141=ORIENTED_EDGE('',*,*,#223,.T.);
#142=ORIENTED_EDGE('',*,*,#204,.T.);
#143=ORIENTED_EDGE('',*,*,#193,.F.);
#144=ORIENTED_EDGE('',*,*,#172,.T.);
#145=ORIENTED_EDGE('',*,*,#207,.T.);
#146=ORIENTED_EDGE('',*,*,#216,.T.);
#147=ORIENTED_EDGE('',*,*,#223,.F.);
#148=ORIENTED_EDGE('',*,*,#168,.T.);
#149=ORIENTED_EDGE('',*,*,#224,.T.);
#150=ORIENTED_EDGE('',*,*,#215,.T.);
#151=ORIENTED_EDGE('',*,*,#188,.F.);
#152=ORIENTED_EDGE('',*,*,#167,.T.);
#153=ORIENTED_EDGE('',*,*,#187,.T.);
#154=ORIENTED_EDGE('',*,*,#206,.T.);
#155=ORIENTED_EDGE('',*,*,#224,.F.);
#156=ORIENTED_EDGE('',*,*,#164,.T.);
#157=ORIENTED_EDGE('',*,*,#180,.T.);
#158=ORIENTED_EDGE('',*,*,#214,.T.);
#159=ORIENTED_EDGE('',*,*,#225,.F.);
#160=ORIENTED_EDGE('',*,*,#225,.T.);
#161=ORIENTED_EDGE('',*,*,#201,.F.);
#162=ORIENTED_EDGE('',*,*,#185,.F.);
#163=ORIENTED_EDGE('',*,*,#165,.F.);
#164=EDGE_CURVE('',#226,#227,#266,.T.);
#165=EDGE_CURVE('',#226,#228,#32,.F.);
#166=EDGE_CURVE('',#229,#228,#267,.T.);
#167=EDGE_CURVE('',#230,#229,#33,.T.);
#168=EDGE_CURVE('',#231,#230,#268,.T.);
#169=EDGE_CURVE('',#232,#231,#269,.T.);
#170=EDGE_CURVE('',#233,#232,#270,.T.);
#171=EDGE_CURVE('',#233,#234,#271,.T.);
#172=EDGE_CURVE('',#235,#234,#272,.T.);
#173=EDGE_CURVE('',#236,#235,#34,.T.);
#174=EDGE_CURVE('',#236,#237,#273,.T.);
#175=EDGE_CURVE('',#237,#238,#35,.F.);
#176=EDGE_CURVE('',#239,#238,#274,.T.);
#177=EDGE_CURVE('',#239,#240,#275,.T.);
#178=EDGE_CURVE('',#240,#241,#276,.T.);
#179=EDGE_CURVE('',#227,#241,#277,.T.);
#180=EDGE_CURVE('',#227,#242,#278,.T.);
#181=EDGE_CURVE('',#243,#241,#279,.T.);
#182=EDGE_CURVE('',#243,#244,#280,.T.);
#183=EDGE_CURVE('',#244,#245,#281,.T.);
#184=EDGE_CURVE('',#245,#242,#18,.T.);
#185=EDGE_CURVE('',#228,#246,#282,.T.);
#186=EDGE_CURVE('',#247,#246,#283,.T.);
#187=EDGE_CURVE('',#229,#247,#284,.T.);
#188=EDGE_CURVE('',#231,#248,#285,.T.);
#189=EDGE_CURVE('',#248,#249,#19,.T.);
#190=EDGE_CURVE('',#250,#249,#286,.T.);
#191=EDGE_CURVE('',#250,#251,#287,.T.);
#192=EDGE_CURVE('',#251,#232,#288,.T.);
#193=EDGE_CURVE('',#236,#252,#289,.T.);
#194=EDGE_CURVE('',#252,#253,#290,.T.);
#195=EDGE_CURVE('',#237,#253,#291,.T.);
#196=EDGE_CURVE('',#239,#254,#292,.T.);
#197=EDGE_CURVE('',#254,#255,#20,.T.);
#198=EDGE_CURVE('',#256,#255,#293,.T.);
#199=EDGE_CURVE('',#257,#256,#294,.T.);
#200=EDGE_CURVE('',#257,#240,#295,.T.);
#201=EDGE_CURVE('',#246,#258,#36,.T.);
#202=EDGE_CURVE('',#258,#259,#21,.T.);
#203=EDGE_CURVE('',#259,#253,#37,.T.);
#204=EDGE_CURVE('',#260,#252,#38,.T.);
#205=EDGE_CURVE('',#260,#261,#22,.T.);
#206=EDGE_CURVE('',#247,#261,#39,.T.);
#207=EDGE_CURVE('',#234,#262,#296,.T.);
#208=EDGE_CURVE('',#263,#233,#297,.T.);
#209=EDGE_CURVE('',#264,#263,#298,.T.);
#210=EDGE_CURVE('',#264,#265,#299,.T.);
#211=EDGE_CURVE('',#265,#262,#23,.T.);
#212=EDGE_CURVE('',#255,#245,#24,.T.);
#213=EDGE_CURVE('',#259,#254,#25,.T.);
#214=EDGE_CURVE('',#242,#258,#26,.T.);
#215=EDGE_CURVE('',#261,#248,#27,.T.);
#216=EDGE_CURVE('',#262,#260,#28,.T.);
#217=EDGE_CURVE('',#249,#265,#29,.T.);
#218=EDGE_CURVE('',#263,#251,#300,.T.);
#219=EDGE_CURVE('',#250,#264,#30,.F.);
#220=EDGE_CURVE('',#257,#243,#301,.T.);
#221=EDGE_CURVE('',#256,#244,#31,.F.);
#222=EDGE_CURVE('',#238,#259,#302,.T.);
#223=EDGE_CURVE('',#235,#260,#303,.T.);
#224=EDGE_CURVE('',#230,#261,#304,.T.);
#225=EDGE_CURVE('',#226,#258,#305,.T.);
#226=VERTEX_POINT('',#584);
#227=VERTEX_POINT('',#585);
#228=VERTEX_POINT('',#587);
#229=VERTEX_POINT('',#589);
#230=VERTEX_POINT('',#591);
#231=VERTEX_POINT('',#593);
#232=VERTEX_POINT('',#595);
#233=VERTEX_POINT('',#597);
#234=VERTEX_POINT('',#599);
#235=VERTEX_POINT('',#601);
#236=VERTEX_POINT('',#603);
#237=VERTEX_POINT('',#605);
#238=VERTEX_POINT('',#607);
#239=VERTEX_POINT('',#609);
#240=VERTEX_POINT('',#611);
#241=VERTEX_POINT('',#613);
#242=VERTEX_POINT('',#617);
#243=VERTEX_POINT('',#619);
#244=VERTEX_POINT('',#621);
#245=VERTEX_POINT('',#623);
#246=VERTEX_POINT('',#630);
#247=VERTEX_POINT('',#632);
#248=VERTEX_POINT('',#636);
#249=VERTEX_POINT('',#641);
#250=VERTEX_POINT('',#643);
#251=VERTEX_POINT('',#645);
#252=VERTEX_POINT('',#649);
#253=VERTEX_POINT('',#651);
#254=VERTEX_POINT('',#655);
#255=VERTEX_POINT('',#660);
#256=VERTEX_POINT('',#662);
#257=VERTEX_POINT('',#664);
#258=VERTEX_POINT('',#668);
#259=VERTEX_POINT('',#673);
#260=VERTEX_POINT('',#676);
#261=VERTEX_POINT('',#681);
#262=VERTEX_POINT('',#685);
#263=VERTEX_POINT('',#687);
#264=VERTEX_POINT('',#689);
#265=VERTEX_POINT('',#691);
#266=LINE('',#583,#306);
#267=LINE('',#588,#307);
#268=LINE('',#592,#308);
#269=LINE('',#594,#309);
#270=LINE('',#596,#310);
#271=LINE('',#598,#311);
#272=LINE('',#600,#312);
#273=LINE('',#604,#313);
#274=LINE('',#608,#314);
#275=LINE('',#610,#315);
#276=LINE('',#612,#316);
#277=LINE('',#614,#317);
#278=LINE('',#616,#318);
#279=LINE('',#618,#319);
#280=LINE('',#620,#320);
#281=LINE('',#622,#321);
#282=LINE('',#629,#322);
#283=LINE('',#631,#323);
#284=LINE('',#633,#324);
#285=LINE('',#635,#325);
#286=LINE('',#642,#326);
#287=LINE('',#644,#327);
#288=LINE('',#646,#328);
#289=LINE('',#648,#329);
#290=LINE('',#650,#330);
#291=LINE('',#652,#331);
#292=LINE('',#654,#332);
#293=LINE('',#661,#333);
#294=LINE('',#663,#334);
#295=LINE('',#665,#335);
#296=LINE('',#684,#336);
#297=LINE('',#686,#337);
#298=LINE('',#688,#338);
#299=LINE('',#690,#339);
#300=LINE('',#737,#340);
#301=LINE('',#745,#341);
#302=LINE('',#753,#342);
#303=LINE('',#756,#343);
#304=LINE('',#759,#344);
#305=LINE('',#762,#345);
#306=VECTOR('',#483,1.);
#307=VECTOR('',#486,1.);
#308=VECTOR('',#489,1.);
#309=VECTOR('',#490,1.);
#310=VECTOR('',#491,1.);
#311=VECTOR('',#492,1.);
#312=VECTOR('',#493,1.);
#313=VECTOR('',#496,1.);
#314=VECTOR('',#499,1.);
#315=VECTOR('',#500,1.);
#316=VECTOR('',#501,1.);
#317=VECTOR('',#502,1.);
#318=VECTOR('',#505,1.);
#319=VECTOR('',#506,1.);
#320=VECTOR('',#507,1.);
#321=VECTOR('',#508,1.);
#322=VECTOR('',#511,1.);
#323=VECTOR('',#512,1.);
#324=VECTOR('',#513,1.);
#325=VECTOR('',#516,1.);
#326=VECTOR('',#517,1.);
#327=VECTOR('',#518,1.);
#328=VECTOR('',#519,1.);
#329=VECTOR('',#522,1.);
#330=VECTOR('',#523,1.);
#331=VECTOR('',#524,1.);
#332=VECTOR('',#527,1.);
#333=VECTOR('',#528,1.);
#334=VECTOR('',#529,1.);
#335=VECTOR('',#530,1.);
#336=VECTOR('',#543,1.);
#337=VECTOR('',#544,1.);
#338=VECTOR('',#545,1.);
#339=VECTOR('',#546,1.);
#340=VECTOR('',#549,1.);
#341=VECTOR('',#556,1.);
#342=VECTOR('',#563,1.);
#343=VECTOR('',#568,1.);
#344=VECTOR('',#573,1.);
#345=VECTOR('',#578,1.);
#346=EDGE_LOOP('',(#40,#41,#42,#43,#44,#45,#46,#47,#48,#49,#50,#51,#52,
#53,#54,#55));
#347=EDGE_LOOP('',(#56,#57,#58,#59,#60,#61));
#348=EDGE_LOOP('',(#62,#63,#64,#65));
#349=EDGE_LOOP('',(#66,#67,#68,#69,#70,#71));
#350=EDGE_LOOP('',(#72,#73,#74,#75));
#351=EDGE_LOOP('',(#76,#77,#78,#79,#80,#81));
#352=EDGE_LOOP('',(#82,#83,#84,#85,#86,#87,#88,#89));
#353=EDGE_LOOP('',(#90,#91,#92,#93,#94,#95));
#354=EDGE_LOOP('',(#96,#97,#98,#99,#100,#101));
#355=EDGE_LOOP('',(#102,#103,#104,#105,#106,#107));
#356=EDGE_LOOP('',(#108,#109,#110,#111));
#357=EDGE_LOOP('',(#112,#113,#114,#115));
#358=EDGE_LOOP('',(#116,#117,#118,#119));
#359=EDGE_LOOP('',(#120,#121,#122,#123));
#360=EDGE_LOOP('',(#124,#125,#126,#127));
#361=EDGE_LOOP('',(#128,#129,#130,#131));
#362=EDGE_LOOP('',(#132,#133,#134,#135));
#363=EDGE_LOOP('',(#136,#137,#138,#139));
#364=EDGE_LOOP('',(#140,#141,#142,#143));
#365=EDGE_LOOP('',(#144,#145,#146,#147));
#366=EDGE_LOOP('',(#148,#149,#150,#151));
#367=EDGE_LOOP('',(#152,#153,#154,#155));
#368=EDGE_LOOP('',(#156,#157,#158,#159));
#369=EDGE_LOOP('',(#160,#161,#162,#163));
#370=FACE_BOUND('',#346,.T.);
#371=FACE_BOUND('',#347,.T.);
#372=FACE_BOUND('',#348,.T.);
#373=FACE_BOUND('',#349,.T.);
#374=FACE_BOUND('',#350,.T.);
#375=FACE_BOUND('',#351,.T.);
#376=FACE_BOUND('',#352,.T.);
#377=FACE_BOUND('',#353,.T.);
#378=FACE_BOUND('',#354,.T.);
#379=FACE_BOUND('',#355,.T.);
#380=FACE_BOUND('',#356,.T.);
#381=FACE_BOUND('',#357,.T.);
#382=FACE_BOUND('',#358,.T.);
#383=FACE_BOUND('',#359,.T.);
#384=FACE_BOUND('',#360,.T.);
#385=FACE_BOUND('',#361,.T.);
#386=FACE_BOUND('',#362,.T.);
#387=FACE_BOUND('',#363,.T.);
#388=FACE_BOUND('',#364,.T.);
#389=FACE_BOUND('',#365,.T.);
#390=FACE_BOUND('',#366,.T.);
#391=FACE_BOUND('',#367,.T.);
#392=FACE_BOUND('',#368,.T.);
#393=FACE_BOUND('',#369,.T.);
#394=PLANE('',#449);
#395=PLANE('',#454);
#396=PLANE('',#455);
#397=PLANE('',#456);
#398=PLANE('',#457);
#399=PLANE('',#458);
#400=PLANE('',#459);
#401=PLANE('',#464);
#402=PLANE('',#465);
#403=PLANE('',#466);
#404=PLANE('',#467);
#405=PLANE('',#468);
#406=PLANE('',#469);
#407=PLANE('',#470);
#408=PLANE('',#471);
#409=PLANE('',#474);
#410=PLANE('',#475);
#411=PLANE('',#477);
#412=ADVANCED_FACE('',(#370),#394,.F.);
#413=ADVANCED_FACE('',(#371),#395,.F.);
#414=ADVANCED_FACE('',(#372),#396,.F.);
#415=ADVANCED_FACE('',(#373),#397,.F.);
#416=ADVANCED_FACE('',(#374),#398,.T.);
#417=ADVANCED_FACE('',(#375),#399,.T.);
#418=ADVANCED_FACE('',(#376),#400,.T.);
#419=ADVANCED_FACE('',(#377),#401,.T.);
#420=ADVANCED_FACE('',(#378),#16,.T.);
#421=ADVANCED_FACE('',(#379),#17,.T.);
#422=ADVANCED_FACE('',(#380),#402,.F.);
#423=ADVANCED_FACE('',(#381),#403,.F.);
#424=ADVANCED_FACE('',(#382),#404,.T.);
#425=ADVANCED_FACE('',(#383),#405,.T.);
#426=ADVANCED_FACE('',(#384),#406,.F.);
#427=ADVANCED_FACE('',(#385),#407,.T.);
#428=ADVANCED_FACE('',(#386),#408,.F.);
#429=ADVANCED_FACE('',(#387),#12,.T.);
#430=ADVANCED_FACE('',(#388),#13,.T.);
#431=ADVANCED_FACE('',(#389),#409,.F.);
#432=ADVANCED_FACE('',(#390),#410,.F.);
#433=ADVANCED_FACE('',(#391),#14,.T.);
#434=ADVANCED_FACE('',(#392),#411,.F.);
#435=ADVANCED_FACE('',(#393),#15,.T.);
#436=CLOSED_SHELL('',(#412,#413,#414,#415,#416,#417,#418,#419,#420,#421,
#422,#423,#424,#425,#426,#427,#428,#429,#430,#431,#432,#433,#434,#435));
#437=STYLED_ITEM('',(#438),#445);
#438=PRESENTATION_STYLE_ASSIGNMENT((#439));
#439=SURFACE_STYLE_USAGE(.BOTH.,#440);
#440=SURFACE_SIDE_STYLE('',(#441));
#441=SURFACE_STYLE_FILL_AREA(#442);
#442=FILL_AREA_STYLE('',(#443));
#443=FILL_AREA_STYLE_COLOUR('',#444);
#444=COLOUR_RGB('',0.43921568627451,0.474509803921569,0.501960784313726);
#445=MANIFOLD_SOLID_BREP('Part 1',#436);
#446=SHAPE_DEFINITION_REPRESENTATION(#770,#447);
#447=SHAPE_REPRESENTATION('Part 1',(#448),#765);
#448=AXIS2_PLACEMENT_3D('',#581,#479,#480);
#449=AXIS2_PLACEMENT_3D('',#582,#481,#482);
#450=AXIS2_PLACEMENT_3D('',#586,#484,#485);
#451=AXIS2_PLACEMENT_3D('',#590,#487,#488);
#452=AXIS2_PLACEMENT_3D('',#602,#494,#495);
#453=AXIS2_PLACEMENT_3D('',#606,#497,#498);
#454=AXIS2_PLACEMENT_3D('',#615,#503,#504);
#455=AXIS2_PLACEMENT_3D('',#628,#509,#510);
#456=AXIS2_PLACEMENT_3D('',#634,#514,#515);
#457=AXIS2_PLACEMENT_3D('',#647,#520,#521);
#458=AXIS2_PLACEMENT_3D('',#653,#525,#526);
#459=AXIS2_PLACEMENT_3D('',#666,#531,#532);
#460=AXIS2_PLACEMENT_3D('',#667,#533,#534);
#461=AXIS2_PLACEMENT_3D('',#674,#535,#536);
#462=AXIS2_PLACEMENT_3D('',#675,#537,#538);
#463=AXIS2_PLACEMENT_3D('',#682,#539,#540);
#464=AXIS2_PLACEMENT_3D('',#683,#541,#542);
#465=AXIS2_PLACEMENT_3D('',#736,#547,#548);
#466=AXIS2_PLACEMENT_3D('',#738,#550,#551);
#467=AXIS2_PLACEMENT_3D('',#743,#552,#553);
#468=AXIS2_PLACEMENT_3D('',#744,#554,#555);
#469=AXIS2_PLACEMENT_3D('',#746,#557,#558);
#470=AXIS2_PLACEMENT_3D('',#751,#559,#560);
#471=AXIS2_PLACEMENT_3D('',#752,#561,#562);
#472=AXIS2_PLACEMENT_3D('',#754,#564,#565);
#473=AXIS2_PLACEMENT_3D('',#755,#566,#567);
#474=AXIS2_PLACEMENT_3D('',#757,#569,#570);
#475=AXIS2_PLACEMENT_3D('',#758,#571,#572);
#476=AXIS2_PLACEMENT_3D('',#760,#574,#575);
#477=AXIS2_PLACEMENT_3D('',#761,#576,#577);
#478=AXIS2_PLACEMENT_3D('',#763,#579,#580);
#479=DIRECTION('',(0.,0.,1.));
#480=DIRECTION('',(1.,0.,0.));
#481=DIRECTION('',(0.,0.,1.));
#482=DIRECTION('',(1.,0.,0.));
#483=DIRECTION('',(0.,1.,0.));
#484=DIRECTION('',(0.,0.,1.));
#485=DIRECTION('',(1.,0.,0.));
#486=DIRECTION('',(-1.,0.,0.));
#487=DIRECTION('',(0.,0.,1.));
#488=DIRECTION('',(1.,0.,0.));
#489=DIRECTION('',(0.,-1.,0.));
#490=DIRECTION('',(-1.,0.,0.));
#491=DIRECTION('',(-8.11566538468682E-17,1.,0.));
#492=DIRECTION('',(-1.,0.,0.));
#493=DIRECTION('',(0.,-1.,0.));
#494=DIRECTION('',(0.,0.,1.));
#495=DIRECTION('',(1.,0.,0.));
#496=DIRECTION('',(-1.,0.,0.));
#497=DIRECTION('',(0.,0.,1.));
#498=DIRECTION('',(1.,0.,0.));
#499=DIRECTION('',(0.,1.,0.));
#500=DIRECTION('',(-1.,0.,0.));
#501=DIRECTION('',(8.11566538468682E-17,1.,0.));
#502=DIRECTION('',(-1.,0.,0.));
#503=DIRECTION('',(0.,-1.,0.));
#504=DIRECTION('',(0.,0.,-1.));
#505=DIRECTION('',(0.,0.,1.));
#506=DIRECTION('',(0.,0.,1.));
#507=DIRECTION('',(-1.,0.,0.));
#508=DIRECTION('',(0.,0.,1.));
#509=DIRECTION('',(0.,-1.,0.));
#510=DIRECTION('',(0.,0.,-1.));
#511=DIRECTION('',(0.,0.,1.));
#512=DIRECTION('',(-1.,0.,0.));
#513=DIRECTION('',(0.,0.,1.));
#514=DIRECTION('',(0.,-1.,0.));
#515=DIRECTION('',(0.,0.,-1.));
#516=DIRECTION('',(0.,0.,1.));
#517=DIRECTION('',(0.,0.,1.));
#518=DIRECTION('',(-1.,0.,0.));
#519=DIRECTION('',(0.,0.,1.));
#520=DIRECTION('',(0.,-1.,0.));
#521=DIRECTION('',(0.,0.,-1.));
#522=DIRECTION('',(0.,0.,1.));
#523=DIRECTION('',(-1.,0.,0.));
#524=DIRECTION('',(0.,0.,1.));
#525=DIRECTION('',(0.,-1.,0.));
#526=DIRECTION('',(0.,0.,-1.));
#527=DIRECTION('',(0.,0.,1.));
#528=DIRECTION('',(0.,0.,1.));
#529=DIRECTION('',(-1.,0.,0.));
#530=DIRECTION('',(0.,0.,1.));
#531=DIRECTION('',(0.,0.,1.));
#532=DIRECTION('',(1.,0.,0.));
#533=DIRECTION('',(0.,0.,1.));
#534=DIRECTION('',(1.,0.,0.));
#535=DIRECTION('',(0.,0.,1.));
#536=DIRECTION('',(1.,0.,0.));
#537=DIRECTION('',(0.,0.,-1.));
#538=DIRECTION('',(1.,0.,0.));
#539=DIRECTION('',(0.,0.,-1.));
#540=DIRECTION('',(1.,0.,0.));
#541=DIRECTION('',(0.,-1.,0.));
#542=DIRECTION('',(0.,0.,-1.));
#543=DIRECTION('',(0.,0.,1.));
#544=DIRECTION('',(0.,0.,1.));
#545=DIRECTION('',(-1.,0.,0.));
#546=DIRECTION('',(0.,0.,1.));
#547=DIRECTION('',(1.,8.11566538468682E-17,0.));
#548=DIRECTION('',(-8.11566538468682E-17,1.,0.));
#549=DIRECTION('',(-8.11566538468682E-17,1.,0.));
#550=DIRECTION('',(-1.,0.,0.));
#551=DIRECTION('',(0.,0.,1.));
#552=DIRECTION('',(0.,0.,-1.));
#553=DIRECTION('',(1.,0.,0.));
#554=DIRECTION('',(1.,-8.11566538468682E-17,0.));
#555=DIRECTION('',(8.11566538468682E-17,1.,0.));
#556=DIRECTION('',(8.11566538468682E-17,1.,0.));
#557=DIRECTION('',(1.,0.,0.));
#558=DIRECTION('',(0.,0.,-1.));
#559=DIRECTION('',(0.,0.,-1.));
#560=DIRECTION('',(1.,0.,0.));
#561=DIRECTION('',(-1.,0.,0.));
#562=DIRECTION('',(0.,0.,1.));
#563=DIRECTION('',(0.,0.,1.));
#564=DIRECTION('',(0.,0.,1.));
#565=DIRECTION('',(1.,0.,0.));
#566=DIRECTION('',(0.,0.,1.));
#567=DIRECTION('',(1.,0.,0.));
#568=DIRECTION('',(0.,0.,1.));
#569=DIRECTION('',(1.,0.,0.));
#570=DIRECTION('',(0.,0.,-1.));
#571=DIRECTION('',(1.,0.,0.));
#572=DIRECTION('',(0.,0.,-1.));
#573=DIRECTION('',(0.,0.,1.));
#574=DIRECTION('',(0.,0.,1.));
#575=DIRECTION('',(1.,0.,0.));
#576=DIRECTION('',(-1.,0.,0.));
#577=DIRECTION('',(0.,0.,1.));
#578=DIRECTION('',(0.,0.,1.));
#579=DIRECTION('',(0.,0.,1.));
#580=DIRECTION('',(1.,0.,0.));
#581=CARTESIAN_POINT('',(0.,0.,0.));
#582=CARTESIAN_POINT('',(-2.08166817117217E-17,0.,0.));
#583=CARTESIAN_POINT('',(-0.04465,1.38777878078145E-17,0.));
#584=CARTESIAN_POINT('',(-0.04465,0.0835166378315169,-5.03984603616309E-20));
#585=CARTESIAN_POINT('',(-0.04465,0.0855,-5.03984603616309E-20));
#586=CARTESIAN_POINT('',(-0.03985,0.0787,0.));
#587=CARTESIAN_POINT('',(-0.03985,0.0855,0.));
#588=CARTESIAN_POINT('',(-6.24500451351651E-17,0.0855,0.));
#589=CARTESIAN_POINT('',(0.03985,0.0855,0.));
#590=CARTESIAN_POINT('',(0.03985,0.0787,0.));
#591=CARTESIAN_POINT('',(0.0446500000000007,0.0835166378315152,-5.03984603616309E-20));
#592=CARTESIAN_POINT('',(0.04465,1.38777878078145E-17,0.));
#593=CARTESIAN_POINT('',(0.04465,0.0855,-5.03984603616309E-20));
#594=CARTESIAN_POINT('',(-6.24500451351651E-17,0.0855,0.));
#595=CARTESIAN_POINT('',(0.045348386676966,0.0855,0.));
#596=CARTESIAN_POINT('',(0.045348386676966,1.38777878078145E-17,0.));
#597=CARTESIAN_POINT('',(0.045348386676966,-0.0855,0.));
#598=CARTESIAN_POINT('',(-3.46944695195361E-17,-0.0855,0.));
#599=CARTESIAN_POINT('',(0.04465,-0.0855,-5.03984603616309E-20));
#600=CARTESIAN_POINT('',(0.04465,1.38777878078145E-17,0.));
#601=CARTESIAN_POINT('',(0.04465,-0.0835166378315169,-5.03984603616309E-20));
#602=CARTESIAN_POINT('',(0.03985,-0.0787,0.));
#603=CARTESIAN_POINT('',(0.03985,-0.0855,0.));
#604=CARTESIAN_POINT('',(-3.46944695195361E-17,-0.0855,0.));
#605=CARTESIAN_POINT('',(-0.03985,-0.0855,0.));
#606=CARTESIAN_POINT('',(-0.03985,-0.0787,0.));
#607=CARTESIAN_POINT('',(-0.04465,-0.0835166378315169,-5.03984603616309E-20));
#608=CARTESIAN_POINT('',(-0.04465,1.38777878078145E-17,0.));
#609=CARTESIAN_POINT('',(-0.04465,-0.0855,-5.03984603616309E-20));
#610=CARTESIAN_POINT('',(-3.46944695195361E-17,-0.0855,0.));
#611=CARTESIAN_POINT('',(-0.045348386676966,-0.0855,0.));
#612=CARTESIAN_POINT('',(-0.045348386676966,1.38777878078145E-17,0.));
#613=CARTESIAN_POINT('',(-0.045348386676966,0.0855,0.));
#614=CARTESIAN_POINT('',(-6.24500451351651E-17,0.0855,0.));
#615=CARTESIAN_POINT('',(-6.24500451351651E-17,0.0855,0.0012));
#616=CARTESIAN_POINT('',(-0.04465,0.0855,-2.00000000000005E-6));
#617=CARTESIAN_POINT('',(-0.04465,0.0855,0.0012));
#618=CARTESIAN_POINT('',(-0.045348386676966,0.0855,-0.0025));
#619=CARTESIAN_POINT('',(-0.045348386676966,0.0855,-0.0025));
#620=CARTESIAN_POINT('',(-6.24500451351651E-17,0.0855,-0.0025));
#621=CARTESIAN_POINT('',(-0.0465483866769659,0.0855,-0.0025));
#622=CARTESIAN_POINT('',(-0.0465483866769659,0.0855,-0.0025));
#623=CARTESIAN_POINT('',(-0.0465483866769659,0.0855,0.));
#624=CARTESIAN_POINT('',(-0.046548386676966,0.0855,0.));
#625=CARTESIAN_POINT('',(-0.0463155911179773,0.0855,0.0008));
#626=CARTESIAN_POINT('',(-0.0456827955589887,0.0855,0.0012));
#627=CARTESIAN_POINT('',(-0.0446500000000001,0.0855,0.0012));
#628=CARTESIAN_POINT('',(-6.24500451351651E-17,0.0855,0.0012));
#629=CARTESIAN_POINT('',(-0.03985,0.0855,-2.00000000000005E-6));
#630=CARTESIAN_POINT('',(-0.03985,0.0855,0.0012));
#631=CARTESIAN_POINT('',(-6.24500451351651E-17,0.0855,0.0012));
#632=CARTESIAN_POINT('',(0.03985,0.0855,0.0012));
#633=CARTESIAN_POINT('',(0.03985,0.0855,-2.00000000000005E-6));
#634=CARTESIAN_POINT('',(-6.24500451351651E-17,0.0855,0.0012));
#635=CARTESIAN_POINT('',(0.04465,0.0855,-2.00000000000005E-6));
#636=CARTESIAN_POINT('',(0.04465,0.0855,0.0012));
#637=CARTESIAN_POINT('',(0.0446499999999999,0.0855,0.0012));
#638=CARTESIAN_POINT('',(0.0456827955589887,0.0855,0.0012));
#639=CARTESIAN_POINT('',(0.0463155911179773,0.0855,0.0008));
#640=CARTESIAN_POINT('',(0.0465483866769659,0.0855,0.));
#641=CARTESIAN_POINT('',(0.046548386676966,0.0855,0.));
#642=CARTESIAN_POINT('',(0.046548386676966,0.0855,-0.0025));
#643=CARTESIAN_POINT('',(0.046548386676966,0.0855,-0.0025));
#644=CARTESIAN_POINT('',(-6.24500451351651E-17,0.0855,-0.0025));
#645=CARTESIAN_POINT('',(0.045348386676966,0.0855,-0.0025));
#646=CARTESIAN_POINT('',(0.045348386676966,0.0855,-0.0025));
#647=CARTESIAN_POINT('',(-3.46944695195361E-17,-0.0855,0.0012));
#648=CARTESIAN_POINT('',(0.03985,-0.0855,-2.00000000000005E-6));
#649=CARTESIAN_POINT('',(0.03985,-0.0855,0.0012));
#650=CARTESIAN_POINT('',(-3.46944695195361E-17,-0.0855,0.0012));
#651=CARTESIAN_POINT('',(-0.03985,-0.0855,0.0012));
#652=CARTESIAN_POINT('',(-0.03985,-0.0855,-2.00000000000005E-6));
#653=CARTESIAN_POINT('',(-3.46944695195361E-17,-0.0855,0.0012));
#654=CARTESIAN_POINT('',(-0.04465,-0.0855,-2.00000000000005E-6));
#655=CARTESIAN_POINT('',(-0.04465,-0.0855,0.0012));
#656=CARTESIAN_POINT('',(-0.04465,-0.0855,0.0012));
#657=CARTESIAN_POINT('',(-0.0456827955589887,-0.0855,0.0012));
#658=CARTESIAN_POINT('',(-0.0463155911179773,-0.0855,0.0008));
#659=CARTESIAN_POINT('',(-0.0465483866769659,-0.0855,0.));
#660=CARTESIAN_POINT('',(-0.046548386676966,-0.0855,0.));
#661=CARTESIAN_POINT('',(-0.046548386676966,-0.0855,-0.0025));
#662=CARTESIAN_POINT('',(-0.046548386676966,-0.0855,-0.0025));
#663=CARTESIAN_POINT('',(-3.46944695195361E-17,-0.0855,-0.0025));
#664=CARTESIAN_POINT('',(-0.045348386676966,-0.0855,-0.0025));
#665=CARTESIAN_POINT('',(-0.045348386676966,-0.0855,-0.0025));
#666=CARTESIAN_POINT('',(-2.08166817117217E-17,0.,0.0012));
#667=CARTESIAN_POINT('',(-0.03985,0.0787,0.0012));
#668=CARTESIAN_POINT('',(-0.04465,0.0835166378315169,0.0012));
#669=CARTESIAN_POINT('',(-0.04465,0.0835166378315169,0.0012));
#670=CARTESIAN_POINT('',(-0.04465,0.0278394001105056,0.0012));
#671=CARTESIAN_POINT('',(-0.04465,-0.0278378376105056,0.0012));
#672=CARTESIAN_POINT('',(-0.04465,-0.0835150753315169,0.0012));
#673=CARTESIAN_POINT('',(-0.04465,-0.0835150753315169,0.0012));
#674=CARTESIAN_POINT('',(-0.03985,-0.0787,0.0012));
#675=CARTESIAN_POINT('',(0.03985,-0.0787,0.0012));
#676=CARTESIAN_POINT('',(0.04465,-0.0835166378315169,0.0012));
#677=CARTESIAN_POINT('',(0.04465,-0.0835166378315169,0.0012));
#678=CARTESIAN_POINT('',(0.04465,-0.0278394001105066,0.0012));
#679=CARTESIAN_POINT('',(0.04465,0.0278378376105038,0.0012));
#680=CARTESIAN_POINT('',(0.04465,0.0835150753315142,0.0012));
#681=CARTESIAN_POINT('',(0.04465,0.0835150753315141,0.0012));
#682=CARTESIAN_POINT('',(0.03985,0.0787,0.0012));
#683=CARTESIAN_POINT('',(-3.46944695195361E-17,-0.0855,0.0012));
#684=CARTESIAN_POINT('',(0.04465,-0.0855,-2.00000000000005E-6));
#685=CARTESIAN_POINT('',(0.04465,-0.0855,0.0012));
#686=CARTESIAN_POINT('',(0.045348386676966,-0.0855,-0.0025));
#687=CARTESIAN_POINT('',(0.045348386676966,-0.0855,-0.0025));
#688=CARTESIAN_POINT('',(-3.46944695195361E-17,-0.0855,-0.0025));
#689=CARTESIAN_POINT('',(0.0465483866769657,-0.0855,-0.0025));
#690=CARTESIAN_POINT('',(0.0465483866769657,-0.0855,-0.0025));
#691=CARTESIAN_POINT('',(0.0465483866769655,-0.0855,0.));
#692=CARTESIAN_POINT('',(0.0465483866769655,-0.0855,1.52807454190107E-15));
#693=CARTESIAN_POINT('',(0.0463155911179765,-0.0855,0.000800000000000509));
#694=CARTESIAN_POINT('',(0.045682795558988,-0.0855,0.0012));
#695=CARTESIAN_POINT('',(0.04465,-0.0855,0.0012));
#696=CARTESIAN_POINT('',(-0.0465483866769659,-0.0855,-2.67526886060798E-17));
#697=CARTESIAN_POINT('',(-0.0465483866769659,0.0855,-2.67526886060798E-17));
#698=CARTESIAN_POINT('',(-0.0463155911179773,-0.0855,0.00079999999999999));
#699=CARTESIAN_POINT('',(-0.0463155911179773,0.0855,0.00079999999999999));
#700=CARTESIAN_POINT('',(-0.0456827955589886,-0.0855,0.0012));
#701=CARTESIAN_POINT('',(-0.0456827955589886,0.0855,0.0012));
#702=CARTESIAN_POINT('',(-0.04465,-0.0855,0.0012));
#703=CARTESIAN_POINT('',(-0.04465,0.0855,0.0012));
#704=CARTESIAN_POINT('',(-0.046548386676966,-0.0855,0.));
#705=CARTESIAN_POINT('',(-0.046548386676966,-0.0285,0.));
#706=CARTESIAN_POINT('',(-0.046548386676966,0.0285,0.));
#707=CARTESIAN_POINT('',(-0.046548386676966,0.0855,0.));
#708=CARTESIAN_POINT('',(-0.04465,-0.0835166378315169,0.0012));
#709=CARTESIAN_POINT('',(-0.04465,-0.0841777585543446,0.0012));
#710=CARTESIAN_POINT('',(-0.04465,-0.0848388792771723,0.0012));
#711=CARTESIAN_POINT('',(-0.04465,-0.0855,0.0012));
#712=CARTESIAN_POINT('',(-0.04465,0.0855,0.0012));
#713=CARTESIAN_POINT('',(-0.04465,0.0848388792771723,0.0012));
#714=CARTESIAN_POINT('',(-0.04465,0.0841777585543446,0.0012));
#715=CARTESIAN_POINT('',(-0.04465,0.0835166378315169,0.0012));
#716=CARTESIAN_POINT('',(0.0465483866769659,0.0855,-2.67526886060798E-17));
#717=CARTESIAN_POINT('',(0.0465483866769659,-0.0855,-2.67526886060798E-17));
#718=CARTESIAN_POINT('',(0.0463155911179773,0.0855,0.000800000000000007));
#719=CARTESIAN_POINT('',(0.0463155911179773,-0.0855,0.000800000000000007));
#720=CARTESIAN_POINT('',(0.0456827955589886,0.0855,0.00120000000000002));
#721=CARTESIAN_POINT('',(0.0456827955589886,-0.0855,0.00120000000000002));
#722=CARTESIAN_POINT('',(0.04465,0.0855,0.0012));
#723=CARTESIAN_POINT('',(0.04465,-0.0855,0.0012));
#724=CARTESIAN_POINT('',(0.04465,0.0835166378315148,0.0012));
#725=CARTESIAN_POINT('',(0.04465,0.0841777585543432,0.0012));
#726=CARTESIAN_POINT('',(0.04465,0.0848388792771716,0.0012));
#727=CARTESIAN_POINT('',(0.04465,0.0855,0.0012));
#728=CARTESIAN_POINT('',(0.04465,-0.0855,0.0012));
#729=CARTESIAN_POINT('',(0.04465,-0.0848388792771723,0.0012));
#730=CARTESIAN_POINT('',(0.04465,-0.0841777585543446,0.0012));
#731=CARTESIAN_POINT('',(0.04465,-0.0835166378315169,0.0012));
#732=CARTESIAN_POINT('',(0.046548386676966,0.0855,0.));
#733=CARTESIAN_POINT('',(0.046548386676966,0.0285,0.));
#734=CARTESIAN_POINT('',(0.046548386676966,-0.0285,0.));
#735=CARTESIAN_POINT('',(0.046548386676966,-0.0855,0.));
#736=CARTESIAN_POINT('',(0.045348386676966,1.38777878078145E-17,-0.0025));
#737=CARTESIAN_POINT('',(0.045348386676966,1.38777878078145E-17,-0.0025));
#738=CARTESIAN_POINT('',(0.046548386676966,1.38777878078145E-17,-0.0025));
#739=CARTESIAN_POINT('',(0.046548386676966,-0.0855,-0.0025));
#740=CARTESIAN_POINT('',(0.046548386676966,-0.0285,-0.0025));
#741=CARTESIAN_POINT('',(0.046548386676966,0.0285,-0.0025));
#742=CARTESIAN_POINT('',(0.046548386676966,0.0855,-0.0025));
#743=CARTESIAN_POINT('',(-6.93889390390723E-18,1.38777878078145E-17,-0.0025));
#744=CARTESIAN_POINT('',(-0.045348386676966,1.38777878078145E-17,-0.0025));
#745=CARTESIAN_POINT('',(-0.045348386676966,1.38777878078145E-17,-0.0025));
#746=CARTESIAN_POINT('',(-0.046548386676966,1.38777878078145E-17,-0.0025));
#747=CARTESIAN_POINT('',(-0.046548386676966,0.0855,-0.0025));
#748=CARTESIAN_POINT('',(-0.046548386676966,0.0285,-0.0025));
#749=CARTESIAN_POINT('',(-0.046548386676966,-0.0285,-0.0025));
#750=CARTESIAN_POINT('',(-0.046548386676966,-0.0855,-0.0025));
#751=CARTESIAN_POINT('',(-6.93889390390723E-18,1.38777878078145E-17,-0.0025));
#752=CARTESIAN_POINT('',(-0.04465,1.38777878078145E-17,-2.00000000000005E-6));
#753=CARTESIAN_POINT('',(-0.04465,-0.0835166378315169,-2.00000000000005E-6));
#754=CARTESIAN_POINT('',(-0.03985,-0.0787,-2.00000000000005E-6));
#755=CARTESIAN_POINT('',(0.03985,-0.0787,-2.00000000000005E-6));
#756=CARTESIAN_POINT('',(0.04465,-0.0835166378315169,-2.00000000000005E-6));
#757=CARTESIAN_POINT('',(0.04465,1.38777878078145E-17,-2.00000000000005E-6));
#758=CARTESIAN_POINT('',(0.04465,1.38777878078145E-17,-2.00000000000005E-6));
#759=CARTESIAN_POINT('',(0.0446500000000007,0.0835166378315148,-2.00000000000005E-6));
#760=CARTESIAN_POINT('',(0.03985,0.0787,-2.00000000000005E-6));
#761=CARTESIAN_POINT('',(-0.04465,1.38777878078145E-17,-2.00000000000005E-6));
#762=CARTESIAN_POINT('',(-0.04465,0.0835166378315169,-2.00000000000005E-6));
#763=CARTESIAN_POINT('',(-0.03985,0.0787,-2.00000000000005E-6));
#764=MECHANICAL_DESIGN_GEOMETRIC_PRESENTATION_REPRESENTATION('',(#437),
#765);
#765=(
GEOMETRIC_REPRESENTATION_CONTEXT(3)
GLOBAL_UNCERTAINTY_ASSIGNED_CONTEXT((#766))
GLOBAL_UNIT_ASSIGNED_CONTEXT((#769,#768,#767))
REPRESENTATION_CONTEXT('Part 1','TOP_LEVEL_ASSEMBLY_PART')
);
#766=UNCERTAINTY_MEASURE_WITH_UNIT(LENGTH_MEASURE(2.31250000056332E-5),
#769,'DISTANCE_ACCURACY_VALUE','Maximum Tolerance applied to model');
#767=(
NAMED_UNIT(*)
SI_UNIT($,.STERADIAN.)
SOLID_ANGLE_UNIT()
);
#768=(
NAMED_UNIT(*)
PLANE_ANGLE_UNIT()
SI_UNIT($,.RADIAN.)
);
#769=(
LENGTH_UNIT()
NAMED_UNIT(*)
SI_UNIT($,.METRE.)
);
#770=PRODUCT_DEFINITION_SHAPE('','',#771);
#771=PRODUCT_DEFINITION('','',#773,#772);
#772=PRODUCT_DEFINITION_CONTEXT('',#779,'design');
#773=PRODUCT_DEFINITION_FORMATION_WITH_SPECIFIED_SOURCE('','',#775,
 .NOT_KNOWN.);
#774=PRODUCT_RELATED_PRODUCT_CATEGORY('','',(#775));
#775=PRODUCT('Part 1','Part 1','Part 1',(#777));
#776=PRODUCT_CATEGORY('','');
#777=PRODUCT_CONTEXT('',#779,'mechanical');
#778=APPLICATION_PROTOCOL_DEFINITION('international standard',
'ap242_managed_model_based_3d_engineering',2020,#779);
#779=APPLICATION_CONTEXT('managed model based 3d engineering');
ENDSEC;
END-ISO-10303-21;
