ISO-10303-21;
HEADER;
/* Generated by software containing ST-Developer
 * from STEP Tools, Inc. (www.steptools.com) 
 */
/* OPTION: using custom renumber hook */

FILE_DESCRIPTION(
/* description */ ('STEP AP242 Edition 2',
'CAx-IF Rec.Pracs.---Representation and Presentation of Product Manufa
cturing Information (PMI)---4.0---2014-10-13',
'CAx-IF Rec.Pracs.---3D Tessellated Geometry---0.4---2014-09-14','2;1',
'CAx-IF Rec.Pracs.---User Defined Attributes---1.5---2016-08-15'),
/* implementation_level */ '2;1');

FILE_NAME(
/* name */ '1',
/* time_stamp */ '2026-08-25T15:58:05Z',
/* author */ (''),
/* organization */ (''),
/* preprocessor_version */ 'ST-DEVELOPER v20',
/* originating_system */ 'ONSHAPE BY PTC INC, 1.219',
/* authorisation */ '  ');

FILE_SCHEMA (('AP242_MANAGED_MODEL_BASED_3D_ENGINEERING_MIM_LF { 1 0 10303 442 3 1 4 }'));
ENDSEC;

DATA;
#10=SHAPE_REPRESENTATION_RELATIONSHIP('','',#447,#11);
#11=ADVANCED_BREP_SHAPE_REPRESENTATION('',(#445),#725);
#12=CIRCLE('',#451,0.005);
#13=CIRCLE('',#452,0.005);
#14=CIRCLE('',#455,0.005);
#15=CIRCLE('',#456,0.005);
#16=CIRCLE('',#459,0.005);
#17=CIRCLE('',#460,0.005);
#18=CIRCLE('',#471,0.005);
#19=CIRCLE('',#472,0.005);
#20=CIRCLE('',#474,0.0011);
#21=CIRCLE('',#475,0.0011);
#22=CIRCLE('',#476,0.0011);
#23=CIRCLE('',#477,0.0011);
#24=CIRCLE('',#479,0.0011);
#25=CIRCLE('',#480,0.0011);
#26=CIRCLE('',#481,0.0011);
#27=CIRCLE('',#482,0.0011);
#28=CYLINDRICAL_SURFACE('',#450,0.005);
#29=CYLINDRICAL_SURFACE('',#454,0.005);
#30=CYLINDRICAL_SURFACE('',#458,0.005);
#31=CYLINDRICAL_SURFACE('',#470,0.005);
#32=CYLINDRICAL_SURFACE('',#483,0.0011);
#33=CYLINDRICAL_SURFACE('',#484,0.0011);
#34=CYLINDRICAL_SURFACE('',#485,0.0011);
#35=CYLINDRICAL_SURFACE('',#486,0.0011);
#36=ORIENTED_EDGE('',*,*,#148,.F.);
#37=ORIENTED_EDGE('',*,*,#149,.F.);
#38=ORIENTED_EDGE('',*,*,#150,.T.);
#39=ORIENTED_EDGE('',*,*,#151,.T.);
#40=ORIENTED_EDGE('',*,*,#152,.T.);
#41=ORIENTED_EDGE('',*,*,#153,.F.);
#42=ORIENTED_EDGE('',*,*,#154,.F.);
#43=ORIENTED_EDGE('',*,*,#149,.T.);
#44=ORIENTED_EDGE('',*,*,#155,.T.);
#45=ORIENTED_EDGE('',*,*,#156,.F.);
#46=ORIENTED_EDGE('',*,*,#157,.F.);
#47=ORIENTED_EDGE('',*,*,#153,.T.);
#48=ORIENTED_EDGE('',*,*,#158,.T.);
#49=ORIENTED_EDGE('',*,*,#159,.F.);
#50=ORIENTED_EDGE('',*,*,#160,.F.);
#51=ORIENTED_EDGE('',*,*,#156,.T.);
#52=ORIENTED_EDGE('',*,*,#161,.T.);
#53=ORIENTED_EDGE('',*,*,#162,.F.);
#54=ORIENTED_EDGE('',*,*,#163,.F.);
#55=ORIENTED_EDGE('',*,*,#159,.T.);
#56=ORIENTED_EDGE('',*,*,#164,.T.);
#57=ORIENTED_EDGE('',*,*,#165,.F.);
#58=ORIENTED_EDGE('',*,*,#166,.F.);
#59=ORIENTED_EDGE('',*,*,#162,.T.);
#60=ORIENTED_EDGE('',*,*,#167,.F.);
#61=ORIENTED_EDGE('',*,*,#168,.F.);
#62=ORIENTED_EDGE('',*,*,#169,.T.);
#63=ORIENTED_EDGE('',*,*,#165,.T.);
#64=ORIENTED_EDGE('',*,*,#170,.F.);
#65=ORIENTED_EDGE('',*,*,#171,.F.);
#66=ORIENTED_EDGE('',*,*,#172,.T.);
#67=ORIENTED_EDGE('',*,*,#173,.T.);
#68=ORIENTED_EDGE('',*,*,#174,.T.);
#69=ORIENTED_EDGE('',*,*,#175,.F.);
#70=ORIENTED_EDGE('',*,*,#176,.F.);
#71=ORIENTED_EDGE('',*,*,#171,.T.);
#72=ORIENTED_EDGE('',*,*,#177,.T.);
#73=ORIENTED_EDGE('',*,*,#178,.F.);
#74=ORIENTED_EDGE('',*,*,#179,.F.);
#75=ORIENTED_EDGE('',*,*,#175,.T.);
#76=ORIENTED_EDGE('',*,*,#180,.F.);
#77=ORIENTED_EDGE('',*,*,#181,.F.);
#78=ORIENTED_EDGE('',*,*,#182,.T.);
#79=ORIENTED_EDGE('',*,*,#183,.T.);
#80=ORIENTED_EDGE('',*,*,#184,.T.);
#81=ORIENTED_EDGE('',*,*,#185,.F.);
#82=ORIENTED_EDGE('',*,*,#186,.F.);
#83=ORIENTED_EDGE('',*,*,#181,.T.);
#84=ORIENTED_EDGE('',*,*,#187,.T.);
#85=ORIENTED_EDGE('',*,*,#188,.F.);
#86=ORIENTED_EDGE('',*,*,#189,.F.);
#87=ORIENTED_EDGE('',*,*,#185,.T.);
#88=ORIENTED_EDGE('',*,*,#190,.F.);
#89=ORIENTED_EDGE('',*,*,#173,.F.);
#90=ORIENTED_EDGE('',*,*,#191,.T.);
#91=ORIENTED_EDGE('',*,*,#178,.T.);
#92=ORIENTED_EDGE('',*,*,#192,.F.);
#93=ORIENTED_EDGE('',*,*,#183,.F.);
#94=ORIENTED_EDGE('',*,*,#193,.T.);
#95=ORIENTED_EDGE('',*,*,#188,.T.);
#96=ORIENTED_EDGE('',*,*,#194,.T.);
#97=ORIENTED_EDGE('',*,*,#151,.F.);
#98=ORIENTED_EDGE('',*,*,#195,.F.);
#99=ORIENTED_EDGE('',*,*,#168,.T.);
#100=ORIENTED_EDGE('',*,*,#196,.T.);
#101=ORIENTED_EDGE('',*,*,#197,.T.);
#102=ORIENTED_EDGE('',*,*,#198,.T.);
#103=ORIENTED_EDGE('',*,*,#199,.T.);
#104=ORIENTED_EDGE('',*,*,#182,.F.);
#105=ORIENTED_EDGE('',*,*,#186,.T.);
#106=ORIENTED_EDGE('',*,*,#189,.T.);
#107=ORIENTED_EDGE('',*,*,#193,.F.);
#108=ORIENTED_EDGE('',*,*,#172,.F.);
#109=ORIENTED_EDGE('',*,*,#176,.T.);
#110=ORIENTED_EDGE('',*,*,#179,.T.);
#111=ORIENTED_EDGE('',*,*,#191,.F.);
#112=ORIENTED_EDGE('',*,*,#150,.F.);
#113=ORIENTED_EDGE('',*,*,#154,.T.);
#114=ORIENTED_EDGE('',*,*,#157,.T.);
#115=ORIENTED_EDGE('',*,*,#160,.T.);
#116=ORIENTED_EDGE('',*,*,#163,.T.);
#117=ORIENTED_EDGE('',*,*,#166,.T.);
#118=ORIENTED_EDGE('',*,*,#169,.F.);
#119=ORIENTED_EDGE('',*,*,#195,.T.);
#120=ORIENTED_EDGE('',*,*,#200,.T.);
#121=ORIENTED_EDGE('',*,*,#201,.T.);
#122=ORIENTED_EDGE('',*,*,#202,.T.);
#123=ORIENTED_EDGE('',*,*,#203,.T.);
#124=ORIENTED_EDGE('',*,*,#180,.T.);
#125=ORIENTED_EDGE('',*,*,#192,.T.);
#126=ORIENTED_EDGE('',*,*,#187,.F.);
#127=ORIENTED_EDGE('',*,*,#184,.F.);
#128=ORIENTED_EDGE('',*,*,#170,.T.);
#129=ORIENTED_EDGE('',*,*,#190,.T.);
#130=ORIENTED_EDGE('',*,*,#177,.F.);
#131=ORIENTED_EDGE('',*,*,#174,.F.);
#132=ORIENTED_EDGE('',*,*,#148,.T.);
#133=ORIENTED_EDGE('',*,*,#194,.F.);
#134=ORIENTED_EDGE('',*,*,#167,.T.);
#135=ORIENTED_EDGE('',*,*,#164,.F.);
#136=ORIENTED_EDGE('',*,*,#161,.F.);
#137=ORIENTED_EDGE('',*,*,#158,.F.);
#138=ORIENTED_EDGE('',*,*,#155,.F.);
#139=ORIENTED_EDGE('',*,*,#152,.F.);
#140=ORIENTED_EDGE('',*,*,#199,.F.);
#141=ORIENTED_EDGE('',*,*,#203,.F.);
#142=ORIENTED_EDGE('',*,*,#198,.F.);
#143=ORIENTED_EDGE('',*,*,#202,.F.);
#144=ORIENTED_EDGE('',*,*,#197,.F.);
#145=ORIENTED_EDGE('',*,*,#201,.F.);
#146=ORIENTED_EDGE('',*,*,#196,.F.);
#147=ORIENTED_EDGE('',*,*,#200,.F.);
#148=EDGE_CURVE('',#204,#205,#244,.T.);
#149=EDGE_CURVE('',#206,#204,#245,.T.);
#150=EDGE_CURVE('',#206,#207,#246,.T.);
#151=EDGE_CURVE('',#207,#205,#247,.T.);
#152=EDGE_CURVE('',#204,#208,#12,.T.);
#153=EDGE_CURVE('',#209,#208,#248,.T.);
#154=EDGE_CURVE('',#206,#209,#13,.T.);
#155=EDGE_CURVE('',#208,#210,#249,.T.);
#156=EDGE_CURVE('',#211,#210,#250,.T.);
#157=EDGE_CURVE('',#209,#211,#251,.T.);
#158=EDGE_CURVE('',#210,#212,#14,.T.);
#159=EDGE_CURVE('',#213,#212,#252,.T.);
#160=EDGE_CURVE('',#211,#213,#15,.T.);
#161=EDGE_CURVE('',#212,#214,#253,.T.);
#162=EDGE_CURVE('',#215,#214,#254,.T.);
#163=EDGE_CURVE('',#213,#215,#255,.T.);
#164=EDGE_CURVE('',#214,#216,#16,.T.);
#165=EDGE_CURVE('',#217,#216,#256,.T.);
#166=EDGE_CURVE('',#215,#217,#17,.T.);
#167=EDGE_CURVE('',#218,#216,#257,.T.);
#168=EDGE_CURVE('',#219,#218,#258,.T.);
#169=EDGE_CURVE('',#219,#217,#259,.T.);
#170=EDGE_CURVE('',#220,#221,#260,.T.);
#171=EDGE_CURVE('',#222,#220,#261,.T.);
#172=EDGE_CURVE('',#222,#223,#262,.T.);
#173=EDGE_CURVE('',#223,#221,#263,.T.);
#174=EDGE_CURVE('',#220,#224,#264,.T.);
#175=EDGE_CURVE('',#225,#224,#265,.T.);
#176=EDGE_CURVE('',#222,#225,#266,.T.);
#177=EDGE_CURVE('',#224,#226,#267,.T.);
#178=EDGE_CURVE('',#227,#226,#268,.T.);
#179=EDGE_CURVE('',#225,#227,#269,.T.);
#180=EDGE_CURVE('',#228,#229,#270,.T.);
#181=EDGE_CURVE('',#230,#228,#271,.T.);
#182=EDGE_CURVE('',#230,#231,#272,.T.);
#183=EDGE_CURVE('',#231,#229,#273,.T.);
#184=EDGE_CURVE('',#228,#232,#274,.T.);
#185=EDGE_CURVE('',#233,#232,#275,.T.);
#186=EDGE_CURVE('',#230,#233,#276,.T.);
#187=EDGE_CURVE('',#232,#234,#277,.T.);
#188=EDGE_CURVE('',#235,#234,#278,.T.);
#189=EDGE_CURVE('',#233,#235,#279,.T.);
#190=EDGE_CURVE('',#221,#226,#280,.T.);
#191=EDGE_CURVE('',#223,#227,#281,.T.);
#192=EDGE_CURVE('',#229,#234,#282,.T.);
#193=EDGE_CURVE('',#231,#235,#283,.T.);
#194=EDGE_CURVE('',#218,#205,#18,.T.);
#195=EDGE_CURVE('',#219,#207,#19,.T.);
#196=EDGE_CURVE('',#236,#236,#20,.F.);
#197=EDGE_CURVE('',#237,#237,#21,.F.);
#198=EDGE_CURVE('',#238,#238,#22,.F.);
#199=EDGE_CURVE('',#239,#239,#23,.F.);
#200=EDGE_CURVE('',#240,#240,#24,.T.);
#201=EDGE_CURVE('',#241,#241,#25,.T.);
#202=EDGE_CURVE('',#242,#242,#26,.T.);
#203=EDGE_CURVE('',#243,#243,#27,.T.);
#204=VERTEX_POINT('',#608);
#205=VERTEX_POINT('',#609);
#206=VERTEX_POINT('',#611);
#207=VERTEX_POINT('',#613);
#208=VERTEX_POINT('',#617);
#209=VERTEX_POINT('',#619);
#210=VERTEX_POINT('',#623);
#211=VERTEX_POINT('',#625);
#212=VERTEX_POINT('',#629);
#213=VERTEX_POINT('',#631);
#214=VERTEX_POINT('',#635);
#215=VERTEX_POINT('',#637);
#216=VERTEX_POINT('',#641);
#217=VERTEX_POINT('',#643);
#218=VERTEX_POINT('',#647);
#219=VERTEX_POINT('',#649);
#220=VERTEX_POINT('',#653);
#221=VERTEX_POINT('',#654);
#222=VERTEX_POINT('',#656);
#223=VERTEX_POINT('',#658);
#224=VERTEX_POINT('',#662);
#225=VERTEX_POINT('',#664);
#226=VERTEX_POINT('',#668);
#227=VERTEX_POINT('',#670);
#228=VERTEX_POINT('',#674);
#229=VERTEX_POINT('',#675);
#230=VERTEX_POINT('',#677);
#231=VERTEX_POINT('',#679);
#232=VERTEX_POINT('',#683);
#233=VERTEX_POINT('',#685);
#234=VERTEX_POINT('',#689);
#235=VERTEX_POINT('',#691);
#236=VERTEX_POINT('',#704);
#237=VERTEX_POINT('',#706);
#238=VERTEX_POINT('',#708);
#239=VERTEX_POINT('',#710);
#240=VERTEX_POINT('',#713);
#241=VERTEX_POINT('',#715);
#242=VERTEX_POINT('',#717);
#243=VERTEX_POINT('',#719);
#244=LINE('',#607,#284);
#245=LINE('',#610,#285);
#246=LINE('',#612,#286);
#247=LINE('',#614,#287);
#248=LINE('',#618,#288);
#249=LINE('',#622,#289);
#250=LINE('',#624,#290);
#251=LINE('',#626,#291);
#252=LINE('',#630,#292);
#253=LINE('',#634,#293);
#254=LINE('',#636,#294);
#255=LINE('',#638,#295);
#256=LINE('',#642,#296);
#257=LINE('',#646,#297);
#258=LINE('',#648,#298);
#259=LINE('',#650,#299);
#260=LINE('',#652,#300);
#261=LINE('',#655,#301);
#262=LINE('',#657,#302);
#263=LINE('',#659,#303);
#264=LINE('',#661,#304);
#265=LINE('',#663,#305);
#266=LINE('',#665,#306);
#267=LINE('',#667,#307);
#268=LINE('',#669,#308);
#269=LINE('',#671,#309);
#270=LINE('',#673,#310);
#271=LINE('',#676,#311);
#272=LINE('',#678,#312);
#273=LINE('',#680,#313);
#274=LINE('',#682,#314);
#275=LINE('',#684,#315);
#276=LINE('',#686,#316);
#277=LINE('',#688,#317);
#278=LINE('',#690,#318);
#279=LINE('',#692,#319);
#280=LINE('',#694,#320);
#281=LINE('',#695,#321);
#282=LINE('',#697,#322);
#283=LINE('',#698,#323);
#284=VECTOR('',#491,1.);
#285=VECTOR('',#492,1.);
#286=VECTOR('',#493,1.);
#287=VECTOR('',#494,1.);
#288=VECTOR('',#499,1.);
#289=VECTOR('',#504,1.);
#290=VECTOR('',#505,1.);
#291=VECTOR('',#506,1.);
#292=VECTOR('',#511,1.);
#293=VECTOR('',#516,1.);
#294=VECTOR('',#517,1.);
#295=VECTOR('',#518,1.);
#296=VECTOR('',#523,1.);
#297=VECTOR('',#528,1.);
#298=VECTOR('',#529,1.);
#299=VECTOR('',#530,1.);
#300=VECTOR('',#533,1.);
#301=VECTOR('',#534,1.);
#302=VECTOR('',#535,1.);
#303=VECTOR('',#536,1.);
#304=VECTOR('',#539,1.);
#305=VECTOR('',#540,1.);
#306=VECTOR('',#541,1.);
#307=VECTOR('',#544,1.);
#308=VECTOR('',#545,1.);
#309=VECTOR('',#546,1.);
#310=VECTOR('',#549,1.);
#311=VECTOR('',#550,1.);
#312=VECTOR('',#551,1.);
#313=VECTOR('',#552,1.);
#314=VECTOR('',#555,1.);
#315=VECTOR('',#556,1.);
#316=VECTOR('',#557,1.);
#317=VECTOR('',#560,1.);
#318=VECTOR('',#561,1.);
#319=VECTOR('',#562,1.);
#320=VECTOR('',#565,1.);
#321=VECTOR('',#566,1.);
#322=VECTOR('',#569,1.);
#323=VECTOR('',#570,1.);
#324=EDGE_LOOP('',(#36,#37,#38,#39));
#325=EDGE_LOOP('',(#40,#41,#42,#43));
#326=EDGE_LOOP('',(#44,#45,#46,#47));
#327=EDGE_LOOP('',(#48,#49,#50,#51));
#328=EDGE_LOOP('',(#52,#53,#54,#55));
#329=EDGE_LOOP('',(#56,#57,#58,#59));
#330=EDGE_LOOP('',(#60,#61,#62,#63));
#331=EDGE_LOOP('',(#64,#65,#66,#67));
#332=EDGE_LOOP('',(#68,#69,#70,#71));
#333=EDGE_LOOP('',(#72,#73,#74,#75));
#334=EDGE_LOOP('',(#76,#77,#78,#79));
#335=EDGE_LOOP('',(#80,#81,#82,#83));
#336=EDGE_LOOP('',(#84,#85,#86,#87));
#337=EDGE_LOOP('',(#88,#89,#90,#91));
#338=EDGE_LOOP('',(#92,#93,#94,#95));
#339=EDGE_LOOP('',(#96,#97,#98,#99));
#340=EDGE_LOOP('',(#100));
#341=EDGE_LOOP('',(#101));
#342=EDGE_LOOP('',(#102));
#343=EDGE_LOOP('',(#103));
#344=EDGE_LOOP('',(#104,#105,#106,#107));
#345=EDGE_LOOP('',(#108,#109,#110,#111));
#346=EDGE_LOOP('',(#112,#113,#114,#115,#116,#117,#118,#119));
#347=EDGE_LOOP('',(#120));
#348=EDGE_LOOP('',(#121));
#349=EDGE_LOOP('',(#122));
#350=EDGE_LOOP('',(#123));
#351=EDGE_LOOP('',(#124,#125,#126,#127));
#352=EDGE_LOOP('',(#128,#129,#130,#131));
#353=EDGE_LOOP('',(#132,#133,#134,#135,#136,#137,#138,#139));
#354=EDGE_LOOP('',(#140));
#355=EDGE_LOOP('',(#141));
#356=EDGE_LOOP('',(#142));
#357=EDGE_LOOP('',(#143));
#358=EDGE_LOOP('',(#144));
#359=EDGE_LOOP('',(#145));
#360=EDGE_LOOP('',(#146));
#361=EDGE_LOOP('',(#147));
#362=FACE_BOUND('',#324,.T.);
#363=FACE_BOUND('',#325,.T.);
#364=FACE_BOUND('',#326,.T.);
#365=FACE_BOUND('',#327,.T.);
#366=FACE_BOUND('',#328,.T.);
#367=FACE_BOUND('',#329,.T.);
#368=FACE_BOUND('',#330,.T.);
#369=FACE_BOUND('',#331,.T.);
#370=FACE_BOUND('',#332,.T.);
#371=FACE_BOUND('',#333,.T.);
#372=FACE_BOUND('',#334,.T.);
#373=FACE_BOUND('',#335,.T.);
#374=FACE_BOUND('',#336,.T.);
#375=FACE_BOUND('',#337,.T.);
#376=FACE_BOUND('',#338,.T.);
#377=FACE_BOUND('',#339,.T.);
#378=FACE_BOUND('',#340,.T.);
#379=FACE_BOUND('',#341,.T.);
#380=FACE_BOUND('',#342,.T.);
#381=FACE_BOUND('',#343,.T.);
#382=FACE_BOUND('',#344,.T.);
#383=FACE_BOUND('',#345,.T.);
#384=FACE_BOUND('',#346,.T.);
#385=FACE_BOUND('',#347,.T.);
#386=FACE_BOUND('',#348,.T.);
#387=FACE_BOUND('',#349,.T.);
#388=FACE_BOUND('',#350,.T.);
#389=FACE_BOUND('',#351,.T.);
#390=FACE_BOUND('',#352,.T.);
#391=FACE_BOUND('',#353,.T.);
#392=FACE_BOUND('',#354,.T.);
#393=FACE_BOUND('',#355,.T.);
#394=FACE_BOUND('',#356,.T.);
#395=FACE_BOUND('',#357,.T.);
#396=FACE_BOUND('',#358,.T.);
#397=FACE_BOUND('',#359,.T.);
#398=FACE_BOUND('',#360,.T.);
#399=FACE_BOUND('',#361,.T.);
#400=PLANE('',#449);
#401=PLANE('',#453);
#402=PLANE('',#457);
#403=PLANE('',#461);
#404=PLANE('',#462);
#405=PLANE('',#463);
#406=PLANE('',#464);
#407=PLANE('',#465);
#408=PLANE('',#466);
#409=PLANE('',#467);
#410=PLANE('',#468);
#411=PLANE('',#469);
#412=PLANE('',#473);
#413=PLANE('',#478);
#414=ADVANCED_FACE('',(#362),#400,.T.);
#415=ADVANCED_FACE('',(#363),#28,.T.);
#416=ADVANCED_FACE('',(#364),#401,.F.);
#417=ADVANCED_FACE('',(#365),#29,.T.);
#418=ADVANCED_FACE('',(#366),#402,.F.);
#419=ADVANCED_FACE('',(#367),#30,.T.);
#420=ADVANCED_FACE('',(#368),#403,.T.);
#421=ADVANCED_FACE('',(#369),#404,.T.);
#422=ADVANCED_FACE('',(#370),#405,.F.);
#423=ADVANCED_FACE('',(#371),#406,.F.);
#424=ADVANCED_FACE('',(#372),#407,.T.);
#425=ADVANCED_FACE('',(#373),#408,.F.);
#426=ADVANCED_FACE('',(#374),#409,.F.);
#427=ADVANCED_FACE('',(#375),#410,.T.);
#428=ADVANCED_FACE('',(#376),#411,.T.);
#429=ADVANCED_FACE('',(#377),#31,.T.);
#430=ADVANCED_FACE('',(#378,#379,#380,#381,#382,#383,#384),#412,.T.);
#431=ADVANCED_FACE('',(#385,#386,#387,#388,#389,#390,#391),#413,.F.);
#432=ADVANCED_FACE('',(#392,#393),#32,.F.);
#433=ADVANCED_FACE('',(#394,#395),#33,.F.);
#434=ADVANCED_FACE('',(#396,#397),#34,.F.);
#435=ADVANCED_FACE('',(#398,#399),#35,.F.);
#436=CLOSED_SHELL('',(#414,#415,#416,#417,#418,#419,#420,#421,#422,#423,
#424,#425,#426,#427,#428,#429,#430,#431,#432,#433,#434,#435));
#437=STYLED_ITEM('',(#438),#445);
#438=PRESENTATION_STYLE_ASSIGNMENT((#439));
#439=SURFACE_STYLE_USAGE(.BOTH.,#440);
#440=SURFACE_SIDE_STYLE('',(#441));
#441=SURFACE_STYLE_FILL_AREA(#442);
#442=FILL_AREA_STYLE('',(#443));
#443=FILL_AREA_STYLE_COLOUR('',#444);
#444=COLOUR_RGB('',0.349019607843138,0.376470588235294,0.4);
#445=MANIFOLD_SOLID_BREP('Part 1',#436);
#446=SHAPE_DEFINITION_REPRESENTATION(#730,#447);
#447=SHAPE_REPRESENTATION('Part 1',(#448),#725);
#448=AXIS2_PLACEMENT_3D('',#605,#487,#488);
#449=AXIS2_PLACEMENT_3D('',#606,#489,#490);
#450=AXIS2_PLACEMENT_3D('',#615,#495,#496);
#451=AXIS2_PLACEMENT_3D('',#616,#497,#498);
#452=AXIS2_PLACEMENT_3D('',#620,#500,#501);
#453=AXIS2_PLACEMENT_3D('',#621,#502,#503);
#454=AXIS2_PLACEMENT_3D('',#627,#507,#508);
#455=AXIS2_PLACEMENT_3D('',#628,#509,#510);
#456=AXIS2_PLACEMENT_3D('',#632,#512,#513);
#457=AXIS2_PLACEMENT_3D('',#633,#514,#515);
#458=AXIS2_PLACEMENT_3D('',#639,#519,#520);
#459=AXIS2_PLACEMENT_3D('',#640,#521,#522);
#460=AXIS2_PLACEMENT_3D('',#644,#524,#525);
#461=AXIS2_PLACEMENT_3D('',#645,#526,#527);
#462=AXIS2_PLACEMENT_3D('',#651,#531,#532);
#463=AXIS2_PLACEMENT_3D('',#660,#537,#538);
#464=AXIS2_PLACEMENT_3D('',#666,#542,#543);
#465=AXIS2_PLACEMENT_3D('',#672,#547,#548);
#466=AXIS2_PLACEMENT_3D('',#681,#553,#554);
#467=AXIS2_PLACEMENT_3D('',#687,#558,#559);
#468=AXIS2_PLACEMENT_3D('',#693,#563,#564);
#469=AXIS2_PLACEMENT_3D('',#696,#567,#568);
#470=AXIS2_PLACEMENT_3D('',#699,#571,#572);
#471=AXIS2_PLACEMENT_3D('',#700,#573,#574);
#472=AXIS2_PLACEMENT_3D('',#701,#575,#576);
#473=AXIS2_PLACEMENT_3D('',#702,#577,#578);
#474=AXIS2_PLACEMENT_3D('',#703,#579,#580);
#475=AXIS2_PLACEMENT_3D('',#705,#581,#582);
#476=AXIS2_PLACEMENT_3D('',#707,#583,#584);
#477=AXIS2_PLACEMENT_3D('',#709,#585,#586);
#478=AXIS2_PLACEMENT_3D('',#711,#587,#588);
#479=AXIS2_PLACEMENT_3D('',#712,#589,#590);
#480=AXIS2_PLACEMENT_3D('',#714,#591,#592);
#481=AXIS2_PLACEMENT_3D('',#716,#593,#594);
#482=AXIS2_PLACEMENT_3D('',#718,#595,#596);
#483=AXIS2_PLACEMENT_3D('',#720,#597,#598);
#484=AXIS2_PLACEMENT_3D('',#721,#599,#600);
#485=AXIS2_PLACEMENT_3D('',#722,#601,#602);
#486=AXIS2_PLACEMENT_3D('',#723,#603,#604);
#487=DIRECTION('',(0.,0.,1.));
#488=DIRECTION('',(1.,0.,0.));
#489=DIRECTION('',(0.,1.,0.));
#490=DIRECTION('',(0.,0.,1.));
#491=DIRECTION('',(1.,0.,0.));
#492=DIRECTION('',(0.,0.,-1.));
#493=DIRECTION('',(1.,0.,0.));
#494=DIRECTION('',(0.,0.,-1.));
#495=DIRECTION('',(0.,0.,-1.));
#496=DIRECTION('',(-1.,0.,0.));
#497=DIRECTION('',(0.,0.,1.));
#498=DIRECTION('',(1.,0.,0.));
#499=DIRECTION('',(0.,0.,-1.));
#500=DIRECTION('',(0.,0.,1.));
#501=DIRECTION('',(1.,0.,0.));
#502=DIRECTION('',(1.,0.,0.));
#503=DIRECTION('',(0.,0.,-1.));
#504=DIRECTION('',(0.,-1.,0.));
#505=DIRECTION('',(0.,0.,-1.));
#506=DIRECTION('',(0.,-1.,0.));
#507=DIRECTION('',(0.,0.,-1.));
#508=DIRECTION('',(-1.,0.,0.));
#509=DIRECTION('',(0.,0.,1.));
#510=DIRECTION('',(1.,0.,0.));
#511=DIRECTION('',(0.,0.,-1.));
#512=DIRECTION('',(0.,0.,1.));
#513=DIRECTION('',(1.,0.,0.));
#514=DIRECTION('',(0.,1.,0.));
#515=DIRECTION('',(0.,0.,1.));
#516=DIRECTION('',(1.,0.,0.));
#517=DIRECTION('',(0.,0.,-1.));
#518=DIRECTION('',(1.,0.,0.));
#519=DIRECTION('',(0.,0.,-1.));
#520=DIRECTION('',(-1.,0.,0.));
#521=DIRECTION('',(0.,0.,1.));
#522=DIRECTION('',(1.,0.,0.));
#523=DIRECTION('',(0.,0.,-1.));
#524=DIRECTION('',(0.,0.,1.));
#525=DIRECTION('',(1.,0.,0.));
#526=DIRECTION('',(1.,8.7062658769225E-17,0.));
#527=DIRECTION('',(-8.7062658769225E-17,1.,0.));
#528=DIRECTION('',(8.7062658769225E-17,-1.,0.));
#529=DIRECTION('',(0.,0.,-1.));
#530=DIRECTION('',(8.7062658769225E-17,-1.,0.));
#531=DIRECTION('',(1.,8.67361737988404E-17,0.));
#532=DIRECTION('',(-8.67361737988404E-17,1.,0.));
#533=DIRECTION('',(8.67361737988404E-17,-1.,0.));
#534=DIRECTION('',(0.,0.,-1.));
#535=DIRECTION('',(8.67361737988404E-17,-1.,0.));
#536=DIRECTION('',(0.,0.,-1.));
#537=DIRECTION('',(-4.68844182696435E-16,1.,0.));
#538=DIRECTION('',(-1.,-4.68844182696435E-16,0.));
#539=DIRECTION('',(1.,4.68844182696435E-16,0.));
#540=DIRECTION('',(0.,0.,-1.));
#541=DIRECTION('',(1.,4.68844182696435E-16,0.));
#542=DIRECTION('',(1.,4.33680868994201E-17,0.));
#543=DIRECTION('',(-4.33680868994201E-17,1.,0.));
#544=DIRECTION('',(4.33680868994201E-17,-1.,0.));
#545=DIRECTION('',(0.,0.,-1.));
#546=DIRECTION('',(4.33680868994201E-17,-1.,0.));
#547=DIRECTION('',(1.,0.,0.));
#548=DIRECTION('',(0.,0.,-1.));
#549=DIRECTION('',(0.,-1.,0.));
#550=DIRECTION('',(0.,0.,-1.));
#551=DIRECTION('',(0.,-1.,0.));
#552=DIRECTION('',(0.,0.,-1.));
#553=DIRECTION('',(0.,1.,0.));
#554=DIRECTION('',(0.,0.,1.));
#555=DIRECTION('',(1.,0.,0.));
#556=DIRECTION('',(0.,0.,-1.));
#557=DIRECTION('',(1.,0.,0.));
#558=DIRECTION('',(1.,0.,0.));
#559=DIRECTION('',(0.,0.,-1.));
#560=DIRECTION('',(0.,-1.,0.));
#561=DIRECTION('',(0.,0.,-1.));
#562=DIRECTION('',(0.,-1.,0.));
#563=DIRECTION('',(0.,1.,0.));
#564=DIRECTION('',(0.,0.,1.));
#565=DIRECTION('',(1.,0.,0.));
#566=DIRECTION('',(1.,0.,0.));
#567=DIRECTION('',(0.,1.,0.));
#568=DIRECTION('',(0.,0.,1.));
#569=DIRECTION('',(1.,0.,0.));
#570=DIRECTION('',(1.,0.,0.));
#571=DIRECTION('',(0.,0.,-1.));
#572=DIRECTION('',(-1.,0.,0.));
#573=DIRECTION('',(0.,0.,1.));
#574=DIRECTION('',(1.,0.,0.));
#575=DIRECTION('',(0.,0.,1.));
#576=DIRECTION('',(1.,0.,0.));
#577=DIRECTION('',(0.,0.,1.));
#578=DIRECTION('',(1.,0.,0.));
#579=DIRECTION('',(0.,0.,1.));
#580=DIRECTION('',(1.,0.,0.));
#581=DIRECTION('',(0.,0.,1.));
#582=DIRECTION('',(1.,0.,0.));
#583=DIRECTION('',(0.,0.,1.));
#584=DIRECTION('',(1.,0.,0.));
#585=DIRECTION('',(0.,0.,1.));
#586=DIRECTION('',(1.,0.,0.));
#587=DIRECTION('',(0.,0.,1.));
#588=DIRECTION('',(1.,0.,0.));
#589=DIRECTION('',(0.,0.,1.));
#590=DIRECTION('',(1.,0.,0.));
#591=DIRECTION('',(0.,0.,1.));
#592=DIRECTION('',(1.,0.,0.));
#593=DIRECTION('',(0.,0.,1.));
#594=DIRECTION('',(1.,0.,0.));
#595=DIRECTION('',(0.,0.,1.));
#596=DIRECTION('',(1.,0.,0.));
#597=DIRECTION('',(0.,0.,1.));
#598=DIRECTION('',(1.,0.,0.));
#599=DIRECTION('',(0.,0.,1.));
#600=DIRECTION('',(1.,0.,0.));
#601=DIRECTION('',(0.,0.,1.));
#602=DIRECTION('',(1.,0.,0.));
#603=DIRECTION('',(0.,0.,1.));
#604=DIRECTION('',(1.,0.,0.));
#605=CARTESIAN_POINT('',(0.,0.,0.));
#606=CARTESIAN_POINT('',(-0.00687145991150579,0.0896031153321266,0.0058));
#607=CARTESIAN_POINT('',(-0.00687145991150579,0.0896031153321266,0.));
#608=CARTESIAN_POINT('',(-0.0460714599115058,0.0896031153321266,0.));
#609=CARTESIAN_POINT('',(0.0323285400884942,0.0896031153321266,0.));
#610=CARTESIAN_POINT('',(-0.0460714599115058,0.0896031153321266,0.0058));
#611=CARTESIAN_POINT('',(-0.0460714599115058,0.0896031153321266,0.0058));
#612=CARTESIAN_POINT('',(-0.00687145991150579,0.0896031153321266,0.0058));
#613=CARTESIAN_POINT('',(0.0323285400884942,0.0896031153321266,0.0058));
#614=CARTESIAN_POINT('',(0.0323285400884942,0.0896031153321266,0.0058));
#615=CARTESIAN_POINT('',(-0.0460714599115058,0.0846031153321266,0.0058));
#616=CARTESIAN_POINT('',(-0.0460714599115058,0.0846031153321266,0.));
#617=CARTESIAN_POINT('',(-0.0510714599115058,0.0846031153321266,0.));
#618=CARTESIAN_POINT('',(-0.0510714599115058,0.0846031153321266,0.0058));
#619=CARTESIAN_POINT('',(-0.0510714599115058,0.0846031153321266,0.0058));
#620=CARTESIAN_POINT('',(-0.0460714599115058,0.0846031153321266,0.0058));
#621=CARTESIAN_POINT('',(-0.0510714599115058,0.00490311533212662,0.0058));
#622=CARTESIAN_POINT('',(-0.0510714599115058,0.00490311533212662,0.));
#623=CARTESIAN_POINT('',(-0.0510714599115058,-0.0747968846678734,0.));
#624=CARTESIAN_POINT('',(-0.0510714599115058,-0.0747968846678734,0.0058));
#625=CARTESIAN_POINT('',(-0.0510714599115058,-0.0747968846678734,0.0058));
#626=CARTESIAN_POINT('',(-0.0510714599115058,0.00490311533212662,0.0058));
#627=CARTESIAN_POINT('',(-0.0460714599115058,-0.0747968846678734,0.0058));
#628=CARTESIAN_POINT('',(-0.0460714599115058,-0.0747968846678734,0.));
#629=CARTESIAN_POINT('',(-0.0460714599115058,-0.0797968846678734,0.));
#630=CARTESIAN_POINT('',(-0.0460714599115058,-0.0797968846678734,0.0058));
#631=CARTESIAN_POINT('',(-0.0460714599115058,-0.0797968846678734,0.0058));
#632=CARTESIAN_POINT('',(-0.0460714599115058,-0.0747968846678734,0.0058));
#633=CARTESIAN_POINT('',(-0.00687145991150578,-0.0797968846678734,0.0058));
#634=CARTESIAN_POINT('',(-0.00687145991150578,-0.0797968846678734,0.));
#635=CARTESIAN_POINT('',(0.0323285400884942,-0.0797968846678734,0.));
#636=CARTESIAN_POINT('',(0.0323285400884942,-0.0797968846678734,0.0058));
#637=CARTESIAN_POINT('',(0.0323285400884942,-0.0797968846678734,0.0058));
#638=CARTESIAN_POINT('',(-0.00687145991150578,-0.0797968846678734,0.0058));
#639=CARTESIAN_POINT('',(0.0323285400884942,-0.0747968846678734,0.0058));
#640=CARTESIAN_POINT('',(0.0323285400884942,-0.0747968846678734,0.));
#641=CARTESIAN_POINT('',(0.0373285400884942,-0.0747968846678734,0.));
#642=CARTESIAN_POINT('',(0.0373285400884942,-0.0747968846678734,0.0058));
#643=CARTESIAN_POINT('',(0.0373285400884942,-0.0747968846678734,0.0058));
#644=CARTESIAN_POINT('',(0.0323285400884942,-0.0747968846678734,0.0058));
#645=CARTESIAN_POINT('',(0.0373285400884942,0.00490311533212662,0.0058));
#646=CARTESIAN_POINT('',(0.0373285400884942,0.00490311533212662,0.));
#647=CARTESIAN_POINT('',(0.0373285400884942,0.0846031153321266,0.));
#648=CARTESIAN_POINT('',(0.0373285400884942,0.0846031153321266,0.0058));
#649=CARTESIAN_POINT('',(0.0373285400884942,0.0846031153321266,0.0058));
#650=CARTESIAN_POINT('',(0.0373285400884942,0.00490311533212662,0.0058));
#651=CARTESIAN_POINT('',(-0.0438714599115058,-0.0180968846678734,0.0058));
#652=CARTESIAN_POINT('',(-0.0438714599115058,-0.0180968846678734,0.));
#653=CARTESIAN_POINT('',(-0.0438714599115059,0.0219031153321266,0.));
#654=CARTESIAN_POINT('',(-0.0438714599115058,-0.0580968846678734,0.));
#655=CARTESIAN_POINT('',(-0.0438714599115059,0.0219031153321266,0.0058));
#656=CARTESIAN_POINT('',(-0.0438714599115059,0.0219031153321266,0.0058));
#657=CARTESIAN_POINT('',(-0.0438714599115058,-0.0180968846678734,0.0058));
#658=CARTESIAN_POINT('',(-0.0438714599115058,-0.0580968846678734,0.0058));
#659=CARTESIAN_POINT('',(-0.0438714599115058,-0.0580968846678734,0.0058));
#660=CARTESIAN_POINT('',(-0.00687145991150584,0.0219031153321266,0.0058));
#661=CARTESIAN_POINT('',(-0.00687145991150584,0.0219031153321266,0.));
#662=CARTESIAN_POINT('',(0.0301285400884942,0.0219031153321266,0.));
#663=CARTESIAN_POINT('',(0.0301285400884942,0.0219031153321266,0.0058));
#664=CARTESIAN_POINT('',(0.0301285400884942,0.0219031153321266,0.0058));
#665=CARTESIAN_POINT('',(-0.00687145991150584,0.0219031153321266,0.0058));
#666=CARTESIAN_POINT('',(0.0301285400884942,-0.0180968846678734,0.0058));
#667=CARTESIAN_POINT('',(0.0301285400884942,-0.0180968846678734,0.));
#668=CARTESIAN_POINT('',(0.0301285400884942,-0.0580968846678734,0.));
#669=CARTESIAN_POINT('',(0.0301285400884942,-0.0580968846678734,0.0058));
#670=CARTESIAN_POINT('',(0.0301285400884942,-0.0580968846678734,0.0058));
#671=CARTESIAN_POINT('',(0.0301285400884942,-0.0180968846678734,0.0058));
#672=CARTESIAN_POINT('',(-0.0253071186405822,0.0573102026605606,0.0058));
#673=CARTESIAN_POINT('',(-0.0253071186405822,0.0573102026605606,0.));
#674=CARTESIAN_POINT('',(-0.0253071186405822,0.0755931153321266,0.));
#675=CARTESIAN_POINT('',(-0.0253071186405822,0.0390272899889946,0.));
#676=CARTESIAN_POINT('',(-0.0253071186405822,0.0755931153321266,0.0058));
#677=CARTESIAN_POINT('',(-0.0253071186405822,0.0755931153321266,0.0058));
#678=CARTESIAN_POINT('',(-0.0253071186405822,0.0573102026605606,0.0058));
#679=CARTESIAN_POINT('',(-0.0253071186405822,0.0390272899889946,0.0058));
#680=CARTESIAN_POINT('',(-0.0253071186405822,0.0390272899889946,0.0058));
#681=CARTESIAN_POINT('',(-0.001514289276044,0.0755931153321266,0.0058));
#682=CARTESIAN_POINT('',(-0.001514289276044,0.0755931153321266,0.));
#683=CARTESIAN_POINT('',(0.0222785400884942,0.0755931153321266,0.));
#684=CARTESIAN_POINT('',(0.0222785400884942,0.0755931153321266,0.0058));
#685=CARTESIAN_POINT('',(0.0222785400884942,0.0755931153321266,0.0058));
#686=CARTESIAN_POINT('',(-0.001514289276044,0.0755931153321266,0.0058));
#687=CARTESIAN_POINT('',(0.0222785400884942,0.0573102026605606,0.0058));
#688=CARTESIAN_POINT('',(0.0222785400884942,0.0573102026605606,0.));
#689=CARTESIAN_POINT('',(0.0222785400884942,0.0390272899889946,0.));
#690=CARTESIAN_POINT('',(0.0222785400884942,0.0390272899889946,0.0058));
#691=CARTESIAN_POINT('',(0.0222785400884942,0.0390272899889946,0.0058));
#692=CARTESIAN_POINT('',(0.0222785400884942,0.0573102026605606,0.0058));
#693=CARTESIAN_POINT('',(-0.0068714599115058,-0.0580968846678734,0.0058));
#694=CARTESIAN_POINT('',(-0.0068714599115058,-0.0580968846678734,0.));
#695=CARTESIAN_POINT('',(-0.0068714599115058,-0.0580968846678734,0.0058));
#696=CARTESIAN_POINT('',(-0.001514289276044,0.0390272899889946,0.0058));
#697=CARTESIAN_POINT('',(-0.001514289276044,0.0390272899889946,0.));
#698=CARTESIAN_POINT('',(-0.001514289276044,0.0390272899889946,0.0058));
#699=CARTESIAN_POINT('',(0.0323285400884942,0.0846031153321266,0.0058));
#700=CARTESIAN_POINT('',(0.0323285400884942,0.0846031153321266,0.));
#701=CARTESIAN_POINT('',(0.0323285400884942,0.0846031153321266,0.0058));
#702=CARTESIAN_POINT('',(-0.00687145991150578,0.0049031153321266,0.0058));
#703=CARTESIAN_POINT('',(-0.0438714599115058,-0.0730968846678734,0.0058));
#704=CARTESIAN_POINT('',(-0.0427714599115058,-0.0730968846678734,0.0058));
#705=CARTESIAN_POINT('',(0.0301285400884942,-0.0730968846678734,0.0058));
#706=CARTESIAN_POINT('',(0.0312285400884942,-0.0730968846678734,0.0058));
#707=CARTESIAN_POINT('',(0.0301285400884942,0.0829031153321266,0.0058));
#708=CARTESIAN_POINT('',(0.0312285400884942,0.0829031153321266,0.0058));
#709=CARTESIAN_POINT('',(-0.0438714599115058,0.0829031153321266,0.0058));
#710=CARTESIAN_POINT('',(-0.0427714599115058,0.0829031153321266,0.0058));
#711=CARTESIAN_POINT('',(-0.00687145991150578,0.0049031153321266,0.));
#712=CARTESIAN_POINT('',(-0.0438714599115058,-0.0730968846678734,0.));
#713=CARTESIAN_POINT('',(-0.0427714599115058,-0.0730968846678734,0.));
#714=CARTESIAN_POINT('',(0.0301285400884942,-0.0730968846678734,0.));
#715=CARTESIAN_POINT('',(0.0312285400884942,-0.0730968846678734,0.));
#716=CARTESIAN_POINT('',(0.0301285400884942,0.0829031153321266,0.));
#717=CARTESIAN_POINT('',(0.0312285400884942,0.0829031153321266,0.));
#718=CARTESIAN_POINT('',(-0.0438714599115058,0.0829031153321266,0.));
#719=CARTESIAN_POINT('',(-0.0427714599115058,0.0829031153321266,0.));
#720=CARTESIAN_POINT('',(-0.0438714599115058,0.0829031153321266,0.));
#721=CARTESIAN_POINT('',(0.0301285400884942,0.0829031153321266,0.));
#722=CARTESIAN_POINT('',(0.0301285400884942,-0.0730968846678734,0.));
#723=CARTESIAN_POINT('',(-0.0438714599115058,-0.0730968846678734,0.));
#724=MECHANICAL_DESIGN_GEOMETRIC_PRESENTATION_REPRESENTATION('',(#437),
#725);
#725=(
GEOMETRIC_REPRESENTATION_CONTEXT(3)
GLOBAL_UNCERTAINTY_ASSIGNED_CONTEXT((#726))
GLOBAL_UNIT_ASSIGNED_CONTEXT((#729,#728,#727))
REPRESENTATION_CONTEXT('Part 1','TOP_LEVEL_ASSEMBLY_PART')
);
#726=UNCERTAINTY_MEASURE_WITH_UNIT(LENGTH_MEASURE(1.E-8),#729,
'DISTANCE_ACCURACY_VALUE','Maximum Tolerance applied to model');
#727=(
NAMED_UNIT(*)
SI_UNIT($,.STERADIAN.)
SOLID_ANGLE_UNIT()
);
#728=(
NAMED_UNIT(*)
PLANE_ANGLE_UNIT()
SI_UNIT($,.RADIAN.)
);
#729=(
LENGTH_UNIT()
NAMED_UNIT(*)
SI_UNIT($,.METRE.)
);
#730=PRODUCT_DEFINITION_SHAPE('','',#731);
#731=PRODUCT_DEFINITION('','',#733,#732);
#732=PRODUCT_DEFINITION_CONTEXT('',#739,'design');
#733=PRODUCT_DEFINITION_FORMATION_WITH_SPECIFIED_SOURCE('','',#735,
 .NOT_KNOWN.);
#734=PRODUCT_RELATED_PRODUCT_CATEGORY('','',(#735));
#735=PRODUCT('Part 1','Part 1','Part 1',(#737));
#736=PRODUCT_CATEGORY('','');
#737=PRODUCT_CONTEXT('',#739,'mechanical');
#738=APPLICATION_PROTOCOL_DEFINITION('international standard',
'ap242_managed_model_based_3d_engineering',2020,#739);
#739=APPLICATION_CONTEXT('managed model based 3d engineering');
ENDSEC;
END-ISO-10303-21;
